<svg width="548" height="308" viewBox="0 0 548 308" fill="none" xmlns="http://www.w3.org/2000/svg">
<path d="M55.576 34.3168C55.441 34.418 55.3398 42.9889 55.3398 53.3145V72.1436L54.0912 71.6712C53.3826 71.435 52.2016 71.2325 51.4255 71.1988C50.6831 71.1988 49.2659 71.435 48.2873 71.7387L46.4989 72.2448L44.9804 73.6621L43.4282 75.0793L42.6521 76.7665L41.8422 78.4537V80.5796V82.7054L42.3821 83.954C42.6521 84.6288 45.689 89.6904 49.1309 95.1907L55.3398 105.179V123.907V142.635L53.0114 142.803L50.6831 142.972L49.5696 143.613C48.9959 143.951 48.1861 144.693 47.7811 145.199L47.0725 146.178V148.169L47.1063 150.159L46.7351 150.024C46.5664 149.957 44.4405 149.113 42.0784 148.135C39.6826 147.19 36.9831 146.313 36.1058 146.211C35.1947 146.11 34.0811 146.11 33.6087 146.245C33.1363 146.346 32.2252 146.92 31.5841 147.46C30.9767 148 30.2681 148.911 30.0319 149.485L29.627 150.497H27.4336H25.274L23.958 151.172C23.2494 151.543 22.2708 152.319 21.8321 152.926C21.3597 153.534 20.8198 154.681 20.5836 155.491L20.2124 156.942L20.5836 158.089C20.7861 158.697 21.4947 159.776 22.1696 160.451C22.8444 161.16 24.3967 162.375 25.6114 163.151C26.8262 163.927 28.9183 165.108 30.2006 165.749C31.5166 166.424 34.5198 167.74 36.9494 168.719C39.3452 169.697 44.4405 171.519 48.2536 172.768L55.171 175.062L55.2723 209.481L55.3398 243.9L55.8122 244.271L56.2509 244.642L163.658 244.71L271.064 244.811L272.38 248.624C273.089 250.75 273.932 252.808 274.202 253.281L274.742 254.09H275.518C275.923 254.09 280.411 253.112 285.507 251.931C290.602 250.75 294.786 249.805 294.854 249.872C294.921 249.94 294.719 251.357 294.449 253.011C294.145 254.698 293.673 256.79 293.369 257.701C293.065 258.578 292.357 260.299 291.749 261.514L290.703 263.707L288.543 265.968C287.362 267.251 285.54 268.769 284.494 269.41C283.448 270.018 281.693 270.861 280.58 271.232C279.466 271.637 277.273 272.211 275.687 272.515C274.101 272.818 272.076 273.459 271.165 273.932C270.221 274.37 268.635 275.619 267.589 276.665L265.699 278.555L264.619 280.748C264.012 281.963 263.303 283.987 263.033 285.303C262.763 286.586 262.527 288.172 262.527 288.745V289.859H153.028H43.4957L43.2932 290.399L43.0908 290.972L43.6981 291.411L44.3393 291.884H283.651H522.962L523.367 291.377L523.772 290.871L523.367 290.365L522.962 289.859H518.946H514.931L514.863 222.81L514.762 155.727L514.155 153.702C513.817 152.623 513.109 150.767 512.535 149.653C511.995 148.506 510.848 146.718 510.038 145.671C509.194 144.625 507.642 143.073 506.596 142.23C505.55 141.42 503.762 140.272 502.614 139.733C501.501 139.159 499.645 138.45 498.565 138.113L496.541 137.539L469.478 137.404L442.382 137.303V137.775C442.382 138.012 442.584 138.484 442.82 138.788L443.225 139.328L469.883 139.429L496.541 139.53L498.734 140.272C499.949 140.677 501.838 141.555 502.952 142.23C504.065 142.904 505.82 144.288 506.866 145.3C507.912 146.346 509.329 148.101 510.004 149.248C510.679 150.396 511.557 152.319 511.961 153.534L512.704 155.727L512.839 165.58L512.974 175.434L478.251 175.535L443.563 175.636L441.099 176.547C439.716 177.053 437.759 177.964 436.713 178.572C435.667 179.179 433.811 180.698 432.596 181.912C431.381 183.127 429.829 185.084 429.12 186.299C428.412 187.48 427.501 189.437 427.096 190.652L426.353 192.845L426.252 214.003L426.151 235.16L424.362 235.363C423.384 235.498 414.914 235.531 405.567 235.43L388.56 235.295L385.017 234.721C383.06 234.384 380.023 233.777 378.235 233.338C376.48 232.866 373.443 231.954 371.486 231.28C369.562 230.638 366.154 229.187 363.927 228.108C361.7 227.028 358.427 225.172 356.639 223.991C354.884 222.81 351.071 220.009 348.203 217.715C345.301 215.454 340.981 211.911 338.586 209.852L334.233 206.14L333.558 206.242C333.187 206.309 332.849 206.579 332.782 206.883L332.68 207.456L336.763 210.932L340.846 214.408L340.644 218.153C340.543 220.178 340.307 227.568 340.104 234.519C339.902 241.47 339.665 247.24 339.598 247.308C339.497 247.409 328.53 247.105 315.167 246.667L290.872 245.857V244.845C290.872 244.271 291.918 224.801 293.234 201.619L295.596 159.439L296.102 156.571L296.642 153.702L298.127 150.666C298.937 148.978 300.286 146.751 301.164 145.705C302.007 144.625 303.559 143.073 304.639 142.23C305.685 141.352 307.946 140.002 309.6 139.193L312.637 137.708L315.505 137.134L318.373 136.561L321.579 136.763L324.784 136.966L327.484 137.809C328.969 138.282 330.959 139.125 331.904 139.665C332.849 140.205 349.687 153.871 369.292 170.035L404.96 199.425L405.635 199.088C405.972 198.886 406.276 198.514 406.276 198.278C406.276 198.042 403.88 195.882 400.978 193.486C398.076 191.124 395.309 188.796 394.837 188.324C393.723 187.311 347.123 148.911 344.963 147.257C344.052 146.583 341.488 144.49 339.193 142.601C336.898 140.745 335.177 139.193 335.312 139.125C335.447 139.091 336.156 138.99 336.865 138.855L338.113 138.653V137.877V137.067L337.573 136.864C337.27 136.763 335.549 136.662 333.76 136.662H330.453L328.597 136.021C327.551 135.65 325.56 135.177 324.143 134.941L321.545 134.536L318.542 134.738L315.505 134.941L314.999 134.435C314.729 134.131 314.492 133.76 314.492 133.591C314.492 133.389 314.661 132.95 314.83 132.579C315.032 132.241 315.977 131.533 316.922 131.06C317.901 130.554 320.06 129.879 321.747 129.542L324.784 128.901L329.846 128.698L334.908 128.462L338.586 128.867L342.264 129.272L347.359 130.757C350.16 131.567 352.724 132.343 353.028 132.444L353.602 132.68L353.838 131.769C353.939 131.297 353.973 130.824 353.872 130.723C353.77 130.622 351.577 129.913 348.945 129.103C346.347 128.327 344.153 127.618 344.052 127.551C343.985 127.45 343.445 124.312 342.871 120.6C342.297 116.854 341.656 113.345 341.454 112.839C341.285 112.299 340.711 111.354 340.239 110.713L339.362 109.599L337.641 108.789L335.92 107.98H324.548H313.143L313.075 71.0975L312.974 34.2493L184.376 34.148C113.649 34.1143 55.6772 34.1818 55.576 34.3168ZM311.118 40.998V45.8909H184.241H57.3644V40.998V36.1052H184.241H311.118V40.998ZM311.118 77.9476V107.98H296.912H282.672L284.022 106.529C284.73 105.752 285.844 104.369 286.451 103.492C287.059 102.581 288.004 100.927 288.51 99.7461C289.05 98.565 289.725 96.3717 290.062 94.7857L290.636 91.985L290.433 88.9143L290.264 85.8436L289.353 83.1779C288.881 81.6931 288.037 79.736 287.531 78.8586C287.025 77.9813 285.945 76.4628 285.135 75.4843C284.325 74.5057 282.908 73.0884 281.997 72.3123C281.052 71.5362 279.298 70.3552 278.083 69.7141C276.834 69.0729 274.54 68.1956 272.988 67.7569L270.119 66.9808H253.754H237.388L234.688 67.7569C233.237 68.1956 231.01 69.0729 229.762 69.7141C228.513 70.3552 226.725 71.57 225.78 72.3798C224.835 73.1897 223.485 74.5057 222.743 75.3493C222.034 76.1929 220.988 77.7113 220.415 78.6899C219.841 79.6685 218.964 81.6931 218.491 83.1779L217.58 85.8774L217.411 89.1168L217.209 92.3562L217.816 95.0219C218.12 96.4729 218.896 98.7338 219.47 100.05C220.077 101.332 221.359 103.458 222.338 104.74C223.317 106.022 224.261 107.44 224.43 107.878C224.599 108.351 224.734 111.793 224.734 115.606V122.523L225.577 123.333C226.016 123.805 226.624 124.177 226.927 124.177C227.231 124.177 227.771 124.042 228.108 123.839C228.446 123.67 230.403 121.545 232.461 119.149L236.173 114.83L237.354 114.256L238.501 113.716H254.024H269.512V115.471C269.546 116.449 270.491 123.468 271.638 131.094C272.785 138.686 273.865 145.233 274.034 145.604C274.202 145.975 274.472 147.257 274.675 148.472C274.843 149.687 275.012 150.902 275.012 151.205V151.745L273.089 151.948C272.009 152.083 270.221 152.42 269.107 152.69C267.993 152.994 266.036 153.736 264.72 154.377C263.438 155.018 261.346 156.301 260.097 157.246C258.849 158.19 256.959 159.979 255.947 161.227L254.057 163.488L252.539 166.593L251.02 169.697L250.312 173.004L249.637 176.311L249.806 179.517L250.008 182.722L250.818 185.422C251.257 186.906 255.744 200.168 260.806 214.88C265.868 229.626 270.086 241.875 270.187 242.145L270.356 242.618H253.99H237.59L237.455 226.488L237.32 210.392L236.747 208.03C236.443 206.714 235.734 204.285 235.161 202.597C234.621 200.91 233.507 198.244 232.731 196.692C231.955 195.14 230.538 192.71 229.627 191.327C228.682 189.943 226.387 187.21 224.498 185.219L221.022 181.642L218.086 179.517C216.433 178.369 213.598 176.682 211.742 175.771C209.887 174.894 207.018 173.713 205.331 173.139C203.678 172.599 200.843 171.924 199.089 171.654C197.334 171.351 194.094 171.013 191.935 170.912L187.953 170.676V167.2V163.691L188.628 163.488C188.965 163.387 190.383 162.543 191.732 161.666C193.082 160.789 195.141 159.068 196.254 157.887C197.401 156.672 198.886 154.816 199.561 153.77C200.27 152.69 201.248 150.801 201.788 149.552C202.294 148.303 202.969 146.144 203.273 144.76C203.543 143.377 203.846 141.453 203.914 140.509L204.015 138.821L205.432 137.303C206.242 136.493 207.356 134.84 207.963 133.625L209.043 131.432V127.551V123.67L207.896 121.308L206.748 118.98L205.162 117.394C204.285 116.517 202.834 115.437 201.923 114.965C200.371 114.188 198.785 113.649 196.693 113.244L195.815 113.041L195.579 110.78C195.444 109.498 195.275 108.013 195.174 107.473L195.006 106.461L196.963 105.618L198.92 104.808L201.788 101.906L204.69 99.0375L205.635 97.0803C206.141 96.0005 206.782 94.0096 207.086 92.6936L207.592 90.2641L207.39 88.0707C207.255 86.8559 206.85 84.9325 206.478 83.7515C206.107 82.6042 205.162 80.7146 204.42 79.601L203.037 77.5426L201.147 76.0579C200.101 75.248 198.582 74.2357 197.739 73.8645C196.895 73.4596 195.478 72.9197 194.533 72.6835C193.622 72.4136 191.631 72.2111 190.113 72.2111H187.413L185.557 72.751C184.545 73.0547 182.858 73.7296 181.812 74.3032L179.888 75.3155L177.897 77.4077C176.784 78.5549 175.502 80.2421 175.029 81.187L174.152 82.9079L168.314 83.1104L162.476 83.2791L159.44 84.1902C157.786 84.6626 155.289 85.7086 153.939 86.4847C152.59 87.2608 150.565 88.7118 149.451 89.6904C148.338 90.7027 146.752 92.4574 145.942 93.6384C145.098 94.8195 143.985 96.7429 143.445 97.9239C142.905 99.1049 142.196 100.995 141.893 102.074L141.319 104.099L141.15 109.329L140.948 114.56L139.294 115.572C138.383 116.146 136.865 117.394 135.954 118.339L134.267 120.127L133.254 122.287C132.681 123.502 132.073 125.459 131.871 126.707L131.5 128.968L131.837 131.297C132.04 132.579 132.647 134.57 133.187 135.751C133.76 136.898 134.975 138.686 135.92 139.733L137.641 141.622L139.733 142.736C140.88 143.343 142.568 144.052 143.546 144.288C144.491 144.558 146.279 144.76 147.562 144.76H149.823V157.684V170.642L144.12 170.878C141.015 170.979 137.034 171.317 135.279 171.62C133.524 171.924 130.521 172.7 128.598 173.308C126.641 173.949 123.637 175.231 121.883 176.142C120.128 177.053 117.53 178.673 116.112 179.685C114.695 180.698 112.536 182.486 111.287 183.667L108.992 185.793V182.351C108.992 180.495 109.161 174.725 109.364 169.596L109.701 160.215L109.33 158.325C109.094 157.246 108.385 155.288 107.744 153.905L106.563 151.442L104.437 149.316L102.311 147.156L99.4767 145.806C97.9582 145.064 95.6974 144.288 94.4826 144.052C93.2678 143.816 90.4671 143.647 88.24 143.647H84.1908L78.9605 144.524C76.0922 145.03 72.7516 145.435 71.5368 145.435C70.322 145.435 66.9814 144.963 64.1132 144.423C61.2449 143.883 58.5454 143.343 58.1405 143.242L57.3644 143.073V125.054V107.068L58.7141 107.71C59.4565 108.081 60.9412 108.452 61.9873 108.553L63.9444 108.722L65.3279 108.351C66.0703 108.148 67.3863 107.541 68.2299 106.967L69.7821 105.921L70.8957 104.234L71.9755 102.513L72.1442 99.9148L72.2792 97.2828L71.638 95.798C71.2669 94.9882 68.2299 89.8929 64.8893 84.5276C61.5149 79.1286 58.4779 74.4382 58.073 74.1008L57.3644 73.4596V60.6707V47.9155H184.241H311.118V77.9476ZM269.444 69.2079C270.727 69.3766 272.819 69.849 274.067 70.2202L276.328 70.8951L278.859 72.5823C280.242 73.4934 282.166 75.1468 283.111 76.1929C284.056 77.2389 285.439 79.2973 286.148 80.7146C286.856 82.1655 287.7 84.4939 288.037 85.9111L288.611 88.5094L288.409 91.5801L288.206 94.6508L287.497 96.8441C287.092 98.0589 286.283 99.8811 285.709 100.893C285.135 101.906 283.516 103.93 282.065 105.348L279.466 107.98H277.779H276.058L274.202 108.688L272.346 109.363L271.435 110.443L270.524 111.523L253.956 111.691L237.388 111.86L236.342 112.434C235.768 112.737 234.756 113.581 234.047 114.29C233.372 114.998 231.55 117.023 230.032 118.845C228.513 120.634 227.163 122.017 227.028 121.95C226.86 121.848 226.758 118.845 226.758 115.302V108.823L226.421 107.575C226.219 106.866 225.206 105.213 224.194 103.863C223.182 102.513 221.866 100.455 221.326 99.2737C220.752 98.1264 220.111 96.1692 219.841 94.887C219.571 93.6384 219.335 91.5463 219.335 90.2303V87.8345L220.01 85.2362C220.381 83.819 221.191 81.6256 221.866 80.3771C222.507 79.1286 223.755 77.3064 224.599 76.3279C225.476 75.3155 227.231 73.7971 228.513 72.886C229.795 72.0086 231.921 70.8613 233.271 70.3889C234.587 69.8828 236.612 69.3766 237.725 69.2079C238.839 69.0392 245.891 68.9042 253.416 68.8705L267.082 68.8367L269.444 69.2079ZM55.4747 74.8094L56.8582 75.7879L59.6252 80.1409C61.1775 82.5705 62.426 84.6963 62.426 84.8988C62.426 85.1012 59.7265 86.9234 56.4533 88.9143C53.1464 90.9052 50.3794 92.5924 50.2782 92.6599C50.177 92.6936 48.8272 90.7027 47.275 88.2057L44.4742 83.6503L44.1368 82.2668L43.8331 80.8495L44.238 79.1623L44.643 77.5089L45.8577 76.1591C46.5326 75.4168 47.6799 74.5057 48.4223 74.1682L49.772 73.5271L51.9316 73.6958L54.0575 73.8308L55.4747 74.8094ZM196.794 75.653L199.291 76.9015L201.079 78.7912L202.834 80.6471L203.846 82.8067C204.42 84.0215 205.027 85.9786 205.23 87.1934L205.601 89.4205L205.23 91.6813L204.859 93.9421L203.779 96.1692L202.699 98.3626L200.337 100.623C199.055 101.872 197.3 103.255 196.423 103.66L194.871 104.436L176.986 104.605L159.102 104.774L157.921 105.314C157.28 105.618 156.166 106.461 155.491 107.237C154.817 107.98 154.108 109.194 153.906 109.903C153.703 110.612 153.534 111.894 153.534 112.771C153.534 113.682 153.433 114.391 153.332 114.391C153.231 114.391 152.286 114.155 151.24 113.851L149.35 113.277L146.144 113.48L142.973 113.682L143.141 108.891L143.31 104.099L144.221 101.4C144.727 99.9148 145.571 97.9577 146.077 97.0803C146.583 96.203 147.663 94.6845 148.473 93.7059C149.283 92.7274 150.734 91.3101 151.645 90.5003C152.59 89.6904 154.58 88.4419 156.065 87.6995C157.55 86.9909 159.676 86.1473 160.789 85.8436L162.814 85.3037L169.158 85.135L175.468 84.9325L176.48 82.8404C177.02 81.6931 178.066 80.0734 178.808 79.2298C179.585 78.3862 180.934 77.2052 181.879 76.5978C182.824 75.9904 184.444 75.2143 185.524 74.8769L187.447 74.2357L190.855 74.337L194.263 74.4044L196.794 75.653ZM66.644 91.6138C67.8925 93.6384 69.2085 95.8993 69.5459 96.6754C69.8834 97.4178 70.1871 98.6325 70.1871 99.3749C70.1871 100.117 69.8834 101.332 69.5459 102.108C69.2085 102.851 68.2974 103.998 67.5213 104.673L66.1041 105.887L64.5518 106.292L62.9996 106.664L61.7174 106.461C61.0087 106.326 59.794 105.82 58.9841 105.314L57.4994 104.369L54.4624 99.4761L51.3917 94.617L57.4994 90.8714L63.607 87.1596L63.9782 87.5308C64.1807 87.7333 65.3617 89.5554 66.644 91.6138ZM193.116 107.372C193.217 107.811 193.42 109.296 193.555 110.747C193.69 112.164 193.69 113.716 193.555 114.222L193.318 115.1L192.576 114.56C192.171 114.29 191.361 114.053 190.754 114.053H189.64L188.965 114.728C188.594 115.1 188.223 115.774 188.088 116.247L187.852 117.124L188.223 117.934C188.425 118.373 188.999 119.014 189.505 119.318L190.383 119.925L191.699 119.554L193.015 119.216L195.006 121.342C196.119 122.523 197.638 124.514 198.38 125.763C199.122 127.011 200.101 129.238 200.607 130.655C201.079 132.073 201.586 134.57 201.754 136.156L202.058 139.058L201.754 141.757C201.586 143.242 201.147 145.402 200.742 146.515C200.371 147.662 199.628 149.417 199.089 150.463C198.582 151.509 197.435 153.331 196.558 154.479C195.68 155.66 193.959 157.414 192.711 158.393C191.496 159.405 189.37 160.822 188.021 161.565C186.671 162.341 184.781 163.218 183.803 163.522L182.048 164.062L178.1 164.231L174.152 164.433L172.026 164.028C170.845 163.792 168.922 163.218 167.707 162.746C166.492 162.273 164.636 161.362 163.556 160.721L161.599 159.54L161.127 159.743C160.857 159.844 160.621 160.215 160.621 160.586V161.227L162.24 162.24C163.118 162.813 164.737 163.691 165.817 164.163C166.897 164.635 169.023 165.344 170.541 165.682L173.274 166.356H176.818H180.361L182.554 165.85C183.769 165.547 185.017 165.243 185.355 165.142L185.928 164.973V169.866C185.928 172.565 185.76 175.569 185.557 176.547C185.355 177.526 184.714 179.28 184.174 180.461L183.161 182.587L181.002 184.916L178.842 187.21L176.379 188.391C175.063 189.032 173.14 189.741 172.161 189.943C171.182 190.146 169.664 190.315 168.787 190.315C167.909 190.315 166.222 190.078 165.041 189.808C163.86 189.505 161.97 188.796 160.823 188.189C159.709 187.615 157.921 186.265 156.909 185.253C155.896 184.241 154.58 182.486 153.973 181.372C153.399 180.259 152.691 178.538 152.387 177.526L151.847 175.67V160.013V144.355L152.556 143.816L153.231 143.242L152.994 142.601L152.758 141.993L151.712 142.196C151.139 142.331 149.62 142.5 148.304 142.601L145.942 142.803L143.985 142.297C142.939 142.027 141.353 141.386 140.509 140.88C139.632 140.374 138.282 139.26 137.439 138.417C136.629 137.539 135.583 136.088 135.11 135.143C134.672 134.199 134.098 132.478 133.895 131.297L133.491 129.204L133.862 126.977C134.064 125.796 134.672 123.94 135.178 122.894C135.684 121.848 136.831 120.262 137.742 119.351L139.362 117.732L141.657 116.652L143.917 115.572H147.292L150.666 115.606L152.59 116.348L154.513 117.124L156.234 118.676C157.179 119.52 158.427 120.903 158.967 121.713L160.013 123.198L160.553 123.097C160.891 123.029 161.16 122.692 161.228 122.321L161.329 121.646L160.216 119.992C159.642 119.081 158.326 117.698 157.347 116.955L155.559 115.572V113.379V111.152L156.335 109.667L157.077 108.148L158.596 107.372L160.081 106.63H176.514H192.947L193.116 107.372ZM337.067 110.679C337.809 111.05 338.721 111.86 339.092 112.501L339.8 113.649L340.846 120.296C341.42 123.94 341.825 126.977 341.757 127.045C341.69 127.079 339.53 126.977 336.966 126.775L332.275 126.404L327.518 126.809C324.886 127.045 321.781 127.45 320.566 127.72C319.352 128.023 317.698 128.496 316.855 128.833C316.011 129.137 314.762 129.913 314.088 130.52L312.839 131.668L312.637 132.748C312.502 133.321 312.569 134.199 312.772 134.705L313.109 135.65L312.198 135.852C311.692 135.953 310.544 136.358 309.6 136.729C308.689 137.101 307.069 137.91 306.023 138.551C305.01 139.159 302.885 141.015 301.299 142.668C299.746 144.288 297.924 146.515 297.283 147.595C296.642 148.708 295.663 150.902 295.09 152.521L294.077 155.423L288.004 153.804C284.663 152.893 280.816 152.049 279.5 151.948C278.15 151.847 277.037 151.644 277.037 151.543C277.037 151.442 276.564 148.135 276.024 144.254C275.451 140.34 274.843 136.932 274.675 136.628C274.54 136.324 273.662 131.297 272.785 125.425L271.165 114.796L272.009 113.142L272.853 111.523L274.337 110.78L275.856 110.038L305.82 110.004H335.785L337.067 110.679ZM199.763 116.179L201.619 116.854L203.475 118.744C204.521 119.79 205.736 121.376 206.175 122.321L206.985 123.974L207.12 126.775L207.255 129.542L206.681 131.33C206.377 132.275 205.635 133.76 205.061 134.603L204.015 136.122L203.441 133.422C203.138 131.971 202.53 129.913 202.125 128.901C201.721 127.888 200.911 126.134 200.27 125.02C199.662 123.907 198.211 121.916 197.098 120.566L195.039 118.136L195.242 116.584L195.478 115.066L196.693 115.268C197.368 115.403 198.751 115.808 199.763 116.179ZM63.0334 146.279L69.2085 147.46H71.8068C73.224 147.426 75.6198 147.224 77.1045 146.954C78.5893 146.684 80.0065 146.448 80.2765 146.448C80.5127 146.448 79.9728 147.055 78.9942 147.831L77.2733 149.215V150.024V150.868L77.7794 151.037L78.2856 151.239L80.0403 149.653C81.0188 148.776 82.5036 147.73 83.3472 147.291C84.1908 146.886 85.6755 146.346 86.6541 146.144C87.6326 145.941 89.4211 145.773 90.6021 145.773C91.7831 145.773 93.5715 145.941 94.5501 146.144C95.5287 146.346 97.2834 146.954 98.4307 147.527L100.557 148.506L102.514 150.328L104.505 152.15L105.618 154.242C106.225 155.39 106.934 157.077 107.17 158.055L107.643 159.776L107.305 171.418C107.103 177.829 106.867 184.612 106.765 186.502L106.563 189.977H87.7676H68.9385L69.9846 184.747L70.9969 179.55L71.7393 179.719L72.4816 179.921L72.8191 179.28C73.0215 178.909 73.089 178.47 72.9541 178.268C72.8191 178.066 69.9846 176.615 66.644 175.029C63.3033 173.476 58.208 171.013 55.3398 169.562C52.4715 168.111 48.2198 165.884 45.8915 164.602C43.5632 163.286 40.3575 161.329 38.7378 160.215C37.1181 159.102 34.891 157.212 33.7775 156.031L31.7528 153.871L31.5504 152.758L31.3141 151.61L31.8203 150.396C32.124 149.754 32.7314 148.945 33.2038 148.607L34.1149 148.034L35.7346 148.236L37.388 148.438L43.7656 151.037C47.2412 152.454 52.539 154.614 55.5085 155.795C58.4779 156.976 62.5272 158.427 64.5181 158.967C66.509 159.54 68.5674 159.945 69.0735 159.878L70.0183 159.776L70.1196 159.034L70.2208 158.292L69.276 158.055C68.7698 157.954 67.2851 157.583 65.9691 157.246C63.7757 156.672 60.2664 155.423 53.4839 152.825C51.9991 152.252 50.4469 151.408 50.042 150.969C49.6371 150.531 49.1984 149.619 49.0634 148.978L48.8609 147.797L49.2659 146.819C49.6033 145.941 50.2107 145.503 51.6279 144.963C51.8979 144.862 53.2139 144.828 54.4962 144.929C55.8122 144.997 59.659 145.604 63.0334 146.279ZM29.5595 153.095C29.6607 153.433 29.9307 154.141 30.1331 154.715C30.3356 155.255 31.5166 156.706 32.7314 157.92C33.9462 159.135 36.4432 161.126 38.2991 162.375C40.155 163.589 43.057 165.344 44.7105 166.289C46.3976 167.2 50.4807 169.36 53.8213 171.047C57.1619 172.7 59.7265 174.084 59.5577 174.118C59.3553 174.118 56.4871 173.274 53.2139 172.262C49.907 171.216 45.1491 169.63 42.5846 168.685C40.0538 167.74 36.5107 166.356 34.756 165.58C33.0013 164.804 30.3018 163.488 28.7834 162.645C27.2649 161.801 25.3077 160.552 24.4641 159.81C23.5868 159.102 22.7432 158.157 22.5745 157.684L22.2371 156.807L22.6082 155.693C22.8107 155.086 23.5193 154.107 24.1605 153.534L25.3415 152.521H27.3661H29.3908L29.5595 153.095ZM286.856 155.626L293.808 157.381L293.673 159.405C293.571 160.552 292.39 180.664 291.074 204.15C289.725 227.635 288.678 247.004 288.78 247.24C288.847 247.443 289.691 247.747 290.636 247.915L292.357 248.185L284.191 250.075L276.024 251.965L275.451 250.412C275.147 249.569 274.776 248.691 274.607 248.489C274.472 248.286 269.478 233.945 263.539 216.635C257.6 199.324 252.505 184.038 252.235 182.688C251.965 181.339 251.729 179.415 251.729 178.437C251.729 177.458 251.898 175.67 252.1 174.455C252.269 173.24 252.809 171.216 253.247 169.967C253.686 168.685 254.563 166.795 255.171 165.749C255.778 164.669 257.6 162.51 259.186 160.89L262.088 157.988L265.26 156.436C267.015 155.592 269.343 154.681 270.457 154.411L272.481 153.939L276.193 153.905L279.905 153.871L286.856 155.626ZM137.101 184.241C131.196 190.551 126.337 196.017 126.269 196.321L126.168 196.928L135.988 203.475C141.387 207.085 145.874 210.156 145.976 210.291C146.077 210.426 144.997 212.518 143.58 214.948C142.163 217.343 141.049 219.469 141.117 219.638C141.15 219.84 144.626 223.519 148.81 227.838C152.994 232.157 157.786 237.117 159.406 238.804L162.409 241.943H140.239H118.103V216.297V190.686L117.462 190.315L116.787 189.977H112.738H108.655V189.572C108.655 189.37 110.14 187.716 111.962 185.928L115.235 182.688L118.711 180.394L122.153 178.099L125.696 176.581C127.653 175.771 130.724 174.725 132.546 174.252C135.751 173.443 140.408 172.903 145.368 172.802L147.798 172.768L137.101 184.241ZM198.751 173.645C200.506 173.915 203.273 174.59 204.892 175.13C206.512 175.67 208.975 176.648 210.393 177.323C211.776 177.998 214.273 179.415 215.893 180.529C217.513 181.609 220.01 183.6 221.427 184.916C222.878 186.232 225.173 188.796 226.522 190.585C227.872 192.373 229.694 195.241 230.572 196.928C231.449 198.649 232.664 201.585 233.305 203.508C233.98 205.432 234.722 208.469 235.026 210.223L235.532 213.429V227.669V241.943H224.396H213.261L213.902 240.323C214.273 239.446 214.881 237.961 215.286 236.982L216.028 235.228L215.825 234.688L215.623 234.148L214.881 234.249L214.138 234.35L212.62 238.13L211.068 241.943H193.352H175.637L178.37 239.142C179.888 237.623 184.511 232.798 188.662 228.445L196.187 220.515L208.874 220.347L221.528 220.178L221.629 215.521C221.663 212.99 221.663 210.865 221.629 210.831C221.562 210.797 214.779 210.662 206.546 210.561L191.564 210.392L200.641 204.352C205.635 201.045 210.224 197.974 210.831 197.502L211.911 196.692L211.574 196.017C211.371 195.646 206.85 190.686 201.552 184.983C196.254 179.28 191.53 174.219 191.091 173.746L190.281 172.869L192.913 173.004C194.364 173.071 196.996 173.375 198.751 173.645ZM156.065 205.702C159.709 222.945 162.814 237.657 162.983 238.4L163.253 239.749L154.007 230.301C148.911 225.104 144.457 220.448 144.12 219.975L143.445 219.132L145.976 214.813L148.507 210.527L148.405 209.886L148.304 209.245L138.485 202.732L128.665 196.22L138.991 185.186C144.66 179.112 149.316 174.185 149.384 174.252C149.418 174.286 152.455 188.425 156.065 205.702ZM200.405 186.738L209.178 196.186L207.761 197.131C206.985 197.671 202.564 200.64 197.908 203.745C193.285 206.849 189.438 209.616 189.37 209.886C189.337 210.19 190.45 212.349 191.834 214.711C193.251 217.107 194.364 219.166 194.297 219.334C194.196 219.604 188.999 225.138 179.146 235.43L175.232 239.547L179.382 219.064C181.677 207.794 184.646 193.082 185.996 186.333L188.459 174.118L190.045 175.703C190.889 176.615 195.579 181.575 200.405 186.738ZM63.4383 177.391C66.509 178.268 69.0398 178.977 69.0735 178.977C69.0735 179.01 68.6348 181.44 68.0275 184.409L66.9476 189.808L62.156 189.91L57.3644 190.011V182.891C57.3644 179.01 57.4656 175.805 57.6006 175.805C57.7356 175.805 60.3676 176.513 63.4383 177.391ZM455.171 178.808C456.723 179.382 458.646 180.225 459.422 180.698C460.232 181.136 461.751 182.419 462.864 183.532C463.944 184.612 465.327 186.367 465.969 187.446C466.61 188.492 467.487 190.585 467.926 192.069L468.702 194.769V242.314V289.859H448.456H428.209V242.618V195.41L428.58 193.621C428.783 192.643 429.458 190.719 430.099 189.336C430.74 187.986 431.887 186.063 432.663 185.118C433.44 184.139 434.857 182.756 435.802 181.98C436.713 181.237 438.299 180.191 439.311 179.685C440.29 179.213 442.179 178.504 443.529 178.133L445.925 177.492L449.13 177.627L452.336 177.762L455.171 178.808ZM512.231 233.675V289.859H491.479H470.726V242.348V194.802L470.052 192.204C469.68 190.787 468.837 188.526 468.128 187.176L466.88 184.747L464.315 182.182C462.932 180.765 460.941 179.145 459.928 178.572L458.073 177.492H485.169H512.231V233.675ZM180.158 204.554C177.965 215.386 175.367 228.209 174.388 233.068L172.6 241.943H169.225H165.851L159.946 213.8L154.007 185.658L155.863 187.311C156.841 188.189 158.697 189.471 159.946 190.112C161.194 190.787 163.185 191.529 164.366 191.833C165.547 192.103 167.437 192.339 168.584 192.339C169.698 192.339 171.52 192.17 172.633 191.968C173.713 191.766 175.873 191.023 177.358 190.315L180.125 188.999L182.082 186.974C183.195 185.86 184.106 184.949 184.106 184.949C184.14 184.916 182.352 193.756 180.158 204.554ZM116.079 216.972V241.943H86.7215H57.3644V216.972V192.002H86.7215H116.079V216.972ZM219.672 215.454V218.322H208.031H196.389L195.613 217.04C195.174 216.365 194.398 215.083 193.892 214.171L192.947 212.586H206.31H219.672V215.454ZM347.629 219.84C350.092 221.798 353.399 224.261 354.985 225.341C356.571 226.387 359.675 228.175 361.903 229.322C364.13 230.47 367.403 231.954 369.191 232.629C370.98 233.27 373.713 234.215 375.265 234.654L378.1 235.498H368.381C363.05 235.531 357.212 235.363 355.424 235.16C352.387 234.823 348.675 234.013 344.153 232.697L342.23 232.123L342.399 225.307C342.534 218.929 342.702 216.297 343.006 216.297C343.074 216.297 345.132 217.883 347.629 219.84ZM351.273 236.645L354.479 237.387H390.315H426.185V263.404V289.42L345.739 289.69C301.467 289.825 265.125 289.825 264.957 289.724L264.619 289.521L264.788 288.07C264.889 287.294 265.159 285.81 265.463 284.797C265.733 283.785 266.239 282.402 266.576 281.727C266.947 281.052 267.993 279.635 268.938 278.622L270.659 276.733L272.414 275.889C273.392 275.417 275.451 274.775 277.037 274.472C278.623 274.168 280.85 273.561 281.997 273.122C283.178 272.683 284.832 271.941 285.675 271.435C286.553 270.929 288.105 269.714 289.185 268.702C290.264 267.723 291.749 265.968 292.525 264.787C293.301 263.606 294.347 261.413 294.887 259.928C295.427 258.443 296.136 255.98 296.406 254.428C296.709 252.909 296.946 250.817 296.946 249.839V248.017L299.578 248.185C300.995 248.286 309.633 248.59 318.71 248.86C327.821 249.13 336.46 249.434 337.978 249.501C339.463 249.569 340.948 249.468 341.251 249.299L341.825 248.995V246.397C341.825 244.98 341.926 241.639 342.061 239.041L342.264 234.283L345.166 235.093C346.752 235.531 349.519 236.24 351.273 236.645Z" fill="#101426"/>
<path d="M62.797 38.6366L61.751 39.8513V40.9311C61.751 41.5385 62.0547 42.4834 62.3921 43.057L63.0332 44.1368L64.248 44.5417L65.4628 44.9467L66.6776 44.5417L67.8924 44.1368L68.5335 43.057C68.8709 42.4834 69.1746 41.5723 69.1746 41.0661C69.1746 40.5262 69.0059 39.7838 68.8035 39.3789C68.601 38.974 68.0948 38.3666 67.6899 38.0629L66.9813 37.4555H65.4291H63.8431L62.797 38.6366ZM67.0825 40.8974L67.1837 41.7072L66.4751 42.3484L65.7665 42.9895L64.8554 42.4834L63.9443 41.9772V40.9986V40.0201L64.7879 39.5814L65.6315 39.1765L66.3064 39.6151C66.6776 39.8513 67.015 40.425 67.0825 40.8974Z" fill="#101426"/>
<path d="M70.8958 38.6366L69.8497 39.8513V40.8636C69.8497 41.4035 70.0859 42.3146 70.3559 42.8208L70.8283 43.7656L72.0768 44.373L73.3253 44.9467L74.6413 44.5755L75.9573 44.1705L76.5985 43.0907C76.9696 42.4834 77.2733 41.5723 77.2733 41.0661C77.2733 40.56 77.0371 39.6826 76.7672 39.1427C76.4972 38.6028 75.9573 37.9954 75.6199 37.793C75.2487 37.6242 74.2701 37.4555 73.4603 37.4555H71.9418L70.8958 38.6366ZM75.1812 40.8974L75.2824 41.7072L74.5738 42.3484L73.8652 42.9895L72.9541 42.4834L72.043 41.9772V40.9986V40.0201L72.8866 39.5814L73.7302 39.1765L74.4051 39.6151C74.7763 39.8513 75.1137 40.425 75.1812 40.8974Z" fill="#101426"/>
<path d="M79.4667 38.1979C78.9943 38.6366 78.4881 39.4465 78.3194 39.9864L78.0494 41.0324L78.4206 42.146C78.6231 42.7871 79.1967 43.597 79.7366 44.0019L80.6477 44.6768H81.795C82.4024 44.6768 83.3472 44.4068 83.8534 44.0694C84.3258 43.7319 84.9669 42.9558 85.2369 42.2809L85.743 41.0999L85.3719 39.9526C85.1694 39.3452 84.5957 38.5016 84.1233 38.1304L83.246 37.4556H81.795H80.344L79.4667 38.1979ZM83.381 40.2226C83.5834 40.56 83.6172 41.1674 83.5159 41.5048C83.381 41.876 83.0098 42.3484 82.6386 42.5509C82.2674 42.7196 81.66 42.7871 81.2889 42.6859C80.9177 42.5509 80.479 42.146 80.344 41.741C80.209 41.3361 80.1416 40.7287 80.2428 40.3913C80.344 40.0538 80.7152 39.6489 81.1201 39.5139C81.4913 39.3452 82.065 39.3115 82.4024 39.4127C82.7398 39.4802 83.1785 39.8514 83.381 40.2226Z" fill="#101426"/>
<path d="M96.6762 59.4222C95.5626 59.5572 93.7742 59.9959 92.7282 60.3671C91.6484 60.7382 89.9274 61.5818 88.9151 62.2567C87.9028 62.9316 86.4856 64.2138 85.7769 65.0574C85.0683 65.9348 84.2247 67.0483 83.921 67.5545C83.6173 68.0606 82.9762 69.6129 82.5038 70.9964L81.6602 73.5271V76.1592V78.8249L82.2001 80.6808C82.5038 81.6932 83.1787 83.3466 83.7523 84.3927C84.2922 85.4387 85.507 87.0922 86.4518 88.037C87.3966 88.9818 88.7801 90.1291 89.5562 90.6015C90.2986 91.0402 92.1208 91.7826 93.538 92.255L96.1363 93.1323H98.7683C100.219 93.1323 102.075 92.9636 102.919 92.7611C103.762 92.5587 105.348 91.9513 106.462 91.4114C107.575 90.8715 109.195 89.8254 110.072 89.0831C110.95 88.3407 112.266 86.7885 113.008 85.6749C113.784 84.5276 114.695 82.6042 115.1 81.3557L115.809 79.1286V76.2267V73.2909L115.067 71.0638C114.662 69.8491 113.717 67.9257 113.008 66.8121C112.266 65.6986 110.95 64.1801 110.072 63.404C109.195 62.6616 107.812 61.6831 106.968 61.2444C106.124 60.8057 104.606 60.2321 103.594 59.9621C102.581 59.6584 101.063 59.3885 100.219 59.321C99.3757 59.2535 97.7897 59.2872 96.6762 59.4222ZM104.37 62.4254C105.483 62.8303 107.137 63.8089 108.082 64.585C109.06 65.3611 110.41 66.8121 111.119 67.8244C111.793 68.8368 112.671 70.6252 113.042 71.8062L113.717 73.9658V76.2604V78.555L113.042 80.7146C112.671 81.8956 111.895 83.5828 111.321 84.4939L110.241 86.1136L109.668 85.4725C109.364 85.135 105.585 79.8035 101.265 73.5946C96.9461 67.4195 93.4705 62.3242 93.538 62.2567C93.6055 62.1892 94.1791 61.9868 94.8203 61.7843L96.0013 61.4469L99.207 61.5481L102.413 61.6493L104.37 62.4254ZM100.186 75.5855L108.588 87.5646L107.677 88.307C107.204 88.7456 106.698 89.0831 106.597 89.0831C106.462 89.0831 103.155 84.4939 99.2407 78.8587C95.2927 73.2572 91.3784 67.7907 90.5011 66.7109L88.9489 64.72L89.7587 64.0789C90.2311 63.7414 90.8723 63.4715 91.2097 63.539L91.8171 63.6065L100.186 75.5855ZM91.1759 71.1313C91.5134 71.3001 104.302 89.6567 104.302 89.9941C104.302 90.1291 103.661 90.4666 102.851 90.7028L101.4 91.1414L98.1947 91.0065L94.989 90.8715L92.6269 89.8929L90.2986 88.9143L88.3415 87.0922L86.3843 85.3038L85.1358 82.7392L83.8535 80.1747V76.2941V72.3799L84.7984 70.3552C85.3045 69.2754 86.1144 67.8582 86.5868 67.217L87.4641 66.1035L89.1851 68.5668C90.1299 69.9166 91.041 71.0638 91.1759 71.1313Z" fill="#101426"/>
<path d="M109.498 95.5612C108.959 95.7636 108.047 96.236 107.474 96.641C106.934 97.0121 103.087 100.353 98.9366 104.098C94.8199 107.81 90.8718 111.32 90.1632 111.927C89.4546 112.534 88.4423 113.817 87.9024 114.795L86.9238 116.584V119.114V121.645L87.6662 123.029C88.0373 123.805 88.746 124.885 89.2184 125.424C89.6908 125.998 90.9731 126.875 92.0191 127.382L93.9763 128.326L96.3383 128.36L98.7004 128.394L100.556 127.483L102.412 126.538L111.186 118.507L119.959 110.51L120.971 108.654L121.984 106.798V104.436L121.95 102.074L121.275 100.555C120.87 99.7117 120.027 98.4969 119.385 97.822C118.711 97.1471 117.597 96.3373 116.888 95.9998L115.572 95.3587L113.042 95.2575L110.511 95.19L109.498 95.5612ZM116.281 98.3619L117.732 99.2392L118.677 100.791L119.588 102.344L119.723 104.098L119.858 105.853L119.217 107.338L118.542 108.822L114.627 112.467C112.468 114.491 110.544 116.077 110.376 116.01C110.173 115.976 107.879 113.58 105.28 110.712C102.648 107.844 100.658 105.414 100.793 105.279C100.927 105.178 102.648 103.626 104.606 101.838C106.563 100.083 108.52 98.4294 108.959 98.1932C109.431 97.957 110.173 97.6533 110.646 97.4846C111.118 97.3158 112.265 97.2821 113.177 97.3496L114.796 97.4846L116.281 98.3619ZM103.998 112.602L108.655 117.697L104.538 121.51C102.277 123.569 99.8814 125.492 99.2066 125.796C98.5654 126.066 97.3506 126.268 96.5071 126.268C95.0898 126.268 93.7401 125.829 91.8841 124.716C91.4792 124.48 90.8043 123.872 90.3994 123.366C89.9945 122.86 89.4883 121.78 89.2184 120.937L88.7797 119.418L89.1171 117.765C89.3196 116.854 89.8595 115.605 90.3657 114.93C90.8718 114.289 91.4455 113.715 91.6142 113.715C91.8167 113.715 93.4701 112.264 95.326 110.51C97.1819 108.755 98.8354 107.372 99.0041 107.405C99.2066 107.473 101.434 109.801 103.998 112.602Z" fill="#101426"/>
<path d="M240.02 82.9082C239.784 82.9757 239.581 83.3469 239.581 83.6844C239.581 84.0555 239.885 84.4942 240.222 84.6967L240.897 85.0341H254.327H267.791L268.466 84.5617L269.107 84.0555L268.736 83.4481L268.365 82.8408L254.395 82.7733C246.701 82.7395 240.222 82.807 240.02 82.9082Z" fill="#101426"/>
<path d="M240.02 89.6571C239.784 89.7246 239.581 90.062 239.581 90.3995C239.581 90.7032 239.75 91.1418 239.986 91.378L240.391 91.783H254.024H267.622L268.297 91.4455C268.635 91.2431 268.938 90.8719 268.938 90.6019C268.938 90.332 268.635 89.9608 268.297 89.7583L267.622 89.4209L254.024 89.4546C246.533 89.4546 240.222 89.5559 240.02 89.6571Z" fill="#101426"/>
<path d="M239.986 96.5736C239.75 96.8098 239.581 97.2485 239.581 97.586V98.1933L240.357 98.3621C240.762 98.4633 247.241 98.497 254.732 98.4633L268.365 98.3621L268.736 97.7547L269.107 97.1473L268.466 96.6411L267.791 96.1687H254.091H240.391L239.986 96.5736Z" fill="#101426"/>
<path d="M167.875 114.898L167.032 115.708V116.922V118.103L167.707 118.778C168.078 119.149 168.786 119.554 169.293 119.656L170.204 119.892L171.047 119.419C171.52 119.149 172.127 118.542 172.397 118.07L172.869 117.226L172.633 116.315C172.532 115.809 172.127 115.1 171.756 114.729L171.081 114.054H169.9H168.685L167.875 114.898Z" fill="#101426"/>
<path d="M180.968 114.29C180.732 114.358 180.53 114.695 180.53 114.999C180.563 115.303 182.149 118.306 184.073 121.647L187.616 127.721L184.41 128.733C182.655 129.273 181.036 129.948 180.799 130.184L180.395 130.589L180.968 131.162L181.542 131.736L183.297 131.196C184.275 130.892 186.199 130.319 187.548 129.914L189.978 129.205V128.497C189.978 128.125 188.358 124.954 186.367 121.512C184.41 118.07 182.554 114.965 182.284 114.628C182.014 114.324 181.677 114.054 181.576 114.088C181.474 114.088 181.171 114.189 180.968 114.29Z" fill="#101426"/>
<path d="M141.522 124.683C141.387 124.953 141.387 125.392 141.488 125.662L141.656 126.1L145.74 127.248C148 127.889 149.823 128.463 149.823 128.564C149.823 128.665 147.933 129.644 145.605 130.723L141.353 132.714L141.454 133.423C141.522 133.794 141.825 134.165 142.129 134.233C142.433 134.3 145.031 133.254 147.865 131.904C150.7 130.555 153.231 129.306 153.467 129.137C153.703 128.935 153.872 128.496 153.804 128.125L153.703 127.45L147.967 125.797C144.828 124.919 142.095 124.177 141.96 124.177C141.825 124.177 141.623 124.413 141.522 124.683Z" fill="#101426"/>
<path d="M175.738 136.222C175.434 136.29 175.097 136.593 174.995 136.897L174.759 137.437L176.75 139.36L178.707 141.284L180.361 141.824C181.272 142.161 182.622 142.397 183.398 142.397C184.174 142.397 185.591 142.161 186.603 141.857L188.392 141.318L190.18 139.529C191.193 138.517 192.002 137.471 192.002 137.167C192.002 136.897 191.597 136.492 191.125 136.324L190.281 135.986L183.296 136.02C179.45 136.054 176.075 136.121 175.738 136.222ZM188.021 138.854C187.616 139.158 186.772 139.597 186.131 139.867C185.456 140.137 184.309 140.373 183.566 140.373C182.824 140.373 181.677 140.137 181.002 139.867C180.361 139.597 179.517 139.158 179.112 138.854L178.37 138.348H183.566H188.763L188.021 138.854Z" fill="#101426"/>
<path d="M398.278 63.2698C397.3 63.5397 395.613 64.2146 394.533 64.7545L392.542 65.7668L390.855 67.589C389.944 68.6013 388.796 70.2547 388.324 71.267C387.852 72.2794 387.177 73.8316 386.873 74.7764C386.569 75.6875 386.198 77.8808 386.029 79.6355L385.759 82.8412L384.916 85.0345C384.443 86.2493 383.971 88.2065 383.836 89.4212L383.6 91.6146L384.106 94.0104C384.41 95.3264 385.118 97.3848 385.692 98.5658L386.772 100.692L388.864 102.784L390.922 104.842L393.116 105.888C394.33 106.462 396.254 107.103 397.401 107.339L399.459 107.778L399.662 108.621L399.831 109.499L399.291 109.836C398.987 110.005 397.637 110.882 396.321 111.793C394.972 112.671 393.082 114.088 392.103 114.965C391.125 115.843 389.606 117.53 388.729 118.677C387.818 119.858 386.401 122.153 385.557 123.806C384.713 125.426 383.634 128.092 383.161 129.745C382.689 131.399 382.216 133.862 382.081 135.212L381.879 137.641L379.078 136.123L376.244 134.604L375.501 134.705L374.725 134.807V135.583V136.359L399.662 150.194L424.599 163.995H425.577H426.522V163.185V162.375L420.212 158.9C416.77 156.976 413.598 155.12 413.159 154.749C412.755 154.344 411.067 151.139 409.448 147.629C407.828 144.086 406.343 141.016 406.175 140.779C406.006 140.577 405.5 140.374 405.061 140.374H404.251V141.184C404.251 141.657 405.095 143.816 406.141 146.01C407.187 148.203 408.3 150.633 408.638 151.409L409.279 152.826L406.984 151.577C405.736 150.903 400.033 147.731 394.33 144.592L383.937 138.856L384.14 136.494C384.241 135.178 384.646 132.917 385.017 131.432C385.422 129.948 386.401 127.349 387.21 125.696C388.02 124.009 389.404 121.68 390.349 120.466C391.26 119.251 392.913 117.429 394.027 116.416C395.14 115.37 396.895 113.953 397.975 113.244C399.055 112.536 399.932 112.03 399.999 112.097C400.033 112.131 400.337 113.076 400.641 114.122L401.248 116.045L402.733 117.564L404.251 119.048L405.736 119.622L407.254 120.196L409.954 120.094L412.653 119.959L412.856 120.803C412.991 121.275 413.632 122.625 414.273 123.84L415.488 126.033L417.715 128.227L419.942 130.42L422.338 131.669C423.654 132.377 425.712 133.187 426.893 133.491L429.053 134.064H432.124C433.811 134.064 436.004 133.862 437.016 133.626C438.029 133.389 440.053 132.58 441.504 131.837L444.204 130.454L446.6 128.058L448.995 125.662L450.379 122.794C451.155 121.242 451.931 119.15 452.134 118.171C452.336 117.192 452.505 115.1 452.505 113.481V110.612L451.965 108.52C451.661 107.407 450.885 105.382 450.21 104.1L448.995 101.738L446.465 99.2069L443.9 96.6762L441.437 95.4951L439.007 94.3141L438.839 93.4705C438.737 92.9981 438.434 91.8508 438.164 90.906C437.894 89.9611 437.084 88.2739 436.341 87.1941C435.633 86.1143 434.621 84.7983 434.081 84.2922C433.541 83.786 432.225 82.8412 431.111 82.2001L429.154 81.019L426.623 80.4454L424.092 79.8717L422.27 80.0742L420.482 80.2429L420.279 78.6907C420.144 77.8133 419.773 76.0924 419.402 74.8776L418.761 72.6505L417.377 70.5922C416.635 69.4449 415.353 67.9264 414.543 67.2178C413.733 66.5092 412.147 65.4294 411.067 64.8557C409.988 64.2821 408.199 63.5734 407.119 63.2698L405.128 62.7636L402.564 62.7973C401.18 62.7973 399.223 63.0335 398.278 63.2698ZM407.254 65.4294C408.368 65.7668 409.954 66.4417 410.73 66.9141C411.54 67.3865 412.957 68.6013 413.936 69.5799C414.88 70.5922 416.061 72.2119 416.568 73.2242C417.04 74.2028 417.681 75.9912 417.951 77.2397C418.187 78.4545 418.424 79.7705 418.424 80.1079V80.7828L417.344 79.703C416.736 79.1294 415.657 78.4207 414.982 78.1508C414.273 77.8471 412.957 77.6109 412.012 77.6109C411.067 77.6109 409.751 77.8471 409.043 78.117C408.368 78.4207 407.187 79.2643 406.411 80.0067L405.027 81.3565L403.306 80.0067C402.361 79.2643 401.484 78.4207 401.315 78.1508C401.18 77.8808 399.392 75.8225 397.367 73.5954L393.723 69.5124H393.014C392.643 69.5124 392.002 69.7823 391.631 70.086L390.922 70.6934L391.8 69.5124C392.306 68.8712 393.419 67.8589 394.297 67.2515C395.174 66.6441 396.827 65.8343 397.975 65.4968L400.033 64.822H402.631L405.196 64.7882L407.254 65.4294ZM397.367 76.6323C399.729 79.2643 402.226 81.7951 402.935 82.3013L404.217 83.1786L404.319 84.8658L404.42 86.553H405.263H406.107L406.309 84.7646L406.546 83.0099L407.389 81.8626C407.862 81.2552 408.773 80.4791 409.414 80.1754C410.055 79.8717 411.236 79.6355 411.978 79.6355H413.396L414.745 80.3104C415.488 80.7153 416.399 81.4914 416.736 82.0988C417.108 82.7062 417.512 83.6848 417.614 84.2584C417.715 84.8658 417.715 85.9119 417.614 86.5867L417.377 87.7678L416.196 89.0838C415.522 89.7924 414.475 90.5685 413.834 90.771L412.687 91.1759V92.0195V92.8969L414.037 92.6944C414.779 92.5932 415.387 92.6269 415.387 92.7619C415.387 92.8969 415.15 93.8417 414.847 94.854L414.307 96.6762L414.678 99.3757L415.083 102.075L413.902 104.606C413.227 106.023 412.451 108.284 412.147 109.668L411.607 112.198L411.81 114.965L411.978 117.766L411.135 117.969C410.662 118.103 409.448 118.103 408.435 118.036L406.613 117.867L405.331 116.855C404.656 116.315 403.745 115.37 403.34 114.763C402.665 113.784 402.328 112.536 401.72 108.959L401.484 107.778L403.576 107.373C404.69 107.17 406.444 106.631 407.457 106.158L409.313 105.315V104.64C409.313 104.269 409.144 103.864 408.975 103.762C408.773 103.661 407.592 103.965 406.343 104.505L404.082 105.416L400.506 105.45H396.962L394.364 104.167L391.8 102.885L390.247 101.367C389.404 100.523 388.358 99.1732 387.919 98.4308C387.447 97.6547 386.941 96.6087 386.738 96.0688L386.367 95.1239L387.075 95.5626C387.48 95.7988 388.122 96.2037 388.526 96.4062C388.898 96.6424 389.708 96.8449 390.281 96.8449H391.327L392.475 96.0688L393.622 95.2927L393.723 94.5503L393.824 93.8079L393.318 93.6055L392.812 93.403L391.901 94.1116C391.395 94.5165 390.686 94.8202 390.281 94.8202C389.876 94.8202 389.033 94.4491 388.425 94.0104C387.818 93.538 387.109 93.268 386.839 93.3693C386.569 93.4705 386.333 93.7067 386.333 93.9429C386.299 94.1454 386.164 93.8417 386.029 93.3018C385.894 92.7281 385.759 91.7158 385.726 90.9734L385.692 89.6912L387.143 90.8385C387.919 91.4796 388.864 92.1882 389.269 92.3907L389.977 92.7619L390.349 92.3907C390.585 92.1545 390.754 91.817 390.754 91.5808C390.754 91.3446 390.146 90.6698 389.404 90.0286L388.054 88.9151L389.91 86.4855C390.922 85.1358 391.766 83.7523 391.766 83.3473V82.6725H390.99H390.214L388.223 85.372C387.143 86.8567 386.198 88.004 386.131 87.9702C386.063 87.9028 386.266 87.1266 386.569 86.2493L387.109 84.6634L387.919 84.3597L388.729 84.0222V83.2124C388.729 82.74 388.594 82.2675 388.392 82.1663C388.223 82.0651 388.054 81.2215 388.054 80.3104C388.054 79.3993 388.223 77.9146 388.425 77.0035L388.763 75.3163L390.821 73.5954C391.935 72.6505 392.879 71.8744 392.947 71.8744C393.014 71.8744 395.005 74.034 397.367 76.6323ZM428.715 83.3136C429.93 83.8535 431.651 85.0345 432.596 85.9119L434.283 87.4978L435.397 89.7249L436.476 91.952V93.7742V95.6301L438.029 96.17C438.872 96.4737 440.391 97.1823 441.403 97.7222C442.382 98.2621 444.136 99.6119 445.25 100.759C446.363 101.873 447.781 103.695 448.354 104.808C448.928 105.888 449.637 107.609 449.94 108.621L450.48 110.477V113.514V116.585L449.974 118.407C449.738 119.386 449.097 121.073 448.557 122.085C448.051 123.131 446.735 124.953 445.621 126.101C444.541 127.282 442.787 128.733 441.741 129.374C440.694 130.015 438.805 130.825 437.523 131.23L435.228 131.938H432.292H429.357L427.366 131.432C426.286 131.129 424.464 130.42 423.35 129.813L421.292 128.733L419.267 126.708L417.242 124.684L415.994 122.288C415.285 120.972 414.475 118.846 414.172 117.564L413.632 115.235L413.801 112.536L414.003 109.803L414.847 107.508C415.285 106.226 416.23 104.403 416.871 103.425C417.546 102.48 418.086 101.434 418.086 101.097V100.489L417.445 100.32L416.804 100.152L416.601 98.5321L416.399 96.9124L416.905 94.9552C417.175 93.8754 417.411 92.4919 417.411 91.8845C417.411 91.3109 417.58 90.7035 417.782 90.5685C417.985 90.4673 418.525 89.5562 418.963 88.6114L419.773 86.8904V85.0345C419.773 84.0222 419.908 83.0099 420.043 82.8074C420.178 82.5712 420.583 82.335 420.954 82.2338C421.325 82.1326 422.743 82.0988 424.092 82.1663L426.556 82.3013L428.715 83.3136Z" fill="#101426"/>
<path d="M410.561 83.8194C409.515 85.0004 408.638 86.2489 408.638 86.5526C408.638 86.8226 408.84 87.16 409.11 87.2612C409.38 87.3625 410.932 87.295 412.552 87.0925C414.172 86.89 415.657 86.5864 415.859 86.3839L416.23 86.0127L415.859 85.4391L415.454 84.8654L413.868 84.9667L412.248 85.1016L413.16 84.0218C413.666 83.4144 414.037 82.6721 413.969 82.3684C413.902 82.0647 413.564 81.7947 413.193 81.7272L412.485 81.626L410.561 83.8194Z" fill="#101426"/>
<path d="M393.858 83.0765C393.622 83.3127 393.453 83.8189 393.453 84.2238V84.9999L394.094 85.2024C394.432 85.3036 394.972 85.3036 395.275 85.1686L395.815 84.9662V84.2238C395.815 83.8189 395.646 83.3127 395.41 83.0765C395.174 82.8403 394.837 82.6716 394.634 82.6716C394.432 82.6716 394.094 82.8403 393.858 83.0765Z" fill="#101426"/>
<path d="M57.1283 90.5351C53.7202 92.6273 50.9532 94.4157 50.9532 94.5507C50.9532 94.6519 52.3367 97.014 54.0576 99.7472L57.1621 104.708L58.6468 105.652C59.4904 106.192 60.8064 106.698 61.6163 106.833L63.0672 107.036L64.7544 106.631L66.4079 106.226L67.8251 105.011C68.635 104.336 69.5461 103.189 69.8835 102.447L70.5246 101.063V99.376V97.6888L69.7148 96.0016C69.2761 95.0568 67.8589 92.6273 66.5766 90.6026C65.2606 88.5443 64.0121 86.8571 63.7421 86.8233C63.4722 86.7896 60.5027 88.4768 57.1283 90.5351Z" fill="#6E2FEB"/>
<path d="M397.873 112.738C396.726 113.514 394.837 114.999 393.723 116.045C392.576 117.091 390.922 118.913 390.011 120.128C389.066 121.343 387.683 123.671 386.873 125.358C386.063 127.012 385.085 129.61 384.68 131.095C384.308 132.58 383.904 135.009 383.802 136.494L383.6 139.193L396.659 146.381C403.812 150.363 409.785 153.534 409.853 153.433C409.954 153.332 408.806 150.666 407.322 147.461C405.803 144.255 404.588 141.454 404.588 141.184C404.588 140.914 404.791 140.712 405.061 140.712C405.297 140.712 405.668 140.914 405.837 141.117C406.006 141.353 407.49 144.424 409.11 147.967C410.73 151.476 412.417 154.682 412.822 155.087C413.261 155.458 416.433 157.314 419.874 159.237L426.185 162.713V163.185C426.185 163.455 425.915 163.658 425.577 163.658C425.206 163.658 413.801 157.483 400.168 149.958C386.536 142.399 375.265 136.123 375.096 135.954L374.759 135.65L375.198 135.212L375.603 134.807L378.606 136.393C380.259 137.304 381.744 138.012 381.913 138.012C382.081 138.012 382.318 136.899 382.419 135.549C382.554 134.199 383.026 131.77 383.499 130.15C383.971 128.53 384.882 126.101 385.557 124.751C386.232 123.401 387.345 121.512 387.987 120.499C388.661 119.487 390.045 117.766 391.023 116.686C392.036 115.606 392.812 114.628 392.711 114.56C392.643 114.493 386.839 117.968 379.787 122.321C372.768 126.674 366.897 130.251 366.728 130.251C366.559 130.251 365.243 129.644 363.86 128.901L361.295 127.552H359.675C358.798 127.552 357.651 127.72 357.111 127.923C356.605 128.092 355.592 128.834 354.918 129.509C354.209 130.184 353.635 130.859 353.635 131.027C353.635 131.196 351.644 134.908 349.215 139.295L344.794 147.292L345.098 147.697C345.233 147.933 356.369 157.179 369.799 168.247C383.262 179.315 394.499 188.392 394.769 188.459C395.073 188.527 402.226 192.374 410.662 197.03C419.098 201.687 426.117 205.5 426.218 205.5C426.353 205.5 426.522 202.733 426.589 199.325L426.758 193.183L427.467 190.99C427.872 189.775 428.749 187.818 429.458 186.637C430.166 185.422 431.719 183.465 432.933 182.25C434.148 181.036 436.004 179.517 437.05 178.91C438.096 178.302 440.053 177.391 441.437 176.885L443.9 176.008L452.943 175.873C457.904 175.805 461.953 175.67 461.953 175.603C461.953 175.535 460.873 173.308 459.557 170.643C458.241 168.011 457.026 165.783 456.891 165.682C456.756 165.581 453.517 159.271 449.704 151.611C445.891 143.985 442.854 137.641 442.955 137.54C443.09 137.439 443.023 137.337 442.82 137.337C442.652 137.337 441.977 136.19 441.336 134.807L440.188 132.276L439.682 132.411C439.412 132.512 438.332 132.816 437.32 133.119L435.464 133.659H432.258H429.053L427.062 133.119C425.948 132.849 423.991 132.04 422.675 131.331L420.279 130.082L418.052 127.889L415.825 125.696L414.61 123.502C413.969 122.288 413.294 120.904 413.193 120.432L412.957 119.521L410.291 119.689L407.625 119.892L406.107 119.318L404.588 118.711L403.104 117.226L401.619 115.741L401.079 114.155C400.775 113.312 400.539 112.299 400.539 111.962C400.539 111.625 400.438 111.355 400.269 111.355C400.134 111.355 399.055 111.996 397.873 112.738Z" fill="#6E2FEB"/>
<path d="M95.1578 110.003C93.2006 111.859 91.4797 113.378 91.2772 113.378C91.1085 113.378 90.5349 113.951 90.0287 114.592L89.1176 115.807L88.7464 117.596L88.3753 119.384L88.7802 120.903C88.9826 121.746 89.5225 122.927 89.9612 123.535C90.3999 124.108 91.0748 124.817 91.5134 125.053C91.9521 125.289 92.8294 125.762 93.4706 126.065L94.6516 126.639H96.5075C97.5198 126.639 98.9033 126.403 99.5445 126.133C100.219 125.863 102.615 123.906 104.876 121.847C107.137 119.755 108.993 117.899 108.993 117.697C108.993 117.528 106.766 114.93 104.066 111.994C101.367 109.058 99.072 106.629 98.9371 106.629C98.8021 106.663 97.1149 108.147 95.1578 110.003Z" fill="#C8ADFF"/>
<path d="M304.134 132.614C303.56 132.951 302.885 133.559 302.716 133.93C302.514 134.301 302.345 135.279 302.345 136.157C302.345 137.54 302.683 138.586 303.628 139.97L303.931 140.442L305.821 139.227C306.867 138.553 308.655 137.608 309.769 137.102C310.882 136.629 311.794 136.157 311.794 136.022C311.794 135.921 311.422 135.246 310.95 134.571L310.14 133.356L308.655 132.647C307.845 132.243 306.732 131.939 306.192 131.939C305.652 131.939 304.741 132.243 304.134 132.614Z" fill="#C8ADFF"/>
<path d="M181.947 186.469L179.821 188.628L177.054 189.944C175.536 190.686 173.376 191.429 172.296 191.631C171.183 191.834 169.529 192.002 168.584 192.002C167.64 192.002 165.885 191.766 164.704 191.496C163.523 191.193 161.532 190.45 160.25 189.775C159.001 189.101 157.044 187.717 155.897 186.705C154.783 185.659 153.771 184.916 153.67 185.018C153.568 185.085 156.2 198.009 159.507 213.734L165.514 242.281H169.226H172.937L178.64 214.172C181.745 198.751 184.377 185.692 184.478 185.152C184.579 184.646 184.512 184.241 184.377 184.275C184.208 184.275 183.128 185.254 181.947 186.469Z" fill="#C8ADFF"/>
<path d="M296.608 249.468C296.608 250.48 296.372 252.572 296.068 254.091C295.798 255.643 295.09 258.106 294.55 259.591C294.01 261.076 292.964 263.269 292.188 264.45C291.412 265.631 289.927 267.386 288.847 268.364C287.767 269.377 286.215 270.591 285.338 271.098C284.494 271.604 282.841 272.346 281.66 272.785C280.513 273.223 278.285 273.831 276.699 274.134C275.114 274.438 273.055 275.079 272.077 275.552L270.322 276.395L268.601 278.285C267.656 279.297 266.61 280.715 266.239 281.389C265.901 282.064 265.395 283.448 265.092 284.46C264.822 285.472 264.552 287.16 264.484 288.172L264.383 290.028L287.295 290.129L310.207 290.197L310.578 289.724C310.781 289.488 314.155 287.227 318.036 284.73C321.95 282.233 325.324 280.073 325.561 279.938L325.999 279.668L325.898 284.932L325.797 290.197H331.972H338.113V269.68V249.164L319.824 248.59C309.735 248.253 300.388 247.915 299.072 247.814L296.608 247.612V249.468Z" fill="#C8ADFF"/>
<path d="M285.406 251.526C280.648 252.64 276.666 253.686 276.565 253.787C276.463 253.888 277.138 255.913 278.049 258.275L279.737 262.56V264.517V266.441L278.859 268.229L277.948 270.018L276.598 270.996C275.856 271.536 274.675 272.144 273.933 272.312C273.224 272.515 270.795 272.818 268.5 272.953L264.349 273.257L263 273.831C262.291 274.134 261.11 274.742 260.435 275.214C259.76 275.687 258.647 276.868 258.006 277.813C257.331 278.791 256.487 280.478 256.082 281.592L255.374 283.616L255.137 286.89L254.935 290.197H258.883H262.865V289.083C262.865 288.509 263.101 286.923 263.371 285.641C263.641 284.325 264.349 282.3 264.957 281.086L266.037 278.892L267.926 277.003C268.972 275.957 270.558 274.708 271.503 274.269C272.414 273.797 274.439 273.156 276.025 272.852C277.611 272.548 279.804 271.975 280.918 271.57C282.031 271.199 283.786 270.355 284.832 269.748C285.878 269.107 287.7 267.588 288.881 266.306L291.041 264.045L292.087 261.852C292.694 260.637 293.403 258.916 293.707 258.039C294.01 257.161 294.483 255.137 294.753 253.517C295.023 251.931 295.259 250.345 295.259 250.008V249.366L294.685 249.4C294.348 249.434 290.163 250.379 285.406 251.526Z" fill="#C8ADFF"/>
</svg>
