<svg width="81" height="80" viewBox="0 0 81 80" fill="none" xmlns="http://www.w3.org/2000/svg">
<circle cx="40.5" cy="40" r="40" fill="#E4D6FF"/>
<circle cx="40.5" cy="40" r="34.2857" fill="#F5F0FF"/>
<circle cx="40.4999" cy="39.9989" r="27.4286" fill="white"/>
<path d="M40.4167 49.3333H33.4167C33.1073 49.3333 32.8105 49.2104 32.5917 48.9916C32.3729 48.7728 32.25 48.4761 32.25 48.1667V31.8333C32.25 31.5239 32.3729 31.2272 32.5917 31.0084C32.8105 30.7896 33.1073 30.6667 33.4167 30.6667H39.25V34.1667C39.25 35.0949 39.6188 35.9852 40.2751 36.6415C40.9315 37.2979 41.8217 37.6667 42.75 37.6667H46.25V43.5C46.25 43.8094 46.3729 44.1062 46.5917 44.325C46.8105 44.5437 47.1073 44.6667 47.4167 44.6667C47.7261 44.6667 48.0228 44.5437 48.2416 44.325C48.4604 44.1062 48.5833 43.8094 48.5833 43.5V36.5C48.5833 36.5 48.5833 36.5 48.5833 36.43C48.5712 36.3228 48.5477 36.2172 48.5133 36.115V36.01C48.4572 35.89 48.3824 35.7798 48.2917 35.6833L41.2917 28.6833C41.1952 28.5926 41.085 28.5178 40.965 28.4617C40.9264 28.4549 40.8869 28.4549 40.8483 28.4617C40.7349 28.401 40.613 28.3577 40.4867 28.3333H33.4167C32.4884 28.3333 31.5982 28.7021 30.9418 29.3585C30.2854 30.0148 29.9167 30.9051 29.9167 31.8333V48.1667C29.9167 49.0949 30.2854 49.9852 30.9418 50.6415C31.5982 51.2979 32.4884 51.6667 33.4167 51.6667H40.4167C40.7261 51.6667 41.0228 51.5437 41.2416 51.325C41.4604 51.1062 41.5833 50.8094 41.5833 50.5C41.5833 50.1906 41.4604 49.8938 41.2416 49.675C41.0228 49.4562 40.7261 49.3333 40.4167 49.3333ZM41.5833 32.3117L44.605 35.3333H42.75C42.4406 35.3333 42.1438 35.2104 41.925 34.9916C41.7063 34.7728 41.5833 34.4761 41.5833 34.1667V32.3117ZM35.75 42.3333H42.75C43.0594 42.3333 43.3562 42.2104 43.575 41.9916C43.7938 41.7728 43.9167 41.4761 43.9167 41.1667C43.9167 40.8572 43.7938 40.5605 43.575 40.3417C43.3562 40.1229 43.0594 40 42.75 40H35.75C35.4406 40 35.1438 40.1229 34.925 40.3417C34.7063 40.5605 34.5833 40.8572 34.5833 41.1667C34.5833 41.4761 34.7063 41.7728 34.925 41.9916C35.1438 42.2104 35.4406 42.3333 35.75 42.3333ZM40.4167 44.6667H35.75C35.4406 44.6667 35.1438 44.7896 34.925 45.0084C34.7063 45.2272 34.5833 45.5239 34.5833 45.8333C34.5833 46.1427 34.7063 46.4395 34.925 46.6583C35.1438 46.8771 35.4406 47 35.75 47H40.4167C40.7261 47 41.0228 46.8771 41.2416 46.6583C41.4604 46.4395 41.5833 46.1427 41.5833 45.8333C41.5833 45.5239 41.4604 45.2272 41.2416 45.0084C41.0228 44.7896 40.7261 44.6667 40.4167 44.6667ZM35.75 37.6667H36.9167C37.2261 37.6667 37.5228 37.5437 37.7416 37.325C37.9604 37.1062 38.0833 36.8094 38.0833 36.5C38.0833 36.1906 37.9604 35.8938 37.7416 35.675C37.5228 35.4562 37.2261 35.3333 36.9167 35.3333H35.75C35.4406 35.3333 35.1438 35.4562 34.925 35.675C34.7063 35.8938 34.5833 36.1906 34.5833 36.5C34.5833 36.8094 34.7063 37.1062 34.925 37.325C35.1438 37.5437 35.4406 37.6667 35.75 37.6667ZM51.745 45.005C51.6365 44.8956 51.5075 44.8089 51.3653 44.7496C51.2232 44.6904 51.0707 44.6599 50.9167 44.6599C50.7627 44.6599 50.6102 44.6904 50.468 44.7496C50.3258 44.8089 50.1968 44.8956 50.0883 45.005L46.25 48.855L44.745 47.3383C44.6362 47.2296 44.5071 47.1433 44.365 47.0844C44.2228 47.0255 44.0705 46.9952 43.9167 46.9952C43.7628 46.9952 43.6105 47.0255 43.4684 47.0844C43.3263 47.1433 43.1971 47.2296 43.0883 47.3383C42.9796 47.4471 42.8933 47.5762 42.8344 47.7184C42.7755 47.8605 42.7452 48.0128 42.7452 48.1667C42.7452 48.3205 42.7755 48.4728 42.8344 48.615C42.8933 48.7571 42.9796 48.8862 43.0883 48.995L45.4217 51.3283C45.5301 51.4377 45.6592 51.5245 45.8013 51.5837C45.9435 51.6429 46.096 51.6734 46.25 51.6734C46.404 51.6734 46.5565 51.6429 46.6987 51.5837C46.8408 51.5245 46.9699 51.4377 47.0783 51.3283L51.745 46.6617C51.8544 46.5532 51.9412 46.4242 52.0004 46.282C52.0596 46.1398 52.0901 45.9873 52.0901 45.8333C52.0901 45.6793 52.0596 45.5268 52.0004 45.3847C51.9412 45.2425 51.8544 45.1135 51.745 45.005Z" fill="#6E2FEB"/>
</svg>
