<svg width="81" height="80" viewBox="0 0 81 80" fill="none" xmlns="http://www.w3.org/2000/svg">
<circle cx="40.5" cy="40" r="40" fill="#E4D6FF"/>
<circle cx="40.5" cy="40" r="34.2857" fill="#F5F0FF"/>
<circle cx="40.4999" cy="39.9989" r="27.4286" fill="white"/>
<path d="M32.8329 41.1667H46.6696L42.4346 46.2534C42.3365 46.3714 42.2627 46.5075 42.2172 46.654C42.1718 46.8005 42.1556 46.9546 42.1697 47.1073C42.1982 47.4158 42.348 47.7004 42.5862 47.8984C42.8245 48.0964 43.1317 48.1917 43.4402 48.1633C43.7487 48.1348 44.0332 47.985 44.2312 47.7467L50.0646 40.7467C50.1038 40.6911 50.1389 40.6326 50.1696 40.5717C50.1696 40.5134 50.2279 40.4784 50.2512 40.4201C50.3041 40.2863 50.3318 40.1439 50.3329 40.0001C50.3318 39.8562 50.3041 39.7138 50.2512 39.5801C50.2512 39.5217 50.1929 39.4867 50.1696 39.4284C50.1389 39.3676 50.1038 39.3091 50.0646 39.2534L44.2312 32.2534C44.1216 32.1217 43.9842 32.0158 43.8289 31.9432C43.6737 31.8706 43.5043 31.8331 43.3329 31.8334C43.0603 31.8329 42.7961 31.9278 42.5862 32.1017C42.4681 32.1997 42.3705 32.32 42.2989 32.4557C42.2273 32.5914 42.1832 32.74 42.1691 32.8928C42.155 33.0456 42.1712 33.1997 42.2168 33.3462C42.2623 33.4927 42.3363 33.6289 42.4346 33.7467L46.6696 38.8334H32.8329C32.5235 38.8334 32.2267 38.9563 32.008 39.1751C31.7892 39.3939 31.6662 39.6907 31.6662 40.0001C31.6662 40.3095 31.7892 40.6062 32.008 40.825C32.2267 41.0438 32.5235 41.1667 32.8329 41.1667Z" fill="#6E2FEB"/>
</svg>
