<svg width="81" height="80" viewBox="0 0 81 80" fill="none" xmlns="http://www.w3.org/2000/svg">
<circle cx="40.5" cy="40" r="40" fill="#E4D6FF"/>
<circle cx="40.5" cy="40" r="34.2857" fill="#F5F0FF"/>
<circle cx="40.4999" cy="39.9989" r="27.4286" fill="white"/>
<path d="M51.5 38.25H50.3333V37.0833C50.3333 36.7739 50.2104 36.4772 49.9916 36.2584C49.7728 36.0396 49.4761 35.9167 49.1667 35.9167C48.8573 35.9167 48.5605 36.0396 48.3417 36.2584C48.1229 36.4772 48 36.7739 48 37.0833V38.25H46.8333C46.5239 38.25 46.2272 38.3729 46.0084 38.5917C45.7896 38.8105 45.6667 39.1072 45.6667 39.4167C45.6667 39.7261 45.7896 40.0228 46.0084 40.2416C46.2272 40.4604 46.5239 40.5833 46.8333 40.5833H48V41.75C48 42.0594 48.1229 42.3562 48.3417 42.575C48.5605 42.7937 48.8573 42.9167 49.1667 42.9167C49.4761 42.9167 49.7728 42.7937 49.9916 42.575C50.2104 42.3562 50.3333 42.0594 50.3333 41.75V40.5833H51.5C51.8094 40.5833 52.1062 40.4604 52.325 40.2416C52.5438 40.0228 52.6667 39.7261 52.6667 39.4167C52.6667 39.1072 52.5438 38.8105 52.325 38.5917C52.1062 38.3729 51.8094 38.25 51.5 38.25ZM42.5167 40.2567C43.1392 39.7178 43.6385 39.0514 43.9807 38.3025C44.3229 37.5537 44.5 36.74 44.5 35.9167C44.5 34.3696 43.8854 32.8858 42.7915 31.7919C41.6975 30.6979 40.2138 30.0833 38.6667 30.0833C37.1196 30.0833 35.6358 30.6979 34.5419 31.7919C33.4479 32.8858 32.8333 34.3696 32.8333 35.9167C32.8333 36.74 33.0104 37.5537 33.3527 38.3025C33.6949 39.0514 34.1942 39.7178 34.8167 40.2567C33.1835 40.9962 31.7979 42.1904 30.8255 43.6966C29.8531 45.2028 29.3351 46.9572 29.3333 48.75C29.3333 49.0594 29.4563 49.3562 29.6751 49.575C29.8938 49.7937 30.1906 49.9167 30.5 49.9167C30.8094 49.9167 31.1062 49.7937 31.325 49.575C31.5438 49.3562 31.6667 49.0594 31.6667 48.75C31.6667 46.8935 32.4042 45.113 33.7169 43.8003C35.0297 42.4875 36.8102 41.75 38.6667 41.75C40.5232 41.75 42.3037 42.4875 43.6164 43.8003C44.9292 45.113 45.6667 46.8935 45.6667 48.75C45.6667 49.0594 45.7896 49.3562 46.0084 49.575C46.2272 49.7937 46.5239 49.9167 46.8333 49.9167C47.1428 49.9167 47.4395 49.7937 47.6583 49.575C47.8771 49.3562 48 49.0594 48 48.75C47.9983 46.9572 47.4803 45.2028 46.5079 43.6966C45.5355 42.1904 44.1498 40.9962 42.5167 40.2567ZM38.6667 39.4167C37.9744 39.4167 37.2978 39.2114 36.7222 38.8268C36.1466 38.4422 35.698 37.8956 35.4331 37.2561C35.1682 36.6165 35.0989 35.9128 35.2339 35.2338C35.369 34.5549 35.7023 33.9313 36.1918 33.4418C36.6813 32.9523 37.3049 32.619 37.9839 32.4839C38.6628 32.3489 39.3665 32.4182 40.0061 32.6831C40.6456 32.948 41.1922 33.3966 41.5768 33.9722C41.9614 34.5477 42.1667 35.2244 42.1667 35.9167C42.1667 36.8449 41.7979 37.7352 41.1416 38.3915C40.4852 39.0479 39.5949 39.4167 38.6667 39.4167Z" fill="#6E2FEB"/>
</svg>
