<svg width="81" height="80" viewBox="0 0 81 80" fill="none" xmlns="http://www.w3.org/2000/svg">
<circle cx="40.5" cy="40" r="40" fill="#E4D6FF"/>
<circle cx="40.5" cy="40" r="34.2857" fill="#F5F0FF"/>
<circle cx="40.4999" cy="39.9989" r="27.4286" fill="white"/>
<path d="M50.3881 45.2178C48.9837 43.4989 47.9922 42.6239 47.9922 37.8853C47.9922 33.5458 45.7763 31.9998 43.9524 31.2489C43.7102 31.1494 43.4821 30.9208 43.4083 30.672C43.0884 29.5832 42.1915 28.6239 40.9993 28.6239C39.8071 28.6239 38.9097 29.5837 38.5931 30.6731C38.5192 30.9246 38.2912 31.1494 38.0489 31.2489C36.2229 32.0009 34.0092 33.5414 34.0092 37.8853C34.0064 42.6239 33.0149 43.4989 31.6106 45.2178C31.0287 45.9298 31.5384 46.9989 32.5561 46.9989H49.448C50.4603 46.9989 50.9667 45.9265 50.3881 45.2178Z" stroke="#6E2FEB" stroke-width="2" stroke-linecap="round" stroke-linejoin="round"/>
<path d="M44.4995 46.9989V47.8739C44.4995 48.8022 44.1308 49.6924 43.4744 50.3488C42.818 51.0052 41.9278 51.3739 40.9995 51.3739C40.0713 51.3739 39.181 51.0052 38.5246 50.3488C37.8683 49.6924 37.4995 48.8022 37.4995 47.8739V46.9989" stroke="#6E2FEB" stroke-width="2" stroke-linecap="round" stroke-linejoin="round"/>
</svg>
