<svg width="452" height="418" viewBox="0 0 452 418" fill="none" xmlns="http://www.w3.org/2000/svg">
<path d="M232.06 417.882C345.234 417.882 436.98 401.189 436.98 380.597C436.98 360.006 345.234 343.312 232.06 343.312C118.886 343.312 27.1401 360.006 27.1401 380.597C27.1401 401.189 118.886 417.882 232.06 417.882Z" fill="#DBC9FF"/>
<path opacity="0.5" d="M232.06 417.882C345.234 417.882 436.98 401.189 436.98 380.597C436.98 360.006 345.234 343.312 232.06 343.312C118.886 343.312 27.1401 360.006 27.1401 380.597C27.1401 401.189 118.886 417.882 232.06 417.882Z" fill="white"/>
<path d="M433.009 187.81C433.009 187.81 433.009 183.242 426.766 176.836C420.523 170.429 416.498 166.786 416.498 166.786C416.498 166.786 413.377 177.292 419.174 183.699C423.433 188.195 428.05 192.321 432.977 196.033L433.009 187.81Z" fill="#E4D6FF"/>
<path d="M423.941 216.35C423.941 216.35 423.941 211.782 417.698 205.387C411.455 198.991 407.441 195.326 407.441 195.326C407.441 195.326 404.256 205.843 410.117 212.239C414.374 216.737 418.991 220.863 423.92 224.573L423.941 216.35Z" fill="#E4D6FF"/>
<path d="M432.616 195.598C432.616 195.598 433.083 191.051 439.963 185.363C446.844 179.675 451.197 176.477 451.197 176.477C451.197 176.477 453.225 187.266 446.791 192.998C442.084 197.009 437.058 200.611 431.767 203.766L432.616 195.598Z" fill="#E4D6FF"/>
<path d="M421.67 229.304C421.67 229.304 422.604 224.834 430.015 219.918C437.426 215.002 442.109 212.304 442.109 212.304C442.109 212.304 443.011 223.257 436.035 228.271C430.939 231.752 425.569 234.793 419.981 237.364L421.67 229.304Z" fill="#E4D6FF"/>
<path d="M423.729 266.056C423.729 266.056 423.729 261.477 429.972 255.082C436.215 248.686 440.229 245.032 440.229 245.032C440.229 245.032 443.35 255.539 437.553 261.934C433.298 266.438 428.681 270.567 423.75 274.279L423.729 266.056Z" fill="#E4D6FF"/>
<path d="M423.622 275.018C423.622 275.018 424.249 270.494 418.961 263.25C413.674 256.006 410.202 251.808 410.202 251.808C410.202 251.808 405.647 261.76 410.499 268.938C414.096 274.015 418.103 278.774 422.476 283.165L423.622 275.018Z" fill="#E4D6FF"/>
<path d="M417.465 301.655C417.465 301.655 417.465 297.087 423.708 290.692C429.951 284.296 433.965 280.642 433.965 280.642C433.965 280.642 437.097 291.148 431.289 297.544C427.034 302.047 422.416 306.177 417.486 309.889L417.465 301.655Z" fill="#E4D6FF"/>
<path d="M421.606 325.714C421.606 325.714 420.47 321.288 424.929 313.478C429.389 305.669 432.362 301.09 432.362 301.09C432.362 301.09 437.978 310.444 433.954 318.144C430.937 323.602 427.481 328.794 423.623 333.665L421.606 325.714Z" fill="#E4D6FF"/>
<path d="M433.572 186.635C433.26 191.396 432.689 196.134 431.862 200.829C429.399 213.881 423.219 222.322 420.756 234.134C418.293 245.946 425.375 261.14 423.474 276.302C421.574 291.464 415.819 299.893 417.465 310.019C419.11 320.146 427.944 348.523 427.944 348.523" stroke="#263238" stroke-width="0.75" stroke-linecap="round" stroke-linejoin="round"/>
<path d="M432.552 198.632L439.283 193.335" stroke="#263238" stroke-width="0.75" stroke-linecap="round" stroke-linejoin="round"/>
<path d="M432.871 192.541L430.047 187.408" stroke="#263238" stroke-width="0.75" stroke-linecap="round" stroke-linejoin="round"/>
<path d="M421.127 233.59C421.127 233.59 426.765 229.239 432.552 224.888" stroke="#263238" stroke-width="0.75" stroke-linecap="round" stroke-linejoin="round"/>
<path d="M423.644 223.768C420.899 218.489 417.644 213.504 413.929 208.889" stroke="#263238" stroke-width="0.75" stroke-linecap="round" stroke-linejoin="round"/>
<path d="M423.942 272.549C427.16 266.476 431.223 260.914 436.003 256.039" stroke="#263238" stroke-width="0.75" stroke-linecap="round" stroke-linejoin="round"/>
<path d="M422.848 278.967C421.14 274.844 419.098 270.874 416.743 267.1C413.462 262.13 412.984 261.488 412.984 261.488" stroke="#263238" stroke-width="0.75" stroke-linecap="round" stroke-linejoin="round"/>
<path d="M417.465 310.008C418.89 306.374 420.586 302.858 422.54 299.491C424.491 296.371 426.689 293.421 429.112 290.67" stroke="#263238" stroke-width="0.75" stroke-linecap="round" stroke-linejoin="round"/>
<path d="M423.665 333.665C423.34 330.2 423.923 326.708 425.354 323.55C427.7 318.895 430.365 312.804 431.459 310.4" stroke="#263238" stroke-width="0.75" stroke-linecap="round" stroke-linejoin="round"/>
<path d="M392.11 248.86C392.11 248.86 391.622 246 394.86 241.247C398.099 236.494 400.233 233.796 400.233 233.796C400.233 233.796 403.301 240.05 400.349 244.673C398.149 247.969 395.684 251.073 392.981 253.95L392.11 248.86Z" fill="#E4D6FF"/>
<path d="M400.816 265.763C400.816 265.763 400.338 262.902 403.577 258.149C406.815 253.396 408.939 250.698 408.939 250.698C408.939 250.698 412.018 256.942 409.056 261.575C406.856 264.869 404.391 267.969 401.687 270.842L400.816 265.763Z" fill="#E4D6FF"/>
<path d="M393.182 253.7C393.182 253.7 392.407 250.905 387.491 248.099C382.575 245.293 379.496 243.748 379.496 243.748C379.496 243.748 379.379 250.742 384.019 253.613C387.395 255.61 390.929 257.313 394.583 258.704L393.182 253.7Z" fill="#E4D6FF"/>
<path d="M403.619 273.616C403.619 273.616 402.558 270.918 397.387 268.667C392.216 266.415 388.999 265.23 388.999 265.23C388.999 265.23 389.594 272.191 394.499 274.562C398.064 276.179 401.754 277.488 405.531 278.477L403.619 273.616Z" fill="#E4D6FF"/>
<path d="M406.221 296.891C406.221 296.891 405.743 294.031 401.146 290.713C396.548 287.396 393.639 285.547 393.639 285.547C393.639 285.547 392.8 292.486 397.111 295.858C400.266 298.202 403.604 300.276 407.092 302.058L406.221 296.891Z" fill="#E4D6FF"/>
<path d="M407.239 302.504C407.239 302.504 406.358 299.741 408.917 294.607C411.476 289.473 413.164 286.461 413.164 286.461C413.164 286.461 417.071 292.193 414.788 297.229C413.072 300.813 411.065 304.244 408.79 307.485L407.239 302.504Z" fill="#E4D6FF"/>
<path d="M415.076 325.584C415.076 325.584 415.405 322.691 419.801 319.058C424.196 315.425 426.999 313.467 426.999 313.467C426.999 313.467 428.231 320.341 424.111 323.952C421.097 326.485 417.879 328.752 414.492 330.728L415.076 325.584Z" fill="#E4D6FF"/>
<path d="M413.919 318.492C413.919 318.492 413.43 315.632 408.843 312.314C404.257 308.997 401.337 307.148 401.337 307.148C401.337 307.148 400.498 314.087 404.809 317.448C407.96 319.801 411.299 321.878 414.789 323.659L413.919 318.492Z" fill="#E4D6FF"/>
<path d="M413.855 334.078C413.855 334.078 414.099 331.174 410.468 326.769C406.837 322.364 404.49 319.83 404.49 319.83C404.49 319.83 401.963 326.356 405.308 330.707C407.775 333.796 410.492 336.667 413.43 339.288L413.855 334.078Z" fill="#E4D6FF"/>
<path d="M391.632 248.197C392.336 251.142 393.194 254.047 394.201 256.898C397.142 264.816 401.899 269.417 404.702 276.552C407.505 283.687 404.702 293.955 407.463 303.298C410.223 312.641 414.768 317.23 414.81 323.756C414.853 330.282 412.336 348.424 412.336 348.424" stroke="#263238" stroke-width="0.75" stroke-linecap="round" stroke-linejoin="round"/>
<path d="M393.543 255.604L388.755 253.026" stroke="#263238" stroke-width="0.75" stroke-linecap="round" stroke-linejoin="round"/>
<path d="M392.694 251.808L393.925 248.284" stroke="#263238" stroke-width="0.75" stroke-linecap="round" stroke-linejoin="round"/>
<path d="M404.416 276.248C404.416 276.248 400.413 274.159 396.325 272.093" stroke="#263238" stroke-width="0.75" stroke-linecap="round" stroke-linejoin="round"/>
<path d="M401.655 270.015C402.929 266.538 404.484 263.176 406.306 259.965" stroke="#263238" stroke-width="0.75" stroke-linecap="round" stroke-linejoin="round"/>
<path d="M406.741 300.992C404.077 297.543 400.941 294.506 397.429 291.975" stroke="#263238" stroke-width="0.75" stroke-linecap="round" stroke-linejoin="round"/>
<path d="M408.143 304.918C408.776 302.141 409.635 299.423 410.712 296.793C412.241 293.313 412.475 292.867 412.475 292.867" stroke="#263238" stroke-width="0.75" stroke-linecap="round" stroke-linejoin="round"/>
<path d="M414.587 328.716C416.144 326.752 417.867 324.932 419.736 323.278C420.923 322.377 422.038 321.38 423.07 320.298" stroke="#263238" stroke-width="0.75" stroke-linecap="round" stroke-linejoin="round"/>
<path d="M414.81 323.757C413.53 321.638 412.092 319.624 410.51 317.731C408.956 315.994 407.265 314.389 405.456 312.934" stroke="#263238" stroke-width="0.75" stroke-linecap="round" stroke-linejoin="round"/>
<path d="M413.43 339.288C413.268 337.08 412.535 334.955 411.306 333.132C409.342 330.478 407.059 326.954 406.083 325.519" stroke="#263238" stroke-width="0.75" stroke-linecap="round" stroke-linejoin="round"/>
<path d="M404.447 346.075H434.909V362.205C434.909 362.923 434.631 363.612 434.135 364.12C433.639 364.628 432.967 364.913 432.265 364.913H407.091C406.39 364.913 405.717 364.628 405.222 364.12C404.726 363.612 404.447 362.923 404.447 362.205V346.075Z" fill="#263238" stroke="#263238" stroke-linecap="round" stroke-linejoin="round"/>
<path d="M45.9969 209.378C45.9969 209.378 45.9969 205.485 40.6881 200.046C35.3793 194.608 31.9392 191.497 31.9392 191.497C31.9392 191.497 29.2848 200.438 34.2114 205.876C37.8421 209.703 41.7771 213.213 45.9757 216.372L45.9969 209.378Z" fill="#E4D6FF"/>
<path d="M38.3094 233.644C38.3094 233.644 38.3094 229.761 33.0006 224.323C27.6918 218.884 24.2517 215.73 24.2517 215.73C24.2517 215.73 21.5973 224.66 26.5239 230.109C30.1583 233.95 34.1006 237.472 38.3094 240.638V233.644Z" fill="#E4D6FF"/>
<path d="M45.6677 215.991C45.6677 215.991 46.0605 212.13 51.9108 207.29C57.7611 202.45 61.4667 199.742 61.4667 199.742C61.4667 199.742 63.1868 208.911 57.7187 213.794C53.7266 217.203 49.4649 220.267 44.9775 222.952L45.6677 215.991Z" fill="#E4D6FF"/>
<path d="M36.3557 244.662C36.3557 244.662 37.1521 240.855 43.4483 236.679C49.7446 232.502 53.7368 230.153 53.7368 230.153C53.7368 230.153 54.5013 239.452 48.566 243.716C44.2364 246.682 39.6727 249.272 34.9224 251.46L36.3557 244.662Z" fill="#E4D6FF"/>
<path d="M38.1075 275.91C38.1075 275.91 38.1075 272.027 43.4163 266.578C48.7252 261.129 52.1122 258.029 52.1122 258.029C52.1122 258.029 54.7666 266.97 49.8294 272.408C46.2069 276.239 42.275 279.751 38.0757 282.904L38.1075 275.91Z" fill="#E4D6FF"/>
<path d="M38.0124 283.535C38.0124 283.535 38.5539 279.696 34.052 273.529C29.5502 267.361 26.6197 263.794 26.6197 263.794C26.6197 263.794 22.7549 272.256 26.8745 278.369C29.9368 282.684 33.3463 286.73 37.0674 290.463L38.0124 283.535Z" fill="#E4D6FF"/>
<path d="M32.7782 306.147C32.7782 306.147 32.7782 302.264 38.087 296.815C43.3958 291.366 46.8041 288.266 46.8041 288.266C46.8041 288.266 49.4585 297.207 44.5319 302.645C40.9011 306.471 36.9661 309.982 32.7676 313.141L32.7782 306.147Z" fill="#E4D6FF"/>
<path d="M36.3236 326.671C36.3236 326.671 35.3574 322.919 39.1585 316.273C42.9596 309.628 45.5291 305.734 45.5291 305.734C45.5291 305.734 50.2646 313.619 46.8032 320.211C44.2386 324.85 41.3016 329.263 38.0224 333.404L36.3236 326.671Z" fill="#E4D6FF"/>
<path d="M46.4748 208.378C46.2104 212.427 45.7247 216.457 45.0202 220.451C42.8967 231.556 37.6728 238.723 35.5811 248.73C33.4895 258.736 39.5096 271.701 37.8958 284.623C36.2819 297.544 31.3765 304.679 32.7781 313.282C34.1796 321.886 41.6969 346.032 41.6969 346.032" stroke="#263238" stroke-width="0.75" stroke-linecap="round" stroke-linejoin="round"/>
<path d="M45.6143 218.58L51.3372 214.077" stroke="#263238" stroke-width="0.75" stroke-linecap="round" stroke-linejoin="round"/>
<path d="M45.8796 213.392L43.48 209.03" stroke="#263238" stroke-width="0.75" stroke-linecap="round" stroke-linejoin="round"/>
<path d="M35.8994 248.36C35.8994 248.36 40.688 244.673 45.6145 240.997" stroke="#263238" stroke-width="0.75" stroke-linecap="round" stroke-linejoin="round"/>
<path d="M38.0335 239.952C35.7118 235.466 32.9588 231.229 29.8154 227.303" stroke="#263238" stroke-width="0.75" stroke-linecap="round" stroke-linejoin="round"/>
<path d="M38.3091 281.436C41.0465 276.271 44.5015 271.541 48.5657 267.394" stroke="#263238" stroke-width="0.75" stroke-linecap="round" stroke-linejoin="round"/>
<path d="M37.3535 286.896C35.9028 283.39 34.1697 280.014 32.1721 276.802C29.3691 272.571 28.9868 272.028 28.9868 272.028" stroke="#263238" stroke-width="0.75" stroke-linecap="round" stroke-linejoin="round"/>
<path d="M32.7783 313.282C33.9936 310.195 35.4346 307.207 37.0891 304.342C38.7512 301.691 40.6226 299.185 42.6846 296.848" stroke="#263238" stroke-width="0.75" stroke-linecap="round" stroke-linejoin="round"/>
<path d="M38.0548 333.404C37.7768 330.457 38.2716 327.487 39.4881 324.801C41.4842 320.842 43.7352 315.664 44.6801 313.62" stroke="#263238" stroke-width="0.75" stroke-linecap="round" stroke-linejoin="round"/>
<path d="M11.2131 261.292C11.2131 261.292 10.8097 258.856 13.5596 254.853C16.3096 250.851 18.1252 248.523 18.1252 248.523C18.1252 248.523 20.7372 253.831 18.2208 257.79C16.3512 260.593 14.2558 263.231 11.9564 265.676L11.2131 261.292Z" fill="#E4D6FF"/>
<path d="M18.6246 275.66C18.6246 275.66 18.2105 273.224 20.9711 269.221C23.7317 265.219 25.5367 262.88 25.5367 262.88C25.5367 262.88 28.1486 268.199 25.6322 272.158C23.7627 274.961 21.6672 277.599 19.3678 280.044L18.6246 275.66Z" fill="#E4D6FF"/>
<path d="M12.1266 265.404C12.1266 265.404 11.4683 263.033 7.29555 260.651C3.12283 258.269 0.500278 256.974 0.500278 256.974C0.500278 256.974 0.394102 262.913 4.33324 265.371C7.20411 267.075 10.2087 268.53 13.3157 269.722L12.1266 265.404Z" fill="#E4D6FF"/>
<path d="M21.0027 282.349C21.0027 282.349 20.1002 280.054 15.6939 278.129C11.2876 276.204 8.58008 275.203 8.58008 275.203C8.58008 275.203 9.08972 281.131 13.2624 283.143C16.2917 284.521 19.4276 285.638 22.6378 286.482L21.0027 282.349Z" fill="#E4D6FF"/>
<path d="M23.222 302.134C23.222 302.134 22.8079 299.697 18.9006 296.88C14.9934 294.063 12.5301 292.53 12.5301 292.53C12.5301 292.53 11.7656 298.392 15.4711 301.253C18.1553 303.249 20.9964 305.013 23.9652 306.528L23.222 302.134Z" fill="#E4D6FF"/>
<path d="M24.0821 306.908C24.0821 306.908 23.3389 304.559 25.5048 300.198C27.6708 295.836 29.1467 293.269 29.1467 293.269C29.1467 293.269 32.47 298.142 30.527 302.427C29.069 305.469 27.3642 308.38 25.4305 311.129L24.0821 306.908Z" fill="#E4D6FF"/>
<path d="M30.75 326.574C30.75 326.574 31.0261 324.115 34.7741 321.07C38.5221 318.025 40.8898 316.317 40.8898 316.317C40.8898 316.317 41.9516 322.158 38.4372 325.236C35.8707 327.395 33.1325 329.33 30.251 331.022L30.75 326.574Z" fill="#E4D6FF"/>
<path d="M29.8153 320.504C29.8153 320.504 29.4013 318.068 25.494 315.251C21.5867 312.434 19.1234 310.9 19.1234 310.9C19.1234 310.9 18.4014 316.806 22.0751 319.667C24.7581 321.665 27.5993 323.429 30.5692 324.942L29.8153 320.504Z" fill="#E4D6FF"/>
<path d="M29.7095 333.752C29.7095 333.752 29.9113 331.294 26.8322 327.542C23.7531 323.789 21.7463 321.646 21.7463 321.646C21.7463 321.646 19.6228 327.161 22.4365 330.892C24.5382 333.517 26.8503 335.958 29.3485 338.19L29.7095 333.752Z" fill="#E4D6FF"/>
<path d="M10.8101 260.727C11.4107 263.233 12.1408 265.706 12.9973 268.134C15.4924 274.866 19.5484 278.771 21.9267 284.84C24.3051 290.909 21.9267 299.676 24.2732 307.583C26.6197 315.49 30.4845 319.438 30.5164 324.985C30.5482 330.532 28.3928 345.966 28.3928 345.966" stroke="#263238" stroke-width="0.75" stroke-linecap="round" stroke-linejoin="round"/>
<path d="M12.4342 267.024L8.36768 264.838" stroke="#263238" stroke-width="0.75" stroke-linecap="round" stroke-linejoin="round"/>
<path d="M11.7231 263.805L12.7637 260.803" stroke="#263238" stroke-width="0.75" stroke-linecap="round" stroke-linejoin="round"/>
<path d="M21.6829 284.579C21.6829 284.579 18.2853 282.806 14.8027 281.044" stroke="#263238" stroke-width="0.75" stroke-linecap="round" stroke-linejoin="round"/>
<path d="M19.3354 279.282C20.4231 276.325 21.7477 273.466 23.2958 270.733" stroke="#263238" stroke-width="0.75" stroke-linecap="round" stroke-linejoin="round"/>
<path d="M23.6888 305.625C21.4203 302.71 18.7525 300.145 15.7681 298.011" stroke="#263238" stroke-width="0.75" stroke-linecap="round" stroke-linejoin="round"/>
<path d="M24.8467 308.943C25.3883 306.583 26.1199 304.272 27.0339 302.036C28.3399 299.078 28.531 298.686 28.531 298.686" stroke="#263238" stroke-width="0.75" stroke-linecap="round" stroke-linejoin="round"/>
<path d="M30.3359 329.195C31.6565 327.517 33.1204 325.962 34.7104 324.551C35.7201 323.785 36.6682 322.938 37.5453 322.016" stroke="#263238" stroke-width="0.75" stroke-linecap="round" stroke-linejoin="round"/>
<path d="M30.5162 324.985C29.4295 323.184 28.2083 321.471 26.8637 319.863C25.5598 318.382 24.1394 317.015 22.6167 315.773" stroke="#263238" stroke-width="0.75" stroke-linecap="round" stroke-linejoin="round"/>
<path d="M29.348 338.19C29.205 336.309 28.5785 334.5 27.5324 332.947C25.8654 330.696 23.8906 327.694 23.0942 326.519" stroke="#263238" stroke-width="0.75" stroke-linecap="round" stroke-linejoin="round"/>
<path d="M20.0894 346.075H50.5513V362.205C50.5513 362.565 50.4816 362.92 50.3461 363.252C50.2106 363.583 50.012 363.884 49.762 364.136C49.512 364.388 49.2155 364.586 48.8898 364.72C48.5641 364.853 48.2158 364.919 47.865 364.913H22.7331C22.032 364.913 21.3595 364.628 20.8637 364.12C20.3679 363.612 20.0894 362.923 20.0894 362.205V346.075Z" fill="#263238" stroke="#263238" stroke-linecap="round" stroke-linejoin="round"/>
<path d="M310.268 143.945C306.552 148.684 304.029 154.287 302.921 160.259C300.967 170.407 296.158 189.474 296.763 196.087C297.368 202.7 298.886 206.387 304.715 207.464C310.544 208.541 313.868 203.309 315.078 198.85C315.845 195.915 316.444 192.937 316.872 189.931L318.072 165.698C318.072 165.698 315.949 151.134 314.94 148.067C313.931 145 310.268 143.945 310.268 143.945Z" fill="#E4D6FF" stroke="#263238" stroke-linecap="round" stroke-linejoin="round"/>
<path d="M388.35 139.093C388.35 139.093 390.473 138.615 392.491 146.163C394.508 153.712 396.94 164.545 400.921 177.901C404.903 191.258 405.678 195.663 405.37 198.643C405.062 201.623 402.769 204.929 394.752 204.929C386.736 204.929 383.073 201.786 380.949 194.716C378.826 187.647 379.134 165.806 378.985 162.978C378.837 160.151 385.887 137.68 388.35 139.093Z" fill="#E4D6FF" stroke="#263238" stroke-linecap="round" stroke-linejoin="round"/>
<path d="M333.585 373.702C333.585 373.702 328.372 379.357 325.304 382.979C322.235 386.601 321.163 388.787 326.217 390.984C331.271 393.181 339.106 389.897 341.41 386.275C343.714 382.653 348.62 378.574 348.62 378.574C348.62 378.574 351.221 375.594 347.845 371.352C344.468 367.11 335.114 371.972 333.585 373.702Z" fill="white" stroke="#263238" stroke-linecap="round" stroke-linejoin="round"/>
<path d="M364.875 378.422C364.875 378.422 370.088 379.205 372.849 381.685C375.61 384.165 385.282 389.701 391.717 387.025C398.151 384.35 394.021 379.956 390.496 376.812C388.516 375.014 386.355 373.435 384.051 372.103C384.051 372.103 373.773 371.319 369.186 373.669C364.599 376.018 364.875 378.422 364.875 378.422Z" fill="white" stroke="#263238" stroke-linecap="round" stroke-linejoin="round"/>
<path d="M327.596 305.342C327.596 305.342 330.06 324.202 328.828 329.858C327.596 335.514 324.071 338.82 326.705 344.324C328.654 348.579 330.08 353.065 330.952 357.68C331.259 359.562 329.571 360.03 330.952 362.031C331.958 363.321 332.783 364.749 333.404 366.273C333.404 366.751 331.567 369.416 331.567 370.047C331.567 370.678 332.491 374.604 332.491 374.604C332.491 374.604 337.396 373.517 340.922 374.92C343.475 376.046 345.894 377.469 348.131 379.162C348.131 379.162 351.316 377.9 352.431 376.018C353.032 375.032 353.396 373.914 353.493 372.755C353.641 372.124 355.181 368.818 355.032 366.305C354.884 363.793 353.185 358.453 353.185 355.309C353.185 352.166 355.489 348.707 355.489 343.682C355.489 338.657 353.185 306.441 353.185 306.441L355.308 305.647C355.308 305.647 358.685 324.822 358.685 333.784C358.685 342.747 356.083 353.895 357.772 356.092C359.46 358.289 361.445 360.182 361.445 360.65C361.445 361.117 359.449 364.576 359.916 366.305C360.645 368.577 361.258 370.886 361.753 373.223C361.753 374.169 363.441 377.78 364.822 378.411C366.202 379.042 366.945 377.617 375.1 375.899C383.254 374.18 387.841 374.637 387.066 372.124C386.291 369.612 385.537 366.305 384.613 365.675C383.689 365.044 384.921 364.587 384.613 362.227C384.305 359.867 382.617 357.354 381.088 353.58C379.559 349.806 381.693 345.727 382.309 341.79C382.925 337.852 382.001 332.001 380.472 325.605C378.943 319.21 380.313 303.45 380.313 303.45L381.088 297.326C381.088 297.326 357.612 299.502 343.194 299.36L327.703 299.208C327.703 299.208 326.683 300.317 327.596 305.342Z" fill="#263238" stroke="#263238" stroke-linecap="round" stroke-linejoin="round"/>
<path d="M387.119 239.658C387.119 239.658 389.243 268.264 392.024 283.165C393.625 291.575 394.64 300.091 395.061 308.649H383.902C383.435 308.649 384.666 255.691 384.964 251.003C385.368 247.166 386.089 243.371 387.119 239.658Z" fill="#E4D6FF" stroke="#263238" stroke-linecap="round" stroke-linejoin="round"/>
<path d="M340.911 123.279C340.911 123.279 327.873 132.231 321.131 135.374C314.389 138.517 310.694 142.607 310.237 144.075C309.78 145.543 317.595 168.112 317.595 168.112C317.595 168.112 317.138 242.758 317.138 255.332C317.138 267.905 313.306 305.766 313.762 305.766C314.219 305.766 326.503 313.946 343.364 314.413C360.225 314.881 365.661 312.368 370.97 312.368C376.279 312.368 386.896 312.368 387.077 310.802C387.257 309.236 387.385 274.496 387.533 258.312C387.682 242.128 387.841 230.653 387.533 227.988C387.225 225.323 382.936 167.797 382.936 167.797C382.936 167.797 386.121 158.215 388 150.514C389.88 142.813 389.837 141.867 387.533 138.419C385.229 134.971 367.944 125.574 364.875 124.367C361.105 123.015 357.179 122.17 353.196 121.854C350.308 121.648 340.911 123.279 340.911 123.279Z" fill="#E4D6FF" stroke="#263238" stroke-linecap="round" stroke-linejoin="round"/>
<path d="M312.106 187.179C312.106 187.179 314.102 191.889 316.555 193.933C319.007 195.978 324.688 196.924 325.909 200.068C327.13 203.211 325.909 205.56 324.529 209.335C323.148 213.109 323.923 219.395 318.859 220.211C313.794 221.027 312.265 219.123 308.114 216.122C303.962 213.12 301.371 212.663 298.919 208.106C296.466 203.548 295.734 197.229 297.857 193.814" fill="#E4D6FF"/>
<path d="M312.106 187.179C312.106 187.179 314.102 191.889 316.555 193.933C319.007 195.978 324.688 196.924 325.909 200.068C327.13 203.211 325.909 205.56 324.529 209.335C323.148 213.109 323.923 219.395 318.859 220.211C313.794 221.027 312.265 219.123 308.114 216.122C303.962 213.12 301.371 212.663 298.919 208.106C296.466 203.548 295.734 197.229 297.857 193.814" stroke="#263238" stroke-linecap="round" stroke-linejoin="round"/>
<path d="M340.338 117.09L339.849 130.294C339.849 130.294 338.628 132.176 345.986 132.644C350.716 132.898 355.458 132.532 360.097 131.556L358.876 117.264C358.876 117.264 351.199 120.527 346.751 118.993C344.665 118.189 342.52 117.553 340.338 117.09Z" fill="white" stroke="#263238" stroke-linecap="round" stroke-linejoin="round"/>
<path d="M337.418 113.795C337.418 113.795 336.356 129.022 335.581 133.59C334.806 138.158 334.965 140.975 336.643 142.074C338.32 143.172 348.141 147.11 353.206 146.794C358.271 146.479 365.947 141.758 366.552 140.344C367.158 138.93 361.966 116.753 361.966 116.753L361.191 117.699C361.191 117.699 362.571 129.326 362.114 129.664C361.658 130.001 343.863 128.717 340.635 128.576C337.407 128.435 338.341 128.261 338.341 128.261L338.182 114.904L337.418 113.795Z" fill="white" stroke="#263238" stroke-linecap="round" stroke-linejoin="round"/>
<path d="M336.93 131.915C336.93 131.915 353.695 134.449 363.75 132.459" stroke="#263238" stroke-width="0.5" stroke-miterlimit="10"/>
<path d="M336.229 135.896C336.229 135.896 347.908 140.953 363.75 136.429" stroke="#263238" stroke-width="0.5" stroke-miterlimit="10"/>
<path d="M337.46 140.594C337.46 140.594 348.577 146.74 363.75 140.225" stroke="#263238" stroke-width="0.5" stroke-miterlimit="10"/>
<path d="M364.578 97.7625C364.96 92.9333 365.279 87.9736 364.111 85.5046C362.274 81.5782 356.742 77.0209 348.768 77.3363C340.794 77.6517 334.042 80.7951 334.201 90.845C334.201 90.845 334.541 93.8361 334.933 97.5015C334.203 99.1021 333.948 100.887 334.201 102.635C334.448 104.312 335.022 105.921 335.889 107.367C335.963 108.302 336.016 109.107 336.038 109.705C336.186 113.947 338.947 118.972 341.41 120.701C343.873 122.431 348.46 125.106 351.38 125.106C354.3 125.106 359.503 122.278 361.998 118.189C363.93 114.926 364.121 112.75 364.121 108.911H364.27C364.709 106.895 364.969 104.841 365.045 102.777C365.108 101.091 364.951 99.4052 364.578 97.7625Z" fill="white" stroke="#263238" stroke-linecap="round" stroke-linejoin="round"/>
<path d="M335.603 98.7089C335.603 98.7089 336.059 102.635 336.824 102.472C337.588 102.309 338.512 96.6641 338.512 96.6641L335.603 98.7089Z" fill="#263238" stroke="#263238" stroke-linecap="round" stroke-linejoin="round"/>
<path d="M361.658 98.2629C361.658 98.2629 361.658 102.668 362.719 103.299C363.781 103.93 364.556 99.5246 364.556 99.5246C363.687 98.9017 362.699 98.4719 361.658 98.2629Z" fill="#263238" stroke="#263238" stroke-linecap="round" stroke-linejoin="round"/>
<path d="M364.11 85.5046C362.273 81.5782 356.741 77.0209 348.768 77.3363C340.794 77.6517 334.041 80.7951 334.2 90.845C334.2 90.845 334.54 93.8361 334.933 97.5015C334.449 98.5642 334.172 99.713 334.115 100.884C337.099 98.4369 342.684 94.9346 349.691 95.5655C355.144 96.2021 360.386 98.0947 365.023 101.102C364.974 99.977 364.825 98.8592 364.577 97.7625C364.959 92.9333 365.331 88.0062 364.11 85.5046Z" fill="#E4D6FF" stroke="#263238" stroke-linecap="round" stroke-linejoin="round"/>
<path d="M347.695 101.526L346.771 107.182C346.771 107.182 345.083 107.334 345.71 108.433C346.336 109.531 349.543 110.793 351.082 110.325C352.622 109.857 354.151 108.28 353.991 107.649C353.944 107.461 353.848 107.289 353.714 107.151C353.579 107.013 353.411 106.915 353.227 106.866L351.231 101.047" stroke="#263238" stroke-linecap="round" stroke-linejoin="round"/>
<path d="M346.007 113.164C348.952 113.815 352.01 113.707 354.904 112.848" stroke="#263238" stroke-linecap="round" stroke-linejoin="round"/>
<path d="M344.32 101.297C344.32 102.124 343.906 102.788 343.396 102.788C342.886 102.788 342.483 102.124 342.483 101.297C342.483 100.471 342.897 99.8074 343.396 99.8074C343.895 99.8074 344.32 100.438 344.32 101.297Z" fill="#263238"/>
<path d="M355.977 101.221C355.977 102.048 355.563 102.711 355.064 102.711C354.565 102.711 354.141 102.048 354.141 101.221C354.141 100.395 354.555 99.7312 355.064 99.7312C355.574 99.7312 355.977 100.438 355.977 101.221Z" fill="#263238"/>
<path d="M340.794 99.0243C340.794 99.0243 341.856 96.3486 345.243 97.2949" stroke="#263238" stroke-linecap="round" stroke-linejoin="round"/>
<path d="M352.145 97.4471C352.145 97.4471 355.33 95.0869 357.666 99.1765" stroke="#263238" stroke-linecap="round" stroke-linejoin="round"/>
<path d="M323.148 206.822C323.148 206.822 332.513 208.997 334.658 208.551C337.469 208.014 340.043 206.583 342.016 204.462C344.787 201.634 347.08 199.274 347.08 201.634C347.09 202.565 346.918 203.489 346.575 204.352C346.233 205.215 345.726 205.999 345.084 206.659C344.022 207.921 342.016 209.335 341.559 211.379C341.102 213.424 341.718 214.99 344.171 215.937C346.624 216.883 354.289 218.286 354.289 220.287C354.289 222.289 353.674 227.053 350.913 228.619C348.153 230.185 341.41 229.086 341.41 229.086C341.41 229.086 346.931 232.23 345.859 233.024C344.787 233.818 341.559 232.708 340.03 231.294C338.501 229.88 337.907 229.717 333.426 226.422C328.945 223.126 325.144 219.189 322.999 217.938C321.837 217.38 320.763 216.647 319.814 215.763C318.582 214.675 318.126 212.5 319.039 209.955C319.35 209.201 319.811 208.521 320.392 207.96C320.974 207.398 321.663 206.966 322.415 206.692L323.148 206.822Z" fill="white" stroke="#263238" stroke-linecap="round" stroke-linejoin="round"/>
<path d="M396.016 188.908C396.016 188.908 384.974 191.084 383.902 191.888C382.829 192.693 383.902 195.978 383.902 195.978C383.902 195.978 374.537 200.535 371.012 203.048C367.487 205.56 370.704 210.596 370.863 211.216C370.863 211.216 373.624 220.494 378.221 223.637C382.819 226.78 387.575 225.671 392.183 220.646C396.791 215.621 399.701 208.682 401.845 206.343C403.99 204.005 406.294 201.786 405.53 196.554C404.765 191.323 400.773 190.735 400.773 190.735" fill="#E4D6FF"/>
<path d="M396.016 188.908C396.016 188.908 384.974 191.084 383.902 191.888C382.829 192.693 383.902 195.978 383.902 195.978C383.902 195.978 374.537 200.535 371.012 203.048C367.487 205.56 370.704 210.596 370.863 211.216C370.863 211.216 373.624 220.494 378.221 223.637C382.819 226.78 387.575 225.671 392.183 220.646C396.791 215.621 399.701 208.682 401.845 206.343C403.99 204.005 406.294 201.786 405.53 196.554C404.765 191.323 400.773 190.735 400.773 190.735" stroke="#263238" stroke-linecap="round" stroke-linejoin="round"/>
<path d="M373.464 209.65C373.464 209.65 366.414 211.532 364.418 211.695C362.422 211.858 362.114 212.162 360.893 211.216C359.672 210.27 353.981 206.866 351.337 203.679C348.693 200.492 346.729 199.905 347.037 201.634C347.345 203.363 346.729 204.614 348.577 205.876C350.424 207.137 352.25 210.596 352.25 212.01C352.25 213.424 352.102 213.892 348.269 215.273C344.436 216.654 335.687 218.417 336.589 219.515C337.492 220.614 339.35 220.929 341.346 220.777C343.342 220.624 351.624 219.363 352.229 219.83C352.429 220.04 352.578 220.294 352.666 220.573C352.753 220.852 352.775 221.148 352.731 221.438C352.686 221.727 352.576 222.002 352.41 222.24C352.244 222.479 352.025 222.674 351.772 222.811C350.392 223.757 345.487 223.757 342.567 224.072C339.647 224.388 339.499 225.16 340.73 225.802C342.708 226.557 344.811 226.908 346.92 226.835C349.373 226.835 352.229 226.585 351.008 227.368C349.787 228.151 348.088 228.314 345.02 228.782C341.951 229.25 340.879 227.846 341.346 229.097C341.813 230.348 345.487 230.359 350.084 230.185C354.269 229.966 358.333 228.672 361.902 226.422C364.97 224.529 376.161 221.701 376.936 221.081C377.711 220.461 378.922 216.829 378.157 212.434C377.393 208.04 373.464 209.65 373.464 209.65Z" fill="white" stroke="#263238" stroke-linecap="round" stroke-linejoin="round"/>
<path d="M385.589 191.258C388.578 188.724 391.817 186.515 395.251 184.667" stroke="#263238" stroke-linecap="round" stroke-linejoin="round"/>
<path d="M343.246 220.864C343.246 220.864 351.974 219.841 352.855 219.711C353.737 219.58 355.351 220.603 354.597 221.756C353.843 222.908 353.471 222.647 350.35 223.289C347.251 223.771 344.118 223.986 340.985 223.931" fill="white"/>
<path d="M343.246 220.864C343.246 220.864 351.974 219.841 352.855 219.711C353.737 219.58 355.351 220.603 354.597 221.756C353.843 222.908 353.471 222.647 350.35 223.289C347.251 223.771 344.118 223.986 340.985 223.931" stroke="#263238" stroke-linecap="round" stroke-linejoin="round"/>
<path d="M344.245 226.998C344.245 226.998 353.971 226.356 353.727 227.129C353.482 227.901 352.856 228.912 349.363 229.173C345.87 229.435 341.93 229.685 338.628 228.021" fill="white"/>
<path d="M344.245 226.998C344.245 226.998 353.971 226.356 353.727 227.129C353.482 227.901 352.856 228.912 349.363 229.173C345.87 229.435 341.93 229.685 338.628 228.021" stroke="#263238" stroke-linecap="round" stroke-linejoin="round"/>
<path d="M246.967 365.958C246.967 365.958 248.623 367.643 242.019 371.776C235.415 375.91 229.904 377.791 229.904 380.238C229.904 382.686 237.241 385.122 244.769 383.24C252.297 381.359 255.387 380.804 259.634 380.054C263.881 379.303 265.144 375.54 265.144 370.265C265.144 364.989 253.953 363.739 252.668 363.499C251.384 363.26 247.891 363.891 246.967 365.958Z" fill="white" stroke="#263238" stroke-linecap="round" stroke-linejoin="round"/>
<path d="M263.477 370.275C260.697 374.541 257.296 378.345 253.39 381.554C247.699 385.905 246.966 387.939 249.907 389.07C252.849 390.201 261.279 390.571 266.97 388.32C272.661 386.068 275.411 382.686 277.057 381.174C278.702 379.662 279.626 380.608 279.626 374.593C279.626 368.579 273.383 366.512 268.255 366.893C263.126 367.274 263.477 370.275 263.477 370.275Z" fill="white" stroke="#263238" stroke-linecap="round" stroke-linejoin="round"/>
<path d="M241.105 247.74C241.105 247.74 242.762 281.947 243.314 291.91C243.866 301.873 247.901 339.266 248.623 348.098C249.345 356.93 249.355 359.562 249.355 359.562C249.355 359.562 246.053 362.009 246.053 362.575C246.053 363.14 245.682 368.394 245.682 368.394C248.119 369.768 250.706 370.842 253.39 371.591C256.339 372.272 259.375 372.463 262.383 372.157C262.383 372.157 268.435 374.224 273.574 375.725C278.713 377.226 280.73 376.475 280.73 376.475C280.73 376.475 282.196 368.959 282.557 366.512C282.918 364.065 289.161 338.135 289.161 326.269C289.161 314.402 287.696 308.975 285.498 302.025C283.3 295.075 288.428 270.254 290.265 261.238C291.318 256.208 292.115 251.125 292.654 246.01C292.654 246.01 276.876 254.32 241.105 247.74Z" fill="#263238" stroke="#263238" stroke-linecap="round" stroke-linejoin="round"/>
<path d="M261.65 259.236C261.65 259.236 260.727 284.252 260.727 293.813C260.727 303.374 263.116 315.055 264.209 326.334C265.303 337.613 264.581 356.027 263.296 359.225C262.011 362.422 261.098 363.575 261.279 365.99C261.459 368.405 261.65 371.809 261.65 371.809" stroke="white" stroke-linecap="round" stroke-linejoin="round"/>
<path d="M258.71 113.729C258.71 113.729 257.648 110.347 255.949 111.663C254.251 112.979 255.408 115.426 256.873 117.873C258.338 120.321 259.984 120.875 260.175 119.559C260.366 118.243 258.71 113.729 258.71 113.729Z" fill="white" stroke="#263238" stroke-linecap="round" stroke-linejoin="round"/>
<path d="M258.709 115.241L256.873 109.803C256.873 109.803 249.175 106.605 251.564 98.7089C253.953 90.8125 272.3 83.6775 277.248 83.6775C282.196 83.6775 291.741 90.4427 293.397 98.3391C295.054 106.236 289.543 113.371 289.543 113.371C289.543 113.371 287.154 120.321 285.296 119.951C283.438 119.581 284.553 114.121 282.174 109.803C279.796 105.485 278.32 103.277 275.751 104.365C273.181 105.452 262.542 108.715 261.629 110.184C260.716 111.652 259.081 116.177 258.709 115.241Z" fill="#263238" stroke="#263238" stroke-linecap="round" stroke-linejoin="round"/>
<path d="M295.956 192.672L296.869 197.555L285.498 215.6L288.067 219.733C293.462 216.048 298.39 211.693 302.741 206.768C310.077 198.502 310.81 197.37 310.81 193.988C310.81 190.605 308.251 184.775 308.251 184.775C308.251 184.775 303.112 192.672 295.956 192.672Z" fill="white" stroke="#263238" stroke-linecap="round" stroke-linejoin="round"/>
<path d="M233.759 181.773C233.759 181.773 230.085 190.79 230.828 193.607C231.572 196.424 244.217 212.967 244.217 212.967L246.415 206.768C246.415 206.768 241.648 196.62 241.648 193.237C241.648 189.855 243.304 183.274 243.304 183.274L233.759 181.773Z" stroke="#263238" stroke-linecap="round" stroke-linejoin="round"/>
<path d="M266.237 137.038C266.237 137.038 250.46 143.238 247.518 144.184C244.577 145.13 242.56 145.685 242.38 146.62C242.199 147.556 233.397 170.679 231.762 173.877C230.127 177.075 227.908 180.642 227.908 180.642C230.045 182.011 232.249 183.267 234.512 184.406C236.82 185.439 239.215 186.255 241.668 186.842L242.73 199.818L231.9 248.675C231.9 248.675 253.549 254.875 268 254.32C277.2 253.999 286.297 252.224 294.969 249.056C297.729 248.11 301.944 246.424 301.944 246.424L288.141 193.237L289.203 185.341L289.936 193.052C289.936 193.052 297.273 194.738 301.488 193.607C305.703 192.476 311.044 188.169 311.044 188.169L297.464 144.76L272.151 137.615L266.237 137.038Z" fill="#E4D6FF" stroke="#263238" stroke-linecap="round" stroke-linejoin="round"/>
<path d="M284.064 140.921L272.289 137.604L266.237 137.038L260.791 139.213C260.684 142.172 260.546 147.208 260.546 153.244C260.546 163.033 261.608 171.669 264.401 169.972C267.193 168.276 280.327 150.057 282.557 144.956C283.159 143.653 283.663 142.304 284.064 140.921Z" fill="#E4D6FF" stroke="#263238" stroke-linecap="round" stroke-linejoin="round"/>
<path d="M289.352 185.341C288.98 184.971 287.334 168.798 287.334 168.798" stroke="#263238" stroke-linecap="round" stroke-linejoin="round"/>
<path d="M241.647 186.842C241.647 186.842 240.362 180.457 240.733 178.01C241.105 175.563 243.664 161.097 243.664 161.097" stroke="#263238" stroke-linecap="round" stroke-linejoin="round"/>
<path d="M247.89 213.914C247.89 213.914 239.449 216.731 239.449 217.296C239.449 217.862 239.258 220.483 239.258 220.483L247.89 216.35V213.914Z" stroke="#263238" stroke-linecap="round" stroke-linejoin="round"/>
<path d="M270.272 215.23L269.9 217.666L288.248 222.55L289.161 220.679L270.272 215.23Z" stroke="#263238" stroke-linecap="round" stroke-linejoin="round"/>
<path d="M276.324 177.858C276.074 177.858 275.833 177.756 275.656 177.574C275.479 177.393 275.379 177.147 275.379 176.89C275.379 173.627 276.961 165.752 278.501 158.139C279.722 152.08 280.879 146.348 280.879 144.554C280.927 143.565 280.767 142.577 280.412 141.656C280.057 140.735 279.514 139.902 278.82 139.213C276.622 137.125 272.714 136.277 267.214 136.69C255.737 137.56 254.898 163.881 254.887 164.132C254.882 164.385 254.78 164.625 254.603 164.802C254.427 164.979 254.189 165.078 253.942 165.078C253.818 165.074 253.696 165.044 253.583 164.992C253.47 164.939 253.368 164.864 253.283 164.771C253.199 164.678 253.133 164.569 253.089 164.45C253.045 164.331 253.025 164.204 253.029 164.077C253.029 162.924 253.932 135.798 267.108 134.71C273.16 134.265 277.545 135.276 280.136 137.756C281.019 138.627 281.712 139.678 282.172 140.842C282.631 142.006 282.845 143.256 282.801 144.51C282.801 146.501 281.686 152.059 280.391 158.487C278.936 165.654 277.301 173.779 277.301 176.846C277.307 176.98 277.286 177.113 277.239 177.238C277.192 177.363 277.121 177.476 277.029 177.571C276.937 177.666 276.827 177.741 276.706 177.79C276.585 177.839 276.455 177.862 276.324 177.858Z" fill="#263238" stroke="#263238" stroke-linecap="round" stroke-linejoin="round"/>
<path d="M264.21 131.219C264.21 131.219 264.21 136.657 264.029 137.745C263.849 138.833 264.029 143.575 264.029 149.97C264.029 156.366 265.091 160.673 266.599 159.172C268.106 157.671 277.79 144.325 278.342 141.693C278.666 140.214 278.851 138.706 278.894 137.19L279.626 129.664C279.626 129.664 268.255 133.046 263.477 131.545" fill="white"/>
<path d="M264.21 131.219C264.21 131.219 264.21 136.657 264.029 137.745C263.849 138.833 264.029 143.575 264.029 149.97C264.029 156.366 265.091 160.673 266.599 159.172C268.106 157.671 277.79 144.325 278.342 141.693C278.666 140.214 278.851 138.706 278.894 137.19L279.626 129.664C279.626 129.664 268.255 133.046 263.477 131.545" stroke="#263238" stroke-linecap="round" stroke-linejoin="round"/>
<path d="M283.109 119.94C284.065 126.469 284.31 133.086 283.842 139.67C283.109 151.134 281.782 156.507 278.533 158.16C275.284 159.814 279.478 161.684 284.426 161.869C289.373 162.054 296.721 161.304 298.006 146.272C299.29 131.241 288.651 121.463 287.728 119.581C287.491 119.144 287.137 118.786 286.708 118.549C286.279 118.311 285.792 118.206 285.306 118.243C284.82 118.281 284.354 118.461 283.965 118.762C283.575 119.063 283.278 119.471 283.109 119.94Z" fill="#263238" stroke="#263238" stroke-linecap="round" stroke-linejoin="round"/>
<path d="M247.338 177.292H247.264C247.135 177.284 247.009 177.249 246.894 177.19C246.779 177.13 246.678 177.046 246.596 176.944C246.514 176.841 246.454 176.723 246.419 176.596C246.384 176.469 246.375 176.335 246.393 176.205C246.393 175.672 247.455 163.087 253.942 163.087C260.43 163.087 260.578 175.193 260.578 175.715C260.578 175.972 260.479 176.218 260.302 176.4C260.124 176.581 259.884 176.683 259.633 176.683C259.383 176.683 259.142 176.581 258.965 176.4C258.788 176.218 258.688 175.972 258.688 175.715C258.688 175.606 258.55 165.034 253.953 165.034C250.003 165.034 248.527 173.203 248.294 176.357C248.283 176.609 248.177 176.847 247.999 177.021C247.821 177.195 247.584 177.292 247.338 177.292Z" fill="#263238"/>
<path d="M247.338 175.574C247.338 175.574 247.338 184.971 247.699 186.842C248.06 188.713 252.658 192.672 258.158 195.119" stroke="#263238" stroke-width="2" stroke-linecap="round" stroke-linejoin="round"/>
<path d="M259.262 174.399C259.262 174.399 259.623 183.797 257.797 187.93C255.97 192.063 250.46 193.759 248.071 194.695" stroke="#263238" stroke-width="2" stroke-linecap="round" stroke-linejoin="round"/>
<path d="M260.727 195.489C260.694 195.064 260.506 194.667 260.2 194.378C259.894 194.088 259.493 193.928 259.076 193.928C258.66 193.928 258.259 194.088 257.953 194.378C257.647 194.667 257.459 195.064 257.425 195.489C257.407 195.722 257.436 195.957 257.511 196.179C257.585 196.4 257.704 196.603 257.859 196.775C258.014 196.947 258.202 197.085 258.412 197.179C258.621 197.273 258.848 197.321 259.076 197.321C259.305 197.321 259.531 197.273 259.741 197.179C259.95 197.085 260.138 196.947 260.293 196.775C260.449 196.603 260.567 196.4 260.642 196.179C260.716 195.957 260.746 195.722 260.727 195.489Z" fill="white" stroke="#263238" stroke-linecap="round" stroke-linejoin="round"/>
<path d="M249.356 195.119C249.358 194.783 249.262 194.454 249.082 194.173C248.901 193.893 248.643 193.674 248.341 193.544C248.038 193.414 247.705 193.378 247.383 193.443C247.061 193.507 246.765 193.668 246.532 193.904C246.299 194.141 246.14 194.444 246.076 194.773C246.011 195.103 246.043 195.444 246.168 195.755C246.293 196.066 246.505 196.331 246.778 196.518C247.051 196.705 247.371 196.805 247.699 196.805C248.137 196.805 248.556 196.628 248.867 196.312C249.177 195.996 249.353 195.567 249.356 195.119Z" fill="white" stroke="#263238" stroke-linecap="round" stroke-linejoin="round"/>
<path d="M281.824 180.457C281.826 179.303 281.494 178.175 280.869 177.214C280.245 176.254 279.356 175.505 278.316 175.063C277.275 174.62 276.13 174.504 275.025 174.728C273.92 174.953 272.905 175.508 272.109 176.324C271.312 177.14 270.77 178.18 270.551 179.312C270.331 180.444 270.445 181.617 270.877 182.683C271.309 183.748 272.04 184.659 272.978 185.298C273.915 185.938 275.017 186.279 276.144 186.276C277.649 186.274 279.092 185.66 280.157 184.569C281.222 183.478 281.821 182 281.824 180.457Z" fill="white" stroke="#263238" stroke-linecap="round" stroke-linejoin="round"/>
<path d="M279.255 180.457C279.255 179.824 279.072 179.206 278.729 178.68C278.385 178.153 277.897 177.744 277.326 177.502C276.755 177.26 276.127 177.197 275.521 177.322C274.915 177.446 274.359 177.752 273.923 178.2C273.487 178.648 273.19 179.219 273.071 179.84C272.952 180.461 273.015 181.104 273.253 181.688C273.491 182.273 273.893 182.771 274.407 183.121C274.922 183.471 275.527 183.657 276.144 183.655C276.97 183.652 277.762 183.314 278.345 182.715C278.928 182.115 279.255 181.303 279.255 180.457Z" fill="white" stroke="#263238" stroke-linecap="round" stroke-linejoin="round"/>
<path d="M279.255 100.58C279.255 100.58 263.297 106.964 261.279 108.052C260.411 108.589 259.489 109.031 258.529 109.368C258.529 109.368 259.442 123.649 259.814 127.412C260.186 131.175 266.047 134.743 271.185 134.558C276.324 134.373 280.54 131.545 281.463 129.859C282.387 128.173 284.946 123.094 284.946 123.094C284.946 123.094 290.998 122.006 291.317 116.514C291.635 111.021 289.851 112.163 287.834 113.316C285.817 114.469 284.712 115.198 284.712 115.198C285.105 113.204 284.776 111.132 283.789 109.368C282.196 106.594 279.626 103.212 279.255 100.58Z" fill="white" stroke="#263238" stroke-linecap="round" stroke-linejoin="round"/>
<path d="M266.238 118.058C266.238 118.058 267.703 120.31 268.988 120.125" stroke="#263238" stroke-linecap="round" stroke-linejoin="round"/>
<path d="M265.686 121.441C265.686 121.441 268.797 124.454 274.18 122.007" stroke="#263238" stroke-linecap="round" stroke-linejoin="round"/>
<path d="M273.575 113.545C273.575 113.545 277.333 111.859 279.446 114.861" stroke="#263238" stroke-width="1.5" stroke-linecap="round" stroke-linejoin="round"/>
<path d="M266.238 113.175C266.238 113.175 263.296 111.293 261.099 112.794" stroke="#263238" stroke-width="1.5" stroke-linecap="round" stroke-linejoin="round"/>
<path d="M268.393 112.468C268.395 113.519 268.092 114.546 267.524 115.421C266.955 116.295 266.146 116.977 265.199 117.38C264.252 117.783 263.209 117.889 262.203 117.685C261.197 117.481 260.273 116.975 259.547 116.232C258.822 115.489 258.328 114.542 258.129 113.511C257.929 112.481 258.033 111.413 258.426 110.442C258.82 109.472 259.485 108.643 260.339 108.061C261.193 107.478 262.196 107.169 263.222 107.171C264.592 107.174 265.906 107.733 266.875 108.726C267.844 109.718 268.39 111.064 268.393 112.468Z" stroke="#263238" stroke-linecap="round" stroke-linejoin="round"/>
<path d="M281.294 113.958C281.296 115.008 280.994 116.036 280.426 116.91C279.858 117.784 279.049 118.466 278.103 118.87C277.156 119.273 276.114 119.38 275.108 119.176C274.102 118.972 273.178 118.468 272.453 117.726C271.727 116.984 271.232 116.038 271.031 115.008C270.831 113.979 270.933 112.911 271.325 111.94C271.716 110.97 272.381 110.14 273.233 109.556C274.085 108.973 275.087 108.661 276.113 108.661C277.484 108.664 278.799 109.223 279.77 110.215C280.74 111.207 281.288 112.553 281.294 113.958V113.958Z" stroke="#263238" stroke-linecap="round" stroke-linejoin="round"/>
<path d="M268.393 112.468C268.764 112.339 269.161 112.315 269.544 112.397C269.927 112.479 270.281 112.665 270.57 112.935" stroke="#263238" stroke-linecap="round" stroke-linejoin="round"/>
<path d="M281.474 114.796L286.559 114.056" stroke="#263238" stroke-linecap="round" stroke-linejoin="round"/>
<path d="M65.7661 367.328C64.3597 370.388 62.6293 373.281 60.6059 375.953C57.5375 379.815 56.7624 382.566 60.0963 384.959C63.4302 387.352 69.5035 386.982 72.5614 383.121C75.6193 379.26 80.5458 368.612 80.5458 368.612C80.5458 368.612 69.8008 365.305 65.7661 367.328Z" fill="white" stroke="#263238" stroke-linecap="round" stroke-linejoin="round"/>
<path d="M103.162 369.71C103.162 369.71 108.471 376.878 111.656 380.587C114.841 384.295 120.861 386.09 124.078 385.905C127.296 385.72 131.914 384.622 128.793 378.748C125.671 372.875 119.152 367.176 119.152 367.176C119.152 367.176 112.335 367.176 107.653 366.621C102.971 366.066 102.928 368.611 103.162 369.71Z" fill="white" stroke="#263238" stroke-linecap="round" stroke-linejoin="round"/>
<path d="M68.6964 234.71C68.6964 234.71 66.5729 259.726 67.2949 277.324C68.0169 294.923 64.8529 330.043 63.7911 338.636C62.7293 347.228 64.7573 361.411 64.8529 364.533C64.9484 367.654 65.0546 369.319 65.0546 369.319C65.0546 369.319 66.626 368.231 72.4126 369.319C75.025 369.891 77.6767 370.254 80.344 370.406C82.7313 366.269 84.7055 361.897 86.2367 357.354C87.9674 351.481 86.9906 345.39 86.8526 342.29C86.7145 339.19 86.2155 335.862 86.5553 335.308C86.895 334.753 93.9876 282.23 94.3698 270.657C94.8043 262.812 95.9416 255.024 97.7675 247.392C97.7675 247.392 101.154 263.555 101.42 269.798C101.685 276.041 100.815 326.922 101.25 337.233C101.685 347.544 100.91 350.285 99.7636 352.851C98.6169 355.418 99.031 356.702 99.8379 358.725C100.645 360.748 103.182 369.743 103.182 369.743C103.182 369.743 116.125 370.482 117.877 369.558C119.629 368.633 120.309 367.731 120.277 367.176C120.245 366.621 126.509 353.395 125.915 347.892C125.32 342.388 124.641 343.302 124.035 333.382C123.43 323.463 127.391 239.844 127.38 235.493C127.369 231.142 126.658 239.528 100.263 234.405C73.8672 229.283 69.4503 231.219 68.6964 234.71Z" fill="#E4D6FF" stroke="#263238" stroke-linecap="round" stroke-linejoin="round"/>
<path d="M103.926 362.564C103.926 362.564 112.218 355.212 119.13 353.374L103.926 362.564Z" fill="white"/>
<path d="M103.926 362.564C103.926 362.564 112.218 355.212 119.13 353.374" stroke="#263238" stroke-linecap="round" stroke-linejoin="round"/>
<path d="M70.0659 359.062C70.0659 359.062 80.4287 353.917 83.4229 352.634L70.0659 359.062Z" fill="white"/>
<path d="M70.0659 359.062C70.0659 359.062 80.4287 353.917 83.4229 352.634" stroke="#263238" stroke-linecap="round" stroke-linejoin="round"/>
<path d="M87.4581 98.7961C87.4581 98.7961 84.6763 92.368 82.6165 94.576C80.5566 96.7839 82.1174 99.7097 84.9523 103.201C87.7872 106.692 90.0276 104.485 89.433 103.016C88.8384 101.548 87.4581 98.7961 87.4581 98.7961Z" fill="white" stroke="#263238" stroke-linecap="round" stroke-linejoin="round"/>
<path d="M114.384 95.3046C114.384 95.3046 117.166 89.0614 119.438 92.0416C121.71 95.0218 116.826 102.331 115.626 103.614C114.426 104.898 113.651 95.1632 113.651 95.1632L114.384 95.3046Z" fill="white" stroke="#263238" stroke-linecap="round" stroke-linejoin="round"/>
<path d="M53.991 175.759C53.991 175.759 53.2159 187.147 52.2709 190.083C50.3418 197.004 49.4399 204.184 49.5953 211.38C49.9669 220.005 53.269 238.745 53.3327 244.434C53.3964 250.122 51.6657 251.416 53.5238 252.885C55.3819 254.353 59.3316 258.769 60.765 258.769C62.1984 258.769 64.3856 259.498 64.3325 258.399C64.2794 257.301 63.5787 257.475 62.9735 256.006C62.2008 253.866 61.5694 251.675 61.0835 249.448C61.5196 247.826 62.0479 246.231 62.6656 244.673C62.6656 244.673 63.9397 249.263 64.1839 250.742C64.4281 252.221 66.4242 252.754 66.3074 250.002C66.1906 247.251 66.1375 246.141 66.0101 243.204C65.8827 240.268 63.6211 237.701 62.6656 236.222C61.71 234.742 60.9561 233.84 60.9243 233.285C60.8924 232.73 64.014 213.272 64.1096 206.474C64.2051 199.676 64.3007 194.162 64.7785 192.879C65.2563 191.595 67.6346 180.022 67.6346 180.022L53.991 175.759Z" fill="white" stroke="#263238" stroke-linecap="round" stroke-linejoin="round"/>
<path d="M142.67 176.303C142.67 176.303 143.434 187.756 144.39 190.779C146.296 197.791 147.193 205.049 147.055 212.326C146.683 220.929 143.36 239.365 143.296 245.054C143.232 250.742 144.974 252.178 143.116 253.483C141.257 254.788 137.297 258.834 135.864 258.715C134.43 258.595 132.254 259.117 132.296 258.019C132.339 256.92 133.05 257.17 133.655 255.756C134.44 253.66 135.075 251.508 135.556 249.317C135.116 247.645 134.585 246 133.963 244.39C133.963 244.39 132.689 248.871 132.445 250.318C132.201 251.764 130.215 252.134 130.321 249.393C130.428 246.652 130.481 245.554 130.608 242.628C130.735 239.702 132.997 237.331 133.963 235.95C134.929 234.569 135.673 233.709 135.704 233.166C135.736 232.622 132.615 212.87 132.519 206.061C132.424 199.252 132.339 193.738 131.85 192.411C131.362 191.084 128.994 179.294 128.994 179.294L142.67 176.303Z" fill="white" stroke="#263238" stroke-linecap="round" stroke-linejoin="round"/>
<path d="M93.2019 119.918C93.2019 119.918 83.009 124.878 76.8508 127.63C70.6926 130.382 62.9524 133.688 63.0479 134.983C63.1435 136.277 56.4862 161.978 54.3839 167.308C52.2816 172.637 50.3174 176.857 50.3174 176.857C50.3174 176.857 57.8453 182.013 62.7294 183.101C65.877 183.783 69.0721 184.213 72.2852 184.384L66.4774 237.288C66.4774 237.288 78.1568 242.062 96.4509 242.247C107.802 242.333 119.148 241.719 130.427 240.409C130.427 240.409 132.147 196.903 131.967 192.65C131.842 190.32 131.924 187.983 132.211 185.667C134.998 186.29 137.894 186.166 140.62 185.308C143.018 184.394 145.368 183.353 147.66 182.187C147.66 182.187 138.752 145.816 137.286 140.856C135.821 135.896 136.501 135.167 135.226 134.613C133.952 134.058 119.873 127.815 115.276 125.063C110.679 122.311 108.905 122.3 104.881 121.017C100.857 119.734 95.2724 118.08 93.2019 119.918Z" fill="#E4D6FF" stroke="#263238" stroke-linecap="round" stroke-linejoin="round"/>
<path d="M132.233 185.667L129.96 153.048" stroke="#263238" stroke-linecap="round" stroke-linejoin="round"/>
<path d="M72.71 202.754L92.5968 202.2C92.5968 202.2 91.7155 227.738 91.1103 230.479C90.5051 233.22 86.4704 235.069 81.2572 234.884C76.0439 234.699 72.8905 232.132 72.2959 230.849" stroke="#263238" stroke-linecap="round" stroke-linejoin="round"/>
<path d="M71.5952 206.061L92.565 205.876" stroke="#263238" stroke-linecap="round" stroke-linejoin="round"/>
<path d="M126.806 234.895C124.853 235.449 120.192 235.449 119.172 232.513C118.153 229.576 118.822 203.309 118.822 203.309L129.057 203.668" stroke="#263238" stroke-linecap="round" stroke-linejoin="round"/>
<path d="M118.737 205.506L128.474 206.975" stroke="#263238" stroke-linecap="round" stroke-linejoin="round"/>
<path d="M72.2852 184.384C72.2852 184.384 73.0072 159.226 72.7205 152.614" stroke="#263238" stroke-linecap="round" stroke-linejoin="round"/>
<path d="M90.1655 107.606C90.1655 107.606 91.7157 122.833 91.7794 124.508C91.8431 126.183 93.6587 130.752 95.3788 133.144C97.0988 135.537 101.909 143.249 103.82 141.77C105.731 140.29 111.114 132.035 111.634 127.445C112.155 122.855 112.409 112.022 112.409 112.022C112.409 112.022 105.434 112.392 100.146 110.554C94.8585 108.716 90.1655 107.606 90.1655 107.606Z" fill="white" stroke="#263238" stroke-linecap="round" stroke-linejoin="round"/>
<path d="M82.7334 84.8306L86.6937 97.6975C86.6937 97.6975 88.1802 107.247 90.8559 111.098C93.5315 114.948 102.907 120.473 107.165 119.364C111.422 118.254 116.444 114.219 116.253 109.814C116.062 105.409 115.191 92.5529 115.308 87.5932C115.425 82.6335 114.246 72.5291 111.316 69.7774C108.386 67.0256 98.5749 65.3615 91.5354 68.309C84.4959 71.2566 79.718 76.7492 82.7334 84.8306Z" fill="#263238" stroke="#263238" stroke-linecap="round" stroke-linejoin="round"/>
<path d="M86.9163 98.796C86.9163 98.796 86.5659 98.9809 87.4896 95.3046C88.4134 91.6283 91.1952 89.7902 91.4712 87.9629C91.7473 86.1356 87.9674 85.5701 88.3815 82.8183C88.7956 80.0665 92.4905 78.0434 100.337 77.1189C108.183 76.1944 113.407 80.9801 113.152 83.3621C112.898 85.7441 112.197 86.1248 113.344 87.778C114.49 89.4312 114.979 92.5528 115.064 94.391C115.149 96.2291 116.125 102.831 114.427 104.854C112.728 106.877 111.454 106.507 109.765 104.854C108.077 103.201 107.451 101.004 103.692 101.004C99.9335 101.004 98.7337 102.472 98.0754 103.941C97.4171 105.409 96.78 107.204 94.6353 107.204C92.4905 107.204 90.9616 105.181 89.4327 102.973C88.5009 101.641 87.6602 100.246 86.9163 98.796Z" fill="white" stroke="#263238" stroke-linecap="round" stroke-linejoin="round"/>
<path d="M103.076 89.7903C103.076 89.7903 106.548 99.7097 106.4 100.449C106.251 101.189 104.552 103.386 102.567 103.201C100.581 103.016 99.5938 100.634 99.5938 100.634" stroke="#263238" stroke-linecap="round" stroke-linejoin="round"/>
<path d="M104.053 88.4743C103.958 88.1423 103.938 87.7926 103.993 87.4514C104.049 87.1101 104.179 86.7862 104.374 86.5038C104.569 86.2213 104.824 85.9877 105.12 85.8204C105.415 85.6531 105.744 85.5564 106.081 85.5376C107.191 85.4825 108.299 85.667 109.334 86.0793C110.37 86.4915 111.309 87.1222 112.091 87.9304" stroke="#263238" stroke-width="2" stroke-linecap="round" stroke-linejoin="round"/>
<path d="M98.8295 87.3866C98.3172 86.9964 97.7266 86.7276 97.1004 86.5997C96.4743 86.4718 95.8282 86.4879 95.2089 86.647C93.0854 87.2017 90.5265 90.5082 90.5584 91.0629" stroke="#263238" stroke-width="2" stroke-linecap="round" stroke-linejoin="round"/>
<path d="M98.1398 92.7377C98.1398 93.6514 97.7682 94.391 97.2161 94.391C96.6639 94.391 96.1543 93.6514 96.1543 92.7377C96.1543 91.8241 96.5259 91.0845 97.0674 91.0845C97.6089 91.0845 98.0973 91.8241 98.1398 92.7377Z" fill="#263238"/>
<path d="M108.512 92.183C108.512 93.0967 108.141 93.8363 107.599 93.8363C107.058 93.8363 106.538 93.0967 106.538 92.183C106.538 91.2694 106.909 90.5298 107.451 90.5298C107.992 90.5298 108.47 91.2694 108.512 92.183Z" fill="#263238"/>
<path d="M99.2964 107.247C99.2964 107.247 102.768 108.9 108.045 106.508" stroke="white" stroke-width="2" stroke-linecap="round" stroke-linejoin="round"/>
<path d="M86.5239 123.279C86.5239 123.279 91.8327 142.009 97.5344 154.321C103.236 166.633 107.759 175.258 107.759 175.258C107.759 175.258 116.349 145.685 116.306 136.103C116.264 126.521 116.211 125.455 116.211 125.455" stroke="#263238" stroke-linecap="round" stroke-linejoin="round"/>
<path d="M114.119 193.934H103.172L102.375 175.204H113.312L114.119 193.934Z" fill="white" stroke="#263238" stroke-linecap="round" stroke-linejoin="round"/>
<path d="M194.536 375.409C194.536 375.409 200.27 380.184 204.389 381.468C208.509 382.751 210.664 383.491 209.772 385.514C208.88 387.537 206.003 388.265 197.583 388.45C189.164 388.635 187.539 386.797 184.311 385.873C181.084 384.948 176.603 385.873 175.17 384.045C173.736 382.218 174.267 379.444 174.267 376.508C174.267 373.571 186.647 372.288 189.875 373.386C191.495 373.887 193.058 374.566 194.536 375.409Z" fill="white" stroke="#263238" stroke-linecap="round" stroke-linejoin="round"/>
<path d="M178.217 379.086C178.217 379.086 183.6 384.959 188.081 387.526C192.561 390.093 195.067 391.942 193.995 393.225C192.922 394.509 189.514 396.162 180.542 395.248C171.57 394.335 169.787 392.301 165.486 389.179C161.186 386.058 159.211 386.427 157.778 384.774C156.345 383.121 156.345 379.445 156.345 379.445L178.217 379.086Z" fill="white" stroke="#263238" stroke-linecap="round" stroke-linejoin="round"/>
<path d="M205.111 243.161C205.111 243.161 201.925 286.874 200.63 294.77C199.335 302.667 198.114 307.083 198.294 312.586C198.475 318.09 200.089 333.893 196.861 343.269C193.633 352.645 193.676 364.021 193.994 367.328C194.313 370.634 195.427 375.039 195.247 375.779C195.066 376.519 189.874 379.445 186.105 380.184C183.736 380.63 181.336 380.874 178.928 380.913C175.28 382.232 171.491 383.098 167.641 383.491C162.258 383.86 154.9 382.207 154.9 382.207C154.9 382.207 154.9 368.611 154.178 359.791C153.456 350.97 150.993 336.841 153.998 326.182C157.002 315.523 156.333 309.867 156.121 306.343C155.909 302.819 156.121 287.059 155.941 286.504C155.76 285.949 154.688 240.039 154.688 240.039C154.688 240.039 174.224 242.976 187.316 241.693C200.407 240.409 203.815 240.409 203.815 240.409C203.815 240.409 206.725 237.103 205.111 243.161Z" fill="#263238" stroke="#263238" stroke-linecap="round" stroke-linejoin="round"/>
<path d="M179.831 378.346C179.821 375.373 179.464 372.412 178.769 369.525C177.707 365.86 177.505 352.819 178.047 347.489C178.588 342.16 181.232 328.76 181.232 321.222C181.232 313.685 181.954 302.123 181.954 302.123" stroke="white" stroke-linecap="round" stroke-linejoin="round"/>
<path d="M216.94 298.077L196.512 297.892C195.62 297.892 195.62 283.937 195.62 283.937L216.94 298.077Z" fill="white" stroke="#263238" stroke-linecap="round" stroke-linejoin="round"/>
<path d="M173.736 245.739C173.736 245.739 194.175 247.022 205.653 244.999L201.703 146.185C201.703 146.185 199.017 141.595 191.839 139.018C184.662 136.44 176.061 140.105 173.014 143.608C169.967 147.11 172.122 245.369 172.122 245.369L173.736 245.739Z" fill="#E4D6FF" stroke="#263238" stroke-linecap="round" stroke-linejoin="round"/>
<path d="M174.628 139.018C174.628 139.018 154.369 149.492 151.322 151.33C148.275 153.168 148.137 159.77 148.137 162.903C148.137 166.035 149.029 305.06 149.029 305.06C156.697 305.573 164.395 304.768 171.803 302.678C179.11 300.719 185.985 297.353 192.062 292.758L188.654 218.003L184.831 152.429C184.831 152.429 182.517 134.243 174.628 139.018Z" fill="white" stroke="#263238" stroke-linecap="round" stroke-linejoin="round"/>
<path d="M180.723 132.22C180.723 132.22 176.062 132.774 174.087 135.483C172.93 137.081 172.079 138.889 171.581 140.812L169.787 157.345L175.881 155.876L172.834 163.218C172.834 163.218 175.881 172.409 179.289 180.12C182.698 187.832 187.72 203.624 187.72 203.624L185.384 154.223C185.384 154.223 185.384 139.899 184.322 136.821C183.26 133.742 182.156 132.22 180.723 132.22Z" fill="white" stroke="#263238" stroke-linecap="round" stroke-linejoin="round"/>
<path d="M192.381 142.324L195.97 292.019L216.94 298.077L213.892 184.025C213.892 184.025 214.434 154.658 212.639 150.59C210.845 146.522 194.717 138.289 193.103 138.506C191.489 138.724 192.381 142.324 192.381 142.324Z" fill="white" stroke="#263238" stroke-linecap="round" stroke-linejoin="round"/>
<path d="M192.381 134.798C193.686 135.124 194.907 135.736 195.96 136.592C197.012 137.448 197.87 138.528 198.475 139.757C200.27 143.793 204.931 156.29 204.931 156.29L199.017 157.018L205.292 161.608L194.175 204.408L192.922 158.084L191.861 138.985C191.861 138.985 190.586 135.896 192.381 134.798Z" fill="white" stroke="#263238" stroke-linecap="round" stroke-linejoin="round"/>
<path d="M179.29 125.977C179.29 125.977 180.012 131.306 178.929 134.243C177.846 137.179 182.337 146.37 184.131 152.059C185.926 157.747 187.72 162.348 188.792 161.793C189.865 161.238 193.634 139.757 193.453 136.995C193.273 134.232 195.067 125.977 195.067 125.977C195.067 125.977 185.204 128.913 179.29 125.977Z" fill="white" stroke="#263238" stroke-linecap="round" stroke-linejoin="round"/>
<path d="M166.697 120.375C172.344 120.375 176.922 115.477 176.922 109.434C176.922 103.391 172.344 98.4917 166.697 98.4917C161.05 98.4917 156.473 103.391 156.473 109.434C156.473 115.477 161.05 120.375 166.697 120.375Z" fill="#263238" stroke="#263238" stroke-linecap="round" stroke-linejoin="round"/>
<path d="M171.942 114.578C171.942 114.578 170.147 109.803 167.992 111.641C165.837 113.479 167.992 117.515 169.606 119.908C171.22 122.3 174.267 121.191 173.917 118.82C173.627 117.255 172.946 115.794 171.942 114.578Z" fill="white" stroke="#263238" stroke-linecap="round" stroke-linejoin="round"/>
<path d="M199.697 111.609C199.697 111.609 200.599 107.019 201.82 110.14C202.361 111.363 202.61 112.7 202.547 114.041C202.484 115.381 202.111 116.688 201.459 117.852C200.398 119.69 200.567 119.505 200.206 117.852C199.924 115.782 199.754 113.698 199.697 111.609Z" fill="white" stroke="#263238" stroke-linecap="round" stroke-linejoin="round"/>
<path d="M169.425 105.736C169.425 105.736 172.834 122.627 174.989 126.673C177.144 130.719 184.311 137.55 190.767 134.754C197.222 131.959 200.811 126.858 200.811 120.615C200.811 114.372 201.703 106.475 200.63 99.6664C200.089 96.5661 198.532 93.7478 196.215 91.6772C193.898 89.6066 190.961 88.4077 187.889 88.2786C182.145 88.0937 173.184 91.4002 171.39 97.2844C170.459 100.027 169.801 102.858 169.425 105.736Z" fill="white" stroke="#263238" stroke-linecap="round" stroke-linejoin="round"/>
<path d="M169.606 111.979C169.606 111.979 179.65 107.932 186.106 102.973C192.561 98.013 194.536 94.3476 194.536 94.3476C194.536 94.3476 197.583 102.788 198.836 105.55C200.089 108.313 201.162 111.424 201.162 111.424C201.162 111.424 203.137 107.932 203.137 100.547C203.137 93.1621 201.162 87.3213 193.581 83.4601C186 79.599 173.683 81.9918 168.098 87.5062C162.514 93.0207 163.618 102.016 165.051 105.507C166.173 107.93 167.717 110.123 169.606 111.979Z" fill="#263238" stroke="#263238" stroke-linecap="round" stroke-linejoin="round"/>
<path d="M191.84 105.181C191.84 105.181 190.778 105.366 190.778 108.672C190.778 111.979 191.84 117.482 191.67 118.222C191.5 118.961 189.547 121.158 188.272 119.875" stroke="#263238" stroke-linecap="round" stroke-linejoin="round"/>
<path d="M183.77 123.181C183.77 123.181 188.431 125.204 194.387 121.528" stroke="#263238" stroke-linecap="round" stroke-linejoin="round"/>
<path d="M192.561 104.789C192.561 104.789 196.341 103.31 198.836 105.529" stroke="#263238" stroke-linecap="round" stroke-linejoin="round"/>
<path d="M186.286 105.55C184.645 105.051 182.912 104.957 181.228 105.277C179.545 105.596 177.96 106.32 176.603 107.389" stroke="#263238" stroke-linecap="round" stroke-linejoin="round"/>
<path d="M183.77 110.869C183.77 111.957 183.335 112.892 182.794 112.892C182.252 112.892 181.806 111.989 181.806 110.869C181.806 109.749 182.241 108.857 182.794 108.857C183.346 108.857 183.77 109.76 183.77 110.869Z" fill="#263238"/>
<path d="M195.449 110.14C195.449 111.228 195.004 112.164 194.462 112.164C193.921 112.164 193.475 111.261 193.475 110.14C193.475 109.02 193.921 108.117 194.462 108.117C195.004 108.117 195.449 109.02 195.449 110.14Z" fill="#263238"/>
<path d="M206.906 184.569L203.72 179.239C202.818 177.771 198.698 178.326 196.723 178.326C195.697 178.435 194.709 178.787 193.838 179.353C192.967 179.919 192.235 180.684 191.701 181.589C190.99 183.057 187.762 185.45 189.015 186.918C190.268 188.386 193.676 187.462 194.218 187.832C194.759 188.202 199.24 191.323 200.854 191.878C201.712 192.201 202.629 192.323 203.54 192.237L206.906 184.569Z" stroke="#263238" stroke-linecap="round" stroke-linejoin="round"/>
<path d="M211.747 149.492C213.551 150.345 215.165 151.566 216.49 153.081C217.816 154.596 218.825 156.373 219.456 158.302C221.431 164.73 228.056 207.529 226.623 211.597C225.189 215.665 221.611 218.754 215.336 216.557C209.061 214.36 199.41 203.875 199.41 203.875L206.938 184.591L212.852 187.712L211.599 170.451" fill="white"/>
<path d="M211.747 149.492C213.551 150.345 215.165 151.566 216.49 153.081C217.816 154.596 218.825 156.373 219.456 158.302C221.431 164.73 228.056 207.529 226.623 211.597C225.189 215.665 221.611 218.754 215.336 216.557C209.061 214.36 199.41 203.875 199.41 203.875L206.938 184.591L212.852 187.712L211.599 170.451" stroke="#263238" stroke-linecap="round" stroke-linejoin="round"/>
<path d="M212.82 187.69C212.82 187.69 222.323 193.39 223.225 195.413" stroke="#263238" stroke-linecap="round" stroke-linejoin="round"/>
<path d="M200.8 161.978H166.197V211.575H200.8V161.978Z" fill="#263238" stroke="#263238" stroke-linecap="round" stroke-linejoin="round"/>
<path d="M181.805 196.511C181.805 196.511 188.431 192.835 190.406 190.812C192.381 188.789 192.742 188.637 193.814 188.637C196.453 188.636 199.089 188.451 201.703 188.082C202.765 187.712 202.244 190.257 201.703 190.834C201.161 191.41 197.764 192.128 197.764 192.128C197.764 192.128 203.497 191.573 203.678 193.411C203.806 193.939 203.79 194.492 203.631 195.01C203.471 195.528 203.175 195.991 202.775 196.348L202.244 196.903C202.244 196.903 202.775 200.753 202.244 202.591C201.714 204.429 200.631 204.984 198.295 205.343C195.177 205.547 192.047 205.365 188.972 204.799C187.178 204.429 181.083 205.713 181.083 205.713L181.805 196.511Z" fill="white" stroke="#263238" stroke-linecap="round" stroke-linejoin="round"/>
<path d="M157.959 148.023C157.959 148.023 147.341 150.405 145.579 151.504C143.816 152.602 137.87 196.326 136.618 203.712C135.365 211.097 147.734 212.532 151.482 214.001C155.23 215.469 182.709 217.634 182.709 217.634L183.07 194.858L164.064 189.898L163.884 158.487" fill="white"/>
<path d="M157.959 148.023C157.959 148.023 147.341 150.405 145.579 151.504C143.816 152.602 137.87 196.326 136.618 203.712C135.365 211.097 147.734 212.532 151.482 214.001C155.23 215.469 182.709 217.634 182.709 217.634L183.07 194.858L164.064 189.898L163.884 158.487" stroke="#263238" stroke-linecap="round" stroke-linejoin="round"/>
<path d="M164.054 189.898C164.054 189.898 157.418 186.777 153.117 188.43C148.817 190.083 145.229 198.534 145.229 198.534" stroke="#263238" stroke-linecap="round" stroke-linejoin="round"/>
<path d="M156.695 187.69C156.695 187.69 150.42 187.321 147.373 188.615C145.499 189.427 143.839 190.683 142.531 192.28" stroke="#263238" stroke-linecap="round" stroke-linejoin="round"/>
<path d="M190.767 160.325H178.578V164.371H190.767V160.325Z" fill="white" stroke="#263238" stroke-linecap="round" stroke-linejoin="round"/>
</svg>
