<svg width="1107" height="545" viewBox="0 0 1107 545" fill="none" xmlns="http://www.w3.org/2000/svg">
<g filter="url(#filter0_f_6099_133118)">
<circle cx="553.5" cy="-8.5" r="453.5" fill="#F6F1FF"/>
</g>
<path d="M929.943 139.97C914.262 141.406 905.253 142.727 899.722 147.092C893.222 152.203 891.682 161.564 889.971 180.286C888.204 160.875 886.607 151.571 879.48 146.575C873.949 142.669 864.996 141.406 850 140.028C865.624 138.592 874.69 137.271 880.164 132.964C886.721 127.795 888.261 118.491 889.971 99.7114C891.568 116.998 892.994 126.244 898.297 131.585C903.599 136.926 912.837 138.42 929.943 139.97Z" fill="#E4D6FF"/>
<path d="M219.943 383.709C204.262 385.145 195.253 386.466 189.722 390.831C183.222 395.942 181.682 405.303 179.971 424.025C178.204 404.614 176.607 395.31 169.48 390.314C163.949 386.408 154.996 385.145 140 383.767C155.624 382.331 164.69 381.01 170.164 376.703C176.721 371.534 178.261 362.23 179.971 343.45C181.568 360.737 182.994 369.983 188.297 375.324C193.599 380.665 202.837 382.159 219.943 383.709Z" fill="#E4D6FF"/>
<defs>
<filter id="filter0_f_6099_133118" x="0" y="-562" width="1107" height="1107" filterUnits="userSpaceOnUse" color-interpolation-filters="sRGB">
<feFlood flood-opacity="0" result="BackgroundImageFix"/>
<feBlend mode="normal" in="SourceGraphic" in2="BackgroundImageFix" result="shape"/>
<feGaussianBlur stdDeviation="50" result="effect1_foregroundBlur_6099_133118"/>
</filter>
</defs>
</svg>
