<svg width="221" height="39" viewBox="0 0 221 39" fill="none" xmlns="http://www.w3.org/2000/svg">
<path d="M11.7956 15.8867V23.9399C11.7956 24.2312 11.7956 24.3732 12.1812 24.3732H31.6857C32.0293 24.3732 32.0787 24.2552 32.0787 23.9528V15.9052L34.4765 17.2916C35.4762 17.8723 36.4686 18.4605 37.4756 19.0357C37.5788 19.0783 37.6659 19.1529 37.7244 19.2486C37.7829 19.3444 37.8097 19.4564 37.801 19.5686V38.5898C37.801 38.8866 37.7461 38.9917 37.4354 38.9917H32.488C32.1627 38.9917 32.0768 38.8995 32.0768 38.5714V30.6048C32.0768 30.2029 31.9726 30.1291 31.598 30.1291H12.2616C11.8961 30.1291 11.7773 30.1974 11.7773 30.5993V38.5271C11.7773 38.8792 11.7151 39.0028 11.335 38.9972H6.42963C6.09883 38.9972 6.02572 38.8977 6.02572 38.5769V19.6054C6.02572 19.421 5.98917 19.2533 6.20848 19.1298C8.07267 18.077 9.88751 17.0003 11.7956 15.8867Z" fill="white"/>
<path d="M43.8239 19.3146L39.7099 16.9178C33.909 13.5611 28.1148 10.1902 22.3273 6.80522C22.2129 6.72278 22.0758 6.67851 21.9352 6.67851C21.7946 6.67851 21.6576 6.72278 21.5432 6.80522C14.4958 10.9289 7.44848 15.0342 0.401121 19.1211C0.296946 19.1837 0.192765 19.2316 0.0831065 19.2888C0.00481882 19.1455 -0.0192031 18.9785 0.0154932 18.8187V13.0848C0.000120828 12.9655 0.0226019 12.8443 0.0797321 12.7386C0.136862 12.633 0.225699 12.5483 0.333494 12.4967C7.43934 8.37789 14.5415 4.24684 21.6401 0.103471C21.7282 0.0363191 21.8357 0 21.9462 0C22.0567 0 22.1641 0.0363191 22.2523 0.103471C29.3192 4.25176 36.4159 8.38772 43.5424 12.5114C43.7014 12.6036 43.8604 12.6719 43.8604 12.9134C43.8239 14.9838 43.8239 17.1262 43.8239 19.3146Z" fill="#0CA9D0"/>
<path d="M63.9741 20.734V36.6624H60.3199V30.1317H53.1469V36.6624H49.4927V20.734H53.1469V27.0143H60.3199V20.734H63.9741Z" fill="white"/>
<path d="M75.3567 36.9354C73.7176 36.9354 72.2363 36.579 70.913 35.866C69.6047 35.153 68.5746 34.1745 67.8227 32.9306C67.0859 31.6715 66.7174 30.2607 66.7174 28.6982C66.7174 27.1357 67.0859 25.7325 67.8227 24.4885C68.5746 23.2294 69.6047 22.2434 70.913 21.5304C72.2363 20.8174 73.7176 20.4609 75.3567 20.4609C76.9958 20.4609 78.4695 20.8174 79.7778 21.5304C81.0861 22.2434 82.1162 23.2294 82.8681 24.4885C83.62 25.7325 83.9959 27.1357 83.9959 28.6982C83.9959 30.2607 83.62 31.6715 82.8681 32.9306C82.1162 34.1745 81.0861 35.153 79.7778 35.866C78.4695 36.579 76.9958 36.9354 75.3567 36.9354ZM75.3567 33.7953C76.289 33.7953 77.1312 33.5829 77.883 33.1581C78.6349 32.7182 79.2214 32.1114 79.6425 31.3378C80.0786 30.5641 80.2966 29.6842 80.2966 28.6982C80.2966 27.7121 80.0786 26.8323 79.6425 26.0586C79.2214 25.285 78.6349 24.6858 77.883 24.261C77.1312 23.8211 76.289 23.6011 75.3567 23.6011C74.4243 23.6011 73.5822 23.8211 72.8303 24.261C72.0784 24.6858 71.4844 25.285 71.0483 26.0586C70.6273 26.8323 70.4167 27.7121 70.4167 28.6982C70.4167 29.6842 70.6273 30.5641 71.0483 31.3378C71.4844 32.1114 72.0784 32.7182 72.8303 33.1581C73.5822 33.5829 74.4243 33.7953 75.3567 33.7953Z" fill="white"/>
<path d="M93.7574 36.9354C91.5017 36.9354 89.7423 36.3059 88.4791 35.0468C87.231 33.7877 86.6069 31.9901 86.6069 29.6539V20.734H90.2611V29.5174C90.2611 32.3693 91.434 33.7953 93.7799 33.7953C94.9228 33.7953 95.795 33.454 96.3965 32.7713C96.9981 32.0735 97.2988 30.9888 97.2988 29.5174V20.734H100.908V29.6539C100.908 31.9901 100.276 33.7877 99.0131 35.0468C97.765 36.3059 96.0131 36.9354 93.7574 36.9354Z" fill="white"/>
<path d="M109.707 36.9354C108.459 36.9354 107.248 36.7686 106.075 36.4348C104.917 36.0859 103.985 35.6384 103.278 35.0923L104.519 32.3162C105.196 32.8168 106 33.2188 106.933 33.5222C107.865 33.8256 108.797 33.9773 109.73 33.9773C110.767 33.9773 111.534 33.8256 112.03 33.5222C112.527 33.2037 112.775 32.7865 112.775 32.2707C112.775 31.8915 112.624 31.5805 112.324 31.3378C112.038 31.0799 111.662 30.8751 111.196 30.7234C110.745 30.5717 110.128 30.4048 109.346 30.2228C108.143 29.9345 107.158 29.6463 106.391 29.3581C105.624 29.0699 104.963 28.6072 104.406 27.97C103.865 27.3329 103.594 26.4834 103.594 25.4215C103.594 24.4961 103.842 23.6618 104.338 22.9185C104.835 22.16 105.579 21.5608 106.572 21.1208C107.579 20.6809 108.805 20.4609 110.248 20.4609C111.256 20.4609 112.241 20.5823 113.203 20.825C114.166 21.0677 115.008 21.4166 115.73 21.8717L114.602 24.6706C113.143 23.8362 111.684 23.4191 110.226 23.4191C109.203 23.4191 108.444 23.5859 107.948 23.9197C107.466 24.2534 107.226 24.6933 107.226 25.2395C107.226 25.7856 107.504 26.1952 108.06 26.4682C108.632 26.7261 109.496 26.984 110.654 27.2419C111.857 27.5301 112.842 27.8183 113.609 28.1066C114.376 28.3948 115.03 28.8499 115.572 29.4719C116.128 30.0938 116.406 30.9358 116.406 31.9976C116.406 32.9078 116.151 33.7422 115.639 34.5007C115.143 35.244 114.391 35.8356 113.384 36.2756C112.376 36.7155 111.151 36.9354 109.707 36.9354Z" fill="white"/>
<path d="M131.129 33.7043V36.6624H118.903V20.734H130.836V23.6921H122.535V27.1509H129.866V30.018H122.535V33.7043H131.129Z" fill="white"/>
<path d="M156.7 20.731L151.354 36.6594H150.136L145.241 22.3693L140.323 36.6594H139.105L133.737 20.731H134.955L139.759 35.0665L144.699 20.731H145.805L150.722 35.0893L155.572 20.731H156.7Z" fill="#0CA9D0"/>
<path d="M166.561 36.7731C165.012 36.7731 163.613 36.4242 162.365 35.7264C161.117 35.0134 160.132 34.0426 159.41 32.8138C158.704 31.585 158.35 30.2122 158.35 28.6952C158.35 27.1782 158.704 25.8053 159.41 24.5765C160.132 23.3478 161.117 22.3845 162.365 21.6867C163.613 20.9737 165.012 20.6172 166.561 20.6172C168.11 20.6172 169.508 20.9661 170.756 21.6639C172.005 22.3617 172.982 23.325 173.689 24.5538C174.411 25.7825 174.771 27.163 174.771 28.6952C174.771 30.2273 174.411 31.6078 173.689 32.8366C172.982 34.0653 172.005 35.0286 170.756 35.7264C169.508 36.4242 168.11 36.7731 166.561 36.7731ZM166.561 35.7037C167.884 35.7037 169.08 35.4003 170.147 34.7935C171.215 34.1867 172.057 33.3523 172.674 32.2904C173.29 31.2134 173.599 30.0149 173.599 28.6952C173.599 27.3754 173.29 26.1845 172.674 25.1227C172.057 24.0456 171.215 23.2037 170.147 22.5969C169.08 21.9901 167.884 21.6867 166.561 21.6867C165.237 21.6867 164.034 21.9901 162.952 22.5969C161.884 23.2037 161.042 24.0456 160.425 25.1227C159.809 26.1845 159.501 27.3754 159.501 28.6952C159.501 30.0149 159.809 31.2134 160.425 32.2904C161.042 33.3523 161.884 34.1867 162.952 34.7935C164.034 35.4003 165.237 35.7037 166.561 35.7037Z" fill="#0CA9D0"/>
<path d="M189.724 36.6594L185.957 31.3347C185.401 31.4106 184.889 31.4485 184.423 31.4485H179.912V36.6594H178.762V20.731H184.423C186.408 20.731 187.965 21.2088 189.093 22.1645C190.22 23.1051 190.784 24.4173 190.784 26.1011C190.784 27.3602 190.461 28.4221 189.814 29.2868C189.183 30.1363 188.273 30.7355 187.085 31.0844L191.032 36.6594H189.724ZM184.423 30.4245C186.108 30.4245 187.393 30.0529 188.281 29.3095C189.168 28.5511 189.611 27.4816 189.611 26.1011C189.611 24.7206 189.168 23.6588 188.281 22.9154C187.393 22.1569 186.108 21.7777 184.423 21.7777H179.912V30.4245H184.423Z" fill="#0CA9D0"/>
<path d="M199.688 28.8089L196.147 32.4725V36.6594H194.996V20.731H196.147V30.9707L206.004 20.731H207.403L200.455 27.967L207.876 36.6594H206.478L199.688 28.8089Z" fill="#0CA9D0"/>
<path d="M214.677 36.7731C213.519 36.7731 212.413 36.5759 211.361 36.1815C210.323 35.7719 209.511 35.2486 208.925 34.6114L209.443 33.7467C210 34.3384 210.744 34.8238 211.676 35.2031C212.624 35.5671 213.616 35.7492 214.654 35.7492C216.158 35.7492 217.293 35.4609 218.06 34.8845C218.827 34.308 219.21 33.5571 219.21 32.6318C219.21 31.9188 219.007 31.3499 218.601 30.9251C218.195 30.5004 217.692 30.1742 217.09 29.9467C216.489 29.7191 215.677 29.484 214.654 29.2413C213.496 28.9531 212.564 28.6724 211.857 28.3994C211.165 28.1263 210.571 27.7091 210.075 27.1478C209.594 26.5714 209.353 25.8053 209.353 24.8496C209.353 24.0759 209.556 23.3705 209.962 22.7334C210.368 22.0811 210.985 21.5653 211.812 21.1861C212.654 20.8068 213.699 20.6172 214.947 20.6172C215.819 20.6172 216.677 20.7461 217.519 21.004C218.361 21.2619 219.09 21.6108 219.707 22.0507L219.278 22.9837C218.647 22.5438 217.947 22.21 217.18 21.9825C216.428 21.7549 215.684 21.6412 214.947 21.6412C213.489 21.6412 212.383 21.937 211.631 22.5286C210.879 23.1202 210.504 23.8863 210.504 24.8268C210.504 25.5398 210.707 26.1087 211.113 26.5335C211.519 26.9582 212.022 27.2844 212.624 27.5119C213.225 27.7395 214.045 27.9822 215.083 28.2401C216.24 28.5283 217.165 28.8089 217.857 29.082C218.549 29.3551 219.135 29.7722 219.616 30.3335C220.113 30.8796 220.361 31.623 220.361 32.5635C220.361 33.3372 220.15 34.0426 219.729 34.6797C219.323 35.3168 218.692 35.825 217.835 36.2043C216.977 36.5835 215.925 36.7731 214.677 36.7731Z" fill="#0CA9D0"/>
</svg>
