<svg width="200" height="36" viewBox="0 0 200 36" fill="none" xmlns="http://www.w3.org/2000/svg">
<path d="M10.6636 14.7344V22.0148C10.6636 22.2782 10.6636 22.4065 11.0122 22.4065H28.6452C28.9558 22.4065 29.0004 22.2998 29.0004 22.0265V14.7511L31.1682 16.0044C32.072 16.5295 32.9691 17.0612 33.8795 17.5812C33.9728 17.6198 34.0515 17.6871 34.1044 17.7737C34.1573 17.8603 34.1815 17.9616 34.1736 18.0629V35.2589C34.1736 35.5273 34.1241 35.6223 33.8432 35.6223H29.3705C29.0764 35.6223 28.9987 35.539 28.9987 35.2423V28.0402C28.9987 27.6768 28.9046 27.6102 28.5659 27.6102H11.0849C10.7545 27.6102 10.6471 27.6718 10.6471 28.0352V35.2023C10.6471 35.5206 10.5909 35.6323 10.2472 35.6273H5.81253C5.51347 35.6273 5.44738 35.5373 5.44738 35.2473V18.0962C5.44738 17.9296 5.41433 17.7779 5.6126 17.6662C7.29791 16.7145 8.93861 15.7411 10.6636 14.7344Z" fill="black"/>
<path d="M39.6188 17.8324L35.8995 15.6656C30.6552 12.631 25.417 9.58351 20.1848 6.52332C20.0814 6.44879 19.9575 6.40877 19.8304 6.40877C19.7033 6.40877 19.5794 6.44879 19.476 6.52332C13.1049 10.2513 6.73376 13.9627 0.362632 17.6574C0.268453 17.7141 0.174268 17.7574 0.075132 17.809C0.00435643 17.6795 -0.0173605 17.5285 0.0140066 17.384V12.2004C0.000109234 12.0925 0.0204331 11.9829 0.0720814 11.8874C0.12373 11.7919 0.204042 11.7153 0.301494 11.6687C6.7255 7.94509 13.1462 4.21043 19.5636 0.464636C19.6433 0.403928 19.7405 0.371094 19.8403 0.371094C19.9402 0.371094 20.0374 0.403928 20.1171 0.464636C26.5059 4.21487 32.9216 7.95397 39.3643 11.682C39.5081 11.7653 39.6518 11.827 39.6518 12.0454C39.6188 13.9172 39.6188 15.8539 39.6188 17.8324Z" fill="#0CA9D0"/>
<path d="M57.8356 19.114V33.514H54.532V27.61H48.0472V33.514H44.7437V19.114H48.0472V24.7918H54.532V19.114H57.8356Z" fill="black"/>
<path d="M68.1259 33.7609C66.644 33.7609 65.3049 33.4386 64.1086 32.794C62.9258 32.1495 61.9946 31.2649 61.3148 30.1403C60.6487 29.002 60.3156 27.7266 60.3156 26.314C60.3156 24.9015 60.6487 23.6329 61.3148 22.5083C61.9946 21.37 62.9258 20.4786 64.1086 19.834C65.3049 19.1895 66.644 18.8672 68.1259 18.8672C69.6077 18.8672 70.94 19.1895 72.1228 19.834C73.3056 20.4786 74.2368 21.37 74.9165 22.5083C75.5963 23.6329 75.9362 24.9015 75.9362 26.314C75.9362 27.7266 75.5963 29.002 74.9165 30.1403C74.2368 31.2649 73.3056 32.1495 72.1228 32.794C70.94 33.4386 69.6077 33.7609 68.1259 33.7609ZM68.1259 30.922C68.9688 30.922 69.7301 30.73 70.4098 30.346C71.0896 29.9483 71.6198 29.3998 72.0004 28.7003C72.3947 28.0009 72.5918 27.2055 72.5918 26.314C72.5918 25.4226 72.3947 24.6272 72.0004 23.9278C71.6198 23.2283 71.0896 22.6866 70.4098 22.3026C69.7301 21.9049 68.9688 21.706 68.1259 21.706C67.283 21.706 66.5217 21.9049 65.8419 22.3026C65.1622 22.6866 64.6252 23.2283 64.2309 23.9278C63.8503 24.6272 63.66 25.4226 63.66 26.314C63.66 27.2055 63.8503 28.0009 64.2309 28.7003C64.6252 29.3998 65.1622 29.9483 65.8419 30.346C66.5217 30.73 67.283 30.922 68.1259 30.922Z" fill="black"/>
<path d="M84.761 33.7609C82.7217 33.7609 81.1311 33.1918 79.9891 32.0535C78.8608 30.9152 78.2966 29.29 78.2966 27.178V19.114H81.6001V27.0546C81.6001 29.6329 82.6605 30.922 84.7814 30.922C85.8146 30.922 86.6031 30.6135 87.1469 29.9963C87.6907 29.3655 87.9626 28.3849 87.9626 27.0546V19.114H91.2253V27.178C91.2253 29.29 90.6544 30.9152 89.5124 32.0535C88.384 33.1918 86.8002 33.7609 84.761 33.7609Z" fill="black"/>
<path d="M99.1801 33.7609C98.0517 33.7609 96.9573 33.61 95.8969 33.3083C94.8501 32.9929 94.0073 32.5883 93.3683 32.0946L94.4899 29.5849C95.1016 30.0375 95.829 30.4009 96.6719 30.6752C97.5147 30.9495 98.3576 31.0866 99.2005 31.0866C100.139 31.0866 100.832 30.9495 101.281 30.6752C101.729 30.3872 101.953 30.01 101.953 29.5438C101.953 29.2009 101.818 28.9198 101.546 28.7003C101.287 28.4672 100.947 28.282 100.526 28.1449C100.118 28.0078 99.5608 27.8569 98.8538 27.6923C97.7662 27.4318 96.8758 27.1712 96.1824 26.9106C95.4891 26.65 94.8909 26.2318 94.3879 25.6558C93.8985 25.0798 93.6538 24.3118 93.6538 23.3518C93.6538 22.5152 93.8781 21.7609 94.3267 21.0889C94.7754 20.4032 95.4483 19.8615 96.3456 19.4638C97.2564 19.066 98.3644 18.8672 99.6695 18.8672C100.58 18.8672 101.471 18.9769 102.341 19.1963C103.211 19.4158 103.972 19.7312 104.625 20.1426L103.605 22.6729C102.287 21.9186 100.968 21.5415 99.6491 21.5415C98.7247 21.5415 98.0381 21.6923 97.5895 21.994C97.1545 22.2958 96.937 22.6935 96.937 23.1872C96.937 23.6809 97.1885 24.0512 97.6915 24.298C98.2081 24.5312 98.9898 24.7643 100.037 24.9975C101.124 25.258 102.015 25.5186 102.708 25.7792C103.401 26.0398 103.993 26.4512 104.482 27.0135C104.985 27.5758 105.237 28.3369 105.237 29.2969C105.237 30.1198 105.006 30.874 104.543 31.5598C104.095 32.2318 103.415 32.7666 102.504 33.1643C101.593 33.562 100.485 33.7609 99.1801 33.7609Z" fill="black"/>
<path d="M118.547 30.8398V33.514H107.494V19.114H118.282V21.7883H110.777V24.9152H117.405V27.5072H110.777V30.8398H118.547Z" fill="black"/>
<path d="M141.664 19.1146L136.831 33.5146H135.73L131.304 20.5957L126.859 33.5146H125.758L120.904 19.1146H122.005L126.349 32.0746L130.815 19.1146H131.814L136.26 32.0951L140.644 19.1146H141.664Z" fill="#0CA9D0"/>
<path d="M150.579 33.6174C149.178 33.6174 147.914 33.302 146.786 32.6711C145.657 32.0266 144.767 31.1489 144.114 30.038C143.475 28.9271 143.156 27.686 143.156 26.3146C143.156 24.9431 143.475 23.702 144.114 22.5911C144.767 21.4803 145.657 20.6094 146.786 19.9786C147.914 19.334 149.178 19.0117 150.579 19.0117C151.979 19.0117 153.243 19.3271 154.372 19.958C155.5 20.5889 156.384 21.4597 157.023 22.5706C157.675 23.6814 158.001 24.9294 158.001 26.3146C158.001 27.6997 157.675 28.9477 157.023 30.0586C156.384 31.1694 155.5 32.0403 154.372 32.6711C153.243 33.302 151.979 33.6174 150.579 33.6174ZM150.579 32.6506C151.775 32.6506 152.856 32.3763 153.821 31.8277C154.786 31.2792 155.548 30.5249 156.105 29.5649C156.662 28.5911 156.941 27.5077 156.941 26.3146C156.941 25.1214 156.662 24.0449 156.105 23.0849C155.548 22.1111 154.786 21.35 153.821 20.8014C152.856 20.2529 151.775 19.9786 150.579 19.9786C149.382 19.9786 148.295 20.2529 147.316 20.8014C146.351 21.35 145.589 22.1111 145.032 23.0849C144.475 24.0449 144.196 25.1214 144.196 26.3146C144.196 27.5077 144.475 28.5911 145.032 29.5649C145.589 30.5249 146.351 31.2792 147.316 31.8277C148.295 32.3763 149.382 32.6506 150.579 32.6506Z" fill="#0CA9D0"/>
<path d="M171.519 33.5146L168.114 28.7009C167.611 28.7694 167.149 28.8037 166.727 28.8037H162.649V33.5146H161.609V19.1146H166.727C168.522 19.1146 169.929 19.5466 170.948 20.4106C171.968 21.2609 172.478 22.4471 172.478 23.9694C172.478 25.1077 172.186 26.0677 171.601 26.8494C171.03 27.6174 170.207 28.1591 169.133 28.4746L172.702 33.5146H171.519ZM166.727 27.878C168.25 27.878 169.412 27.542 170.214 26.87C171.016 26.1843 171.417 25.2174 171.417 23.9694C171.417 22.7214 171.016 21.7614 170.214 21.0894C169.412 20.4037 168.25 20.0609 166.727 20.0609H162.649V27.878H166.727Z" fill="#0CA9D0"/>
<path d="M180.527 26.4174L177.326 29.7294V33.5146H176.286V19.1146H177.326V28.3717L186.237 19.1146H187.501L181.221 25.6563L187.93 33.5146H186.665L180.527 26.4174Z" fill="#0CA9D0"/>
<path d="M194.077 33.6174C193.031 33.6174 192.031 33.4391 191.08 33.0826C190.142 32.7123 189.408 32.2392 188.877 31.6631L189.346 30.8814C189.849 31.4163 190.522 31.8551 191.365 32.198C192.222 32.5271 193.119 32.6917 194.057 32.6917C195.417 32.6917 196.443 32.4311 197.136 31.91C197.83 31.3889 198.176 30.71 198.176 29.8734C198.176 29.2289 197.993 28.7146 197.626 28.3306C197.259 27.9466 196.803 27.6517 196.259 27.446C195.716 27.2403 194.982 27.0277 194.057 26.8083C193.01 26.5477 192.167 26.294 191.528 26.0471C190.903 25.8003 190.366 25.4231 189.917 24.9157C189.482 24.3946 189.265 23.702 189.265 22.838C189.265 22.1386 189.448 21.5009 189.815 20.9249C190.183 20.3351 190.74 19.8689 191.488 19.526C192.249 19.1831 193.194 19.0117 194.322 19.0117C195.111 19.0117 195.886 19.1283 196.647 19.3614C197.408 19.5946 198.068 19.91 198.625 20.3077L198.238 21.1511C197.667 20.7534 197.034 20.4517 196.341 20.246C195.661 20.0403 194.988 19.9374 194.322 19.9374C193.003 19.9374 192.004 20.2049 191.325 20.7397C190.645 21.2746 190.305 21.9671 190.305 22.8174C190.305 23.462 190.488 23.9763 190.855 24.3603C191.223 24.7443 191.678 25.0391 192.222 25.2449C192.766 25.4506 193.506 25.67 194.445 25.9031C195.491 26.1637 196.327 26.4174 196.953 26.6643C197.578 26.9111 198.108 27.2883 198.543 27.7957C198.992 28.2894 199.216 28.9614 199.216 29.8117C199.216 30.5112 199.026 31.1489 198.645 31.7249C198.278 32.3009 197.707 32.7603 196.932 33.1031C196.158 33.446 195.206 33.6174 194.077 33.6174Z" fill="#0CA9D0"/>
</svg>
