<svg width="60" height="60" viewBox="0 0 60 60" fill="none" xmlns="http://www.w3.org/2000/svg">
<circle cx="30" cy="30" r="30" fill="#E4D6FF"/>
<circle cx="30" cy="30" r="25" fill="#C8ADFF"/>
<circle cx="30" cy="30" r="20" fill="white"/>
<path d="M29.5185 37.9432C32.7855 37.9432 35.1222 36.1463 35.1151 33.6605C35.1222 31.8494 33.9716 30.5568 31.8338 30.2869V30.1733C33.4602 29.8821 34.5824 28.7315 34.5753 27.098C34.5824 24.804 32.5724 23 29.5611 23C26.5781 23 24.3338 24.7472 24.2912 27.2614H27.2386C27.2741 26.1534 28.2898 25.4361 29.5469 25.4361C30.7898 25.4361 31.6207 26.1889 31.6136 27.2827C31.6207 28.4261 30.6477 29.2003 29.2486 29.2003H27.892V31.4588H29.2486C30.8963 31.4588 31.9261 32.2827 31.919 33.4545C31.9261 34.6122 30.9318 35.4077 29.5256 35.4077C28.169 35.4077 27.1534 34.6974 27.0966 33.6321H24C24.0497 36.1747 26.3224 37.9432 29.5185 37.9432Z" fill="#6E2FEB"/>
</svg>
