<svg width="60" height="60" viewBox="0 0 60 60" fill="none" xmlns="http://www.w3.org/2000/svg">
<circle cx="30.0011" cy="29.9992" r="20.5714" fill="#F5F0FF"/>
<path d="M20.9999 20.4004C20.8408 20.4004 20.6882 20.4636 20.5756 20.5761C20.4631 20.6886 20.3999 20.8413 20.3999 21.0004V27.0004C20.3996 28.3288 20.8891 29.6108 21.7746 30.601C22.6602 31.5913 23.8797 32.2204 25.1999 32.368V33.6004C25.1999 35.1917 25.832 36.7178 26.9573 37.843C28.0825 38.9682 29.6086 39.6004 31.1999 39.6004C32.7912 39.6004 34.3173 38.9682 35.4425 37.843C36.5678 36.7178 37.1999 35.1917 37.1999 33.6004V32.3404C37.9283 32.1917 38.5756 31.7778 39.0162 31.179C39.4568 30.5802 39.6594 29.8392 39.5847 29.0995C39.51 28.3598 39.1633 27.6742 38.6118 27.1756C38.0603 26.6771 37.3433 26.401 36.5999 26.401C35.8565 26.401 35.1395 26.6771 34.588 27.1756C34.0365 27.6742 33.6898 28.3598 33.6151 29.0995C33.5404 29.8392 33.743 30.5802 34.1836 31.179C34.6242 31.7778 35.2715 32.1917 35.9999 32.3404V33.6004C35.9999 34.8734 35.4942 36.0943 34.594 36.9945C33.6938 37.8947 32.4729 38.4004 31.1999 38.4004C29.9269 38.4004 28.706 37.8947 27.8058 36.9945C26.9056 36.0943 26.3999 34.8734 26.3999 33.6004V32.368C27.7201 32.2204 28.9396 31.5913 29.8252 30.601C30.7107 29.6108 31.2002 28.3288 31.1999 27.0004V21.0004C31.1999 20.8413 31.1367 20.6886 31.0242 20.5761C30.9116 20.4636 30.759 20.4004 30.5999 20.4004H28.1999C28.0408 20.4004 27.8882 20.4636 27.7756 20.5761C27.6631 20.6886 27.5999 20.8413 27.5999 21.0004C27.5999 21.1595 27.6631 21.3121 27.7756 21.4247C27.8882 21.5372 28.0408 21.6004 28.1999 21.6004H29.9999V27.0004C29.9999 28.1143 29.5574 29.1826 28.7697 29.9702C27.9821 30.7579 26.9138 31.2004 25.7999 31.2004C24.686 31.2004 23.6177 30.7579 22.8301 29.9702C22.0424 29.1826 21.5999 28.1143 21.5999 27.0004V21.6004H23.3999C23.559 21.6004 23.7116 21.5372 23.8242 21.4247C23.9367 21.3121 23.9999 21.1595 23.9999 21.0004C23.9999 20.8413 23.9367 20.6886 23.8242 20.5761C23.7116 20.4636 23.559 20.4004 23.3999 20.4004H20.9999ZM36.5999 27.6004C37.0773 27.6004 37.5351 27.79 37.8727 28.1276C38.2103 28.4652 38.3999 28.923 38.3999 29.4004C38.3999 29.8778 38.2103 30.3356 37.8727 30.6732C37.5351 31.0107 37.0773 31.2004 36.5999 31.2004C36.1225 31.2004 35.6647 31.0107 35.3271 30.6732C34.9895 30.3356 34.7999 29.8778 34.7999 29.4004C34.7999 28.923 34.9895 28.4652 35.3271 28.1276C35.6647 27.79 36.1225 27.6004 36.5999 27.6004Z" fill="#8E59F7"/>
<circle cx="30.0004" cy="29.9994" r="25.2143" stroke="#E4D6FF"/>
<circle cx="30" cy="30" r="29.5" stroke="#E4D6FF"/>
</svg>
