<svg width="81" height="80" viewBox="0 0 81 80" fill="none" xmlns="http://www.w3.org/2000/svg">
<circle cx="40.4999" cy="39.9989" r="27.4286" fill="#F5F0FF"/>
<path d="M32.4998 41.1429H46.0541L41.9055 46.1257C41.8095 46.2413 41.7371 46.3746 41.6926 46.5182C41.6481 46.6617 41.6323 46.8126 41.6461 46.9622C41.6739 47.2644 41.8207 47.5432 42.0541 47.7371C42.2875 47.9311 42.5884 48.0245 42.8906 47.9966C43.1928 47.9687 43.4715 47.822 43.6655 47.5886L49.3798 40.7314C49.4182 40.6769 49.4526 40.6196 49.4826 40.56C49.4826 40.5029 49.5398 40.4686 49.5626 40.4114C49.6145 40.2804 49.6416 40.1409 49.6426 40C49.6416 39.8591 49.6145 39.7196 49.5626 39.5886C49.5626 39.5314 49.5055 39.4971 49.4826 39.44C49.4526 39.3804 49.4182 39.3231 49.3798 39.2686L43.6655 32.4114C43.5581 32.2824 43.4235 32.1787 43.2714 32.1076C43.1193 32.0365 42.9534 31.9997 42.7855 32C42.5185 31.9995 42.2597 32.0925 42.0541 32.2629C41.9384 32.3588 41.8427 32.4766 41.7726 32.6096C41.7025 32.7426 41.6593 32.8881 41.6455 33.0377C41.6317 33.1874 41.6475 33.3384 41.6922 33.4819C41.7368 33.6255 41.8093 33.7588 41.9055 33.8743L46.0541 38.8571H32.4998C32.1967 38.8571 31.906 38.9776 31.6917 39.1919C31.4773 39.4062 31.3569 39.6969 31.3569 40C31.3569 40.3031 31.4773 40.5938 31.6917 40.8081C31.906 41.0225 32.1967 41.1429 32.4998 41.1429Z" fill="#6E2FEB"/>
<circle cx="40.5001" cy="40.0006" r="33.7857" stroke="url(#paint0_linear)" stroke-opacity="0.4"/>
<circle cx="40.5" cy="40" r="39.5" stroke="url(#paint1_linear)" stroke-opacity="0.4"/>
<defs>
<linearGradient id="paint0_linear" x1="40.5001" y1="5.71484" x2="40.5001" y2="74.2863" gradientUnits="userSpaceOnUse">
<stop stop-color="#8E59F7"/>
<stop offset="1" stop-color="#597EF7"/>
</linearGradient>
<linearGradient id="paint1_linear" x1="40.5" y1="0" x2="40.5" y2="80" gradientUnits="userSpaceOnUse">
<stop stop-color="#8E59F7"/>
<stop offset="1" stop-color="#597EF7"/>
</linearGradient>
</defs>
</svg>
