<svg width="60" height="60" viewBox="0 0 60 60" fill="none" xmlns="http://www.w3.org/2000/svg">
<circle cx="29.9992" cy="29.9992" r="20.5714" fill="#F5F0FF"/>
<path fill-rule="evenodd" clip-rule="evenodd" d="M25.7128 32.689C25.6971 32.659 25.6817 32.6288 25.6667 32.5985C25.5531 32.3724 25.4133 32.0933 25.177 32.1474C22.282 32.8064 19.2842 34.7092 19.2842 36.7315V39.6405H38.5699V36.7315C38.5699 34.7092 35.572 32.8064 32.677 32.1474C32.4076 32.0858 32.129 32.4565 32.0074 32.6885H25.7128V32.689ZM29.8297 33.7605H25.0661L24.8444 33.3389C23.714 33.6646 22.6147 34.1821 21.7763 34.7939C20.7467 35.5449 20.3556 36.2478 20.3556 36.7315V38.569H37.4985V36.7315C37.4985 36.2478 37.1074 35.5449 36.0778 34.7939C35.2099 34.1612 34.0635 33.6292 32.8929 33.3062L32.654 33.7605H29.8297Z" fill="#8E59F7"/>
<path fill-rule="evenodd" clip-rule="evenodd" d="M24.6413 36.9693C24.9295 36.9693 25.177 36.7335 25.177 36.4255C25.177 36.118 24.9295 35.8818 24.6413 35.8818C24.3531 35.8818 24.1056 36.1175 24.1056 36.4255C24.1056 36.733 24.3531 36.9693 24.6413 36.9693ZM24.6413 38.0326C25.0676 38.0326 25.4763 37.8633 25.7777 37.5619C26.0791 37.2605 26.2485 36.8517 26.2485 36.4255C26.2485 35.9993 26.0791 35.5905 25.7777 35.2891C25.4763 34.9877 25.0676 34.8184 24.6413 34.8184C24.2151 34.8184 23.8063 34.9877 23.5049 35.2891C23.2035 35.5905 23.0342 35.9993 23.0342 36.4255C23.0342 36.8517 23.2035 37.2605 23.5049 37.5619C23.8063 37.8633 24.2151 38.0326 24.6413 38.0326Z" fill="#8E59F7"/>
<path fill-rule="evenodd" clip-rule="evenodd" d="M32.198 35.1146C32.2424 35.0256 32.3108 34.9508 32.3954 34.8985C32.48 34.8462 32.5774 34.8184 32.6769 34.8184H34.8198C34.9192 34.8184 35.0167 34.8462 35.1013 34.8985C35.1859 34.9508 35.2542 35.0256 35.2987 35.1146L35.8344 36.186C35.8719 36.2605 35.8912 36.3425 35.8912 36.4255V37.4969C35.8912 37.639 35.8347 37.7753 35.7343 37.8757C35.6338 37.9762 35.4975 38.0326 35.3555 38.0326H34.284V36.9612H34.8198V36.5519L34.4887 35.8898H33.008L32.6769 36.5519V36.9612H33.2126V38.0326H32.1412C31.9991 38.0326 31.8628 37.9762 31.7624 37.8757C31.6619 37.7753 31.6055 37.639 31.6055 37.4969V36.4255C31.6055 36.3425 31.6248 36.2605 31.6623 36.186L32.198 35.1146Z" fill="#8E59F7"/>
<path fill-rule="evenodd" clip-rule="evenodd" d="M34.4555 35.0531C34.3938 35.2636 34.3055 35.5053 34.1769 35.6767L33.3197 35.0338C33.3192 35.0349 33.3192 35.0349 33.3197 35.0338C33.3224 35.0295 33.3353 35.0081 33.354 34.9626C33.3765 34.9095 33.4012 34.8394 33.4263 34.7536C33.4767 34.5811 33.5217 34.3674 33.5522 34.1445C33.5828 33.9211 33.5967 33.702 33.5897 33.5172C33.5822 33.3179 33.5522 33.2151 33.5372 33.184L34.4951 32.7051C34.614 32.9419 34.651 33.2301 34.6601 33.4765C34.6677 33.7482 34.6523 34.0201 34.614 34.2892C34.5771 34.557 34.5219 34.8238 34.4549 35.0531H34.4555Z" fill="#8E59F7"/>
<path fill-rule="evenodd" clip-rule="evenodd" d="M23.7774 35.0531C23.8385 35.2636 23.9274 35.5053 24.056 35.6767L24.9131 35.0338C24.9131 35.0349 24.9131 35.0349 24.9131 35.0338C24.8999 35.0109 24.8882 34.9871 24.8783 34.9626C24.8503 34.8943 24.8261 34.8246 24.806 34.7536C24.7494 34.5539 24.7074 34.3503 24.6801 34.1445C24.6501 33.9368 24.6375 33.727 24.6426 33.5172C24.6501 33.3179 24.6801 33.2151 24.6956 33.184L23.7367 32.7051C23.6188 32.9419 23.5813 33.2301 23.5722 33.4765C23.5646 33.7482 23.58 34.0201 23.6183 34.2892C23.6552 34.557 23.7104 34.8238 23.7774 35.0531Z" fill="#8E59F7"/>
<path fill-rule="evenodd" clip-rule="evenodd" d="M25.8393 22.2355C25.8313 22.2491 25.8227 22.2623 25.8136 22.2751L25.8125 22.2762L25.8082 22.2816L25.7905 22.3073C25.6784 22.4679 25.5693 22.6306 25.4632 22.7953C25.2489 23.1275 24.9639 23.5935 24.68 24.1293C24.0982 25.2264 23.5695 26.5271 23.5695 27.5664C23.5695 28.048 23.7034 28.3818 23.8823 28.6234C24.0666 28.8709 24.3211 29.0519 24.5997 29.1816C24.732 29.2432 24.8659 29.2919 24.9934 29.33C24.8916 28.8702 24.8149 28.4052 24.7636 27.9371C24.703 27.3618 24.6854 26.7237 24.7936 26.1596C24.9002 25.6068 25.1514 25.0126 25.7268 24.7035C26.4923 24.2926 27.7877 23.743 28.9298 23.3643C29.4993 23.1751 30.0548 23.0203 30.4989 22.9496C30.717 22.9153 30.9409 22.896 31.138 22.9159C31.2923 22.9319 31.6122 22.9903 31.7889 23.2801C33.2247 25.3528 33.2461 27.2519 32.8823 28.6389C32.7773 29.0396 32.6413 29.3953 32.5009 29.6975C32.6193 29.6525 32.7404 29.601 32.8609 29.5432C33.6377 29.1682 34.2838 28.5714 34.2838 27.5664C34.2838 26.376 33.8498 25.056 33.3902 24.0018C33.1452 23.4418 32.8686 22.8961 32.562 22.3673L32.5116 22.2821C32.4546 22.2218 32.3951 22.1639 32.3332 22.1085C32.1256 21.9239 31.901 21.7592 31.6625 21.6168C31.0641 21.2557 30.1614 20.8898 28.9561 20.8898C27.7539 20.8898 26.9675 21.2535 26.4886 21.5943C26.2989 21.7278 26.126 21.8837 25.9738 22.0587C25.9265 22.1136 25.8825 22.1712 25.842 22.2312L25.8393 22.2355ZM32.9429 21.9612L33.3977 21.6773L33.3982 21.6784L33.3998 21.681L33.4047 21.6891L33.4218 21.7175C33.52 21.881 33.6148 22.0466 33.7063 22.2141C33.8884 22.5473 34.13 23.0176 34.3722 23.5737C34.8516 24.6719 35.3552 26.1543 35.3552 27.5664C35.3552 29.1644 34.2757 30.0505 33.3264 30.508C32.9113 30.7046 32.4758 30.8552 32.0279 30.9569C31.8338 31.0018 31.6376 31.0375 31.4402 31.0641L31.4295 31.0646L31.4263 31.0651H31.4252C31.4252 31.0651 31.4241 31.0651 31.3679 30.5326L31.4241 31.0651C31.3175 31.0763 31.21 31.0553 31.1154 31.0047C31.0209 30.9541 30.9437 30.8764 30.8939 30.7815C30.844 30.6866 30.8238 30.5789 30.8358 30.4723C30.8478 30.3658 30.8915 30.2653 30.9613 30.1839L30.9618 30.1834L30.9639 30.1812L30.9789 30.1625C31.0888 30.02 31.1899 29.871 31.2816 29.7162C31.5311 29.2948 31.7209 28.8408 31.8457 28.3673C32.1345 27.2669 32.1468 25.73 30.9693 23.9793C30.9018 23.9793 30.8022 23.9868 30.6666 24.0082C30.3077 24.065 29.817 24.1984 29.2673 24.381C28.1707 24.7453 26.9338 25.2714 26.2336 25.6475C26.0761 25.7321 25.9277 25.9373 25.8463 26.3616C25.7664 26.7757 25.7734 27.2937 25.8291 27.8251C25.8843 28.3501 25.9839 28.8569 26.0702 29.2346C26.1141 29.426 26.1623 29.6164 26.2148 29.8057L26.2234 29.8362L26.2255 29.8432V29.8443C26.2497 29.9253 26.2543 30.0108 26.239 30.094C26.2237 30.1771 26.1889 30.2554 26.1376 30.3226C26.0862 30.3897 26.0197 30.4438 25.9435 30.4803C25.8672 30.5168 25.7834 30.5347 25.6989 30.5326L25.7123 29.9969L25.6984 30.5326H25.6925L25.6829 30.5321C25.6385 30.5304 25.5942 30.5273 25.55 30.523C25.4335 30.5124 25.3175 30.497 25.2023 30.4769C24.8379 30.4153 24.4831 30.3061 24.147 30.1523C23.7559 29.9701 23.3402 29.6905 23.022 29.2614C22.6989 28.8259 22.498 28.2655 22.498 27.5664C22.498 26.2448 23.142 24.7432 23.7334 23.6278C24.0893 22.9591 24.4839 22.3118 24.9152 21.6891L24.9323 21.665L24.9388 21.6548C25.0063 21.5524 25.0802 21.4544 25.16 21.3612C25.369 21.12 25.6064 20.9051 25.8672 20.721C26.5175 20.2582 27.5193 19.8184 28.9561 19.8184C30.3891 19.8184 31.4804 20.256 32.2154 20.6985C32.5823 20.9198 32.8604 21.1416 33.0495 21.3114C33.1527 21.4044 33.2511 21.5028 33.3441 21.606L33.3495 21.6125L33.3522 21.6151L33.3527 21.6162C33.3532 21.6162 33.3538 21.6168 32.9429 21.9612ZM31.0588 23.9862C31.0582 23.9868 31.0534 23.9862 31.0448 23.9835C31.0496 23.9839 31.0543 23.985 31.0588 23.9868V23.9862ZM32.9429 21.9612L33.3532 21.6162C33.3693 21.6355 33.3843 21.6564 33.3977 21.6773L32.9434 21.9612H32.9429Z" fill="#8E59F7"/>
<path fill-rule="evenodd" clip-rule="evenodd" d="M25.9686 29.1133L25.0654 29.7154C25.392 30.3937 25.8915 30.974 26.5136 31.3979C27.1358 31.8218 27.8586 32.0743 28.6093 32.1301C29.3601 32.1859 30.1123 32.0429 30.7902 31.7156C31.4682 31.3883 32.0479 30.8882 32.4711 30.2656H31.3381L31.307 30.016C30.9445 30.415 30.4874 30.7165 29.9779 30.8927C29.4683 31.0689 28.9226 31.1142 28.391 31.0243C27.8594 30.9344 27.3589 30.7122 26.9356 30.3783C26.5123 30.0444 26.1798 29.6094 25.9686 29.1133Z" fill="#8E59F7"/>
<circle cx="30.0004" cy="29.9994" r="25.2143" stroke="#E4D6FF"/>
<circle cx="30" cy="30" r="29.5" stroke="#E4D6FF"/>
</svg>
