<svg width="41" height="40" viewBox="0 0 41 40" fill="none" xmlns="http://www.w3.org/2000/svg">
<path d="M17.6056 20.8274C18.0165 20.8795 18.3919 20.5887 18.444 20.1778C18.4962 19.7668 18.2053 19.3914 17.7944 19.3393L17.6056 20.8274ZM10.2333 20.6667L10.0299 19.9448L9.48333 20.0988V20.6667H10.2333ZM10.2333 18.3333H9.48333V19.1928L10.3349 19.0764L10.2333 18.3333ZM20.4915 18.5C20.9057 18.5046 21.2453 18.1726 21.25 17.7585C21.2546 17.3443 20.9226 17.0047 20.5085 17L20.4915 18.5ZM17.7944 19.3393C14.6361 18.9385 12.8485 19.1507 10.0299 19.9448L10.4367 21.3886C13.0843 20.6426 14.6688 20.4547 17.6056 20.8274L17.7944 19.3393ZM9.48333 20.6667V36H10.9833V20.6667H9.48333ZM9.23333 36.25H7.5V37.75H9.23333V36.25ZM7.25 36V3H5.75V36H7.25ZM7.5 2.75H9.23333V1.25H7.5V2.75ZM9.48333 3V18.3333H10.9833V3H9.48333ZM10.3349 19.0764C14.9035 18.4518 16.9076 18.4595 20.4915 18.5L20.5085 17C16.8854 16.9592 14.8009 16.9519 10.1317 17.5902L10.3349 19.0764ZM9.23333 2.75C9.3714 2.75 9.48333 2.86193 9.48333 3H10.9833C10.9833 2.0335 10.1998 1.25 9.23333 1.25V2.75ZM7.25 3C7.25 2.86193 7.36193 2.75 7.5 2.75V1.25C6.5335 1.25 5.75 2.0335 5.75 3H7.25ZM7.5 36.25C7.36193 36.25 7.25 36.1381 7.25 36H5.75C5.75 36.9665 6.5335 37.75 7.5 37.75V36.25ZM9.48333 36C9.48333 36.1381 9.37141 36.25 9.23333 36.25V37.75C10.1998 37.75 10.9833 36.9665 10.9833 36H9.48333Z" fill="#2E3A59"/>
<path d="M35.1838 18.3651C35.1838 18.3651 35.8953 21.3105 35.1838 23.0239C34.4246 24.8519 33.3096 26.2758 31.3763 27.1002C29.3411 27.9681 27.2397 27.9851 25.665 26.5179C24.5651 25.4932 23.9837 24.4115 24.3961 23.0239C24.6312 22.2328 26.1083 21.9888 25.665 21.2768C25.39 20.8353 24.8914 20.4671 24.3958 20.6945C21.8578 21.8592 20.5886 24.7709 19.954 27.6826C19.3194 30.5943 18.6845 37 18.6845 37H16.7808C16.7808 37 14.6078 25.5862 18.6845 20.1122C20.2665 17.9879 23.7612 15.4534 23.7612 15.4534C23.7612 15.4534 21.3345 16.5907 19.9537 16.0358C18.2249 15.341 18.0499 11.9594 18.0499 11.9594M34.5495 14.8711C32.9264 11.337 31.5562 9.58278 28.2036 6.71834M26.2999 16.0358C27.5145 14.7081 28.3231 14.309 30.1074 14.2888M26.2999 18.3651C28.2613 19.2535 29.3862 19.3696 31.3766 18.9475M19.954 7.88302C18.8182 8.39125 20.2506 10.0108 19.3194 10.7947C18.5665 11.4286 17.7544 11.6625 16.7811 11.3771C15.2881 10.9392 15.5119 7.88302 15.5119 7.88302C15.5119 7.88302 15.6032 5.06071 16.7811 3.80664C18.0133 2.49476 18.6841 2.26152 20.5878 2.05797C22.4916 1.85443 25.2455 2.12994 26.9345 3.80664C27.9577 4.82247 28.6563 6.34246 27.569 7.30068C27.0037 7.79891 26.4448 7.95566 25.665 7.88302C24.776 7.80021 24.6374 6.55746 23.7612 6.71834C22.8851 6.87921 23.3096 8.13392 22.4924 8.46536C21.5578 8.8444 20.8724 7.47206 19.954 7.88302Z" stroke="#6E2FEB" stroke-width="1.5" stroke-linecap="round"/>
</svg>
