<svg width="41" height="40" viewBox="0 0 41 40" fill="none" xmlns="http://www.w3.org/2000/svg">
<path fill-rule="evenodd" clip-rule="evenodd" d="M28.5079 13.0955C27.4275 12.4933 26.269 12.1928 25.2667 12.3194C24.8858 12.3676 24.4792 12.4907 24.1542 12.6101C23.9948 12.6687 23.8616 12.7239 23.7691 12.764C23.7229 12.7841 23.6872 12.8002 23.6638 12.811L23.6382 12.8229L23.6329 12.8255C23.6329 12.8254 23.6327 12.8256 23.3519 12.3183C23.0711 11.8111 23.0712 11.811 23.0713 11.811L23.0731 11.8101L23.0763 11.8086L23.087 11.8035C23.0958 11.7993 23.1081 11.7936 23.1237 11.7864C23.1548 11.7721 23.199 11.7521 23.2543 11.7281C23.3648 11.6801 23.5209 11.6154 23.7073 11.547C24.0736 11.4124 24.5835 11.2531 25.103 11.1875C26.4651 11.0153 27.9031 11.4285 29.1337 12.1143C30.3686 12.8026 31.4611 13.8013 32.1304 14.8954C33.287 16.7861 33.9314 18.2769 34.2367 19.8613C34.5399 21.435 34.5012 23.0662 34.3481 25.2123C34.1589 27.8644 33.1096 30.7561 32.0165 32.9204C31.469 34.0044 30.8989 34.9294 30.4006 35.5659C30.1549 35.8798 29.906 36.1506 29.6669 36.3333C29.5488 36.4235 29.4021 36.5166 29.2331 36.5705C29.0574 36.6264 28.8025 36.6544 28.5522 36.5235C28.2578 36.3694 28.1527 36.0214 28.3175 35.7461C28.4355 35.5491 28.6598 35.4428 28.8857 35.4548C28.8882 35.453 28.8908 35.451 28.8934 35.449C29.0147 35.3563 29.1921 35.1755 29.4145 34.8914C29.8522 34.3321 30.3846 33.476 30.9115 32.4328C31.9671 30.3427 32.9534 27.5954 33.1288 25.1363C33.2813 22.9993 33.3087 21.489 33.0341 20.0638C32.7616 18.6494 32.184 17.2841 31.0697 15.4624C30.5168 14.5586 29.584 13.6952 28.5079 13.0955Z" fill="#2E3A59" stroke="#2E3A59" stroke-width="0.5"/>
<path fill-rule="evenodd" clip-rule="evenodd" d="M19.4914 12.1909C20.4104 12.2611 21.2911 12.5729 22.1806 13.064C24.5532 14.3737 25.8461 17.0311 24.7474 19.6079C24.6257 19.8933 24.5097 20.1641 24.399 20.4224C23.0253 23.6276 22.4772 24.9067 22.1837 28.3489C22.0806 29.5583 21.7946 30.5862 21.2618 31.5042C20.7298 32.4208 19.9737 33.1897 18.986 33.9117C17.6789 34.8672 16.2778 35.4481 14.8197 35.5789C13.3581 35.7099 11.8831 35.3846 10.4409 34.5956C9.18812 33.9102 8.23098 33.0594 7.57361 32.0018C6.91684 30.9451 6.58369 29.7213 6.51661 28.3259C6.46767 27.3077 6.51774 26.3772 6.79035 25.5017C7.06635 24.6153 7.55878 23.8219 8.33935 23.059C8.62661 22.7782 8.89134 22.523 9.13775 22.2855C10.0354 21.4203 10.6898 20.7895 11.3034 20.0098C12.0725 19.0327 12.7818 17.8109 13.7508 15.6015C14.3541 14.2259 15.3219 13.3226 16.6945 12.7181C17.6502 12.2972 18.5677 12.1203 19.4914 12.1909ZM19.3896 13.4632C18.7171 13.4118 18.0187 13.5347 17.231 13.8816C16.1324 14.3654 15.4155 15.0452 14.951 16.1043C13.9614 18.3608 13.2017 19.6912 12.3385 20.7879C11.6654 21.6431 10.9314 22.3502 10.0205 23.2276C9.7809 23.4585 9.52902 23.7011 9.26278 23.9613C8.61807 24.5915 8.24707 25.207 8.03962 25.8733C7.82877 26.5504 7.77536 27.3163 7.82101 28.266C7.88014 29.496 8.16916 30.5017 8.68968 31.3392C9.2096 32.1757 9.98488 32.8836 11.0788 33.482C12.3158 34.1588 13.5289 34.4131 14.7004 34.308C15.8754 34.2026 17.0522 33.7316 18.2038 32.8898C19.0903 32.2417 19.7061 31.5979 20.126 30.8745C20.5451 30.1524 20.7912 29.313 20.8824 28.2429C21.1931 24.5977 21.8085 23.1623 23.192 19.9351C23.3036 19.6748 23.4202 19.4028 23.542 19.117C24.3375 17.2514 23.4535 15.2324 21.5384 14.1752C20.7629 13.747 20.0669 13.515 19.3896 13.4632ZM17.4606 16.5633C18.0926 16.1214 18.8182 16.0494 19.6743 16.1789C20.0307 16.2328 20.2748 16.5589 20.2196 16.9071C20.1645 17.2554 19.8309 17.494 19.4745 17.4401C18.8026 17.3384 18.4701 17.4267 18.2205 17.6012C17.9229 17.8092 17.6304 18.2138 17.2193 19.011C17.0571 19.3257 16.6645 19.4523 16.3424 19.2937C16.0204 19.1351 15.8909 18.7514 16.0532 18.4367C16.4641 17.6398 16.8766 16.9717 17.4606 16.5633ZM13.3447 23.3285C13.4473 23.6663 13.2503 24.0215 12.9046 24.1218C12.905 24.1217 12.8768 24.1307 12.82 24.1679C12.7654 24.2035 12.6975 24.2565 12.6194 24.3298C12.4627 24.4768 12.2868 24.6846 12.1163 24.9414C11.7729 25.4584 11.4872 26.1192 11.4039 26.7821C11.3216 27.4368 11.4382 28.0608 11.8497 28.5827C12.2652 29.1095 13.05 29.6193 14.4809 29.9034C14.8343 29.9735 15.0626 30.3104 14.9908 30.6557C14.919 31.0011 14.5743 31.2242 14.2209 31.154C12.592 30.8306 11.4814 30.2062 10.8154 29.3617C10.1455 28.5122 9.99449 27.5278 10.1078 26.6265C10.22 25.7335 10.593 24.8909 11.0209 24.2466C11.236 23.9227 11.4739 23.6354 11.7151 23.4091C11.9438 23.1946 12.225 22.9878 12.5329 22.8985C12.8785 22.7981 13.242 22.9906 13.3447 23.3285Z" fill="#2E3A59" stroke="#2E3A59" stroke-width="0.5" stroke-linejoin="round"/>
<path d="M23.4269 11.1494C24.0686 11.1245 24.539 11.2208 24.776 11.4085C24.8829 11.4932 24.9429 11.5965 24.9555 11.733C24.969 11.8786 24.9299 12.0833 24.7886 12.3612C24.5666 12.7978 24.3044 13.1643 24.0649 13.4991C23.9838 13.6124 23.9054 13.7221 23.8319 13.8296C23.692 14.0346 23.565 14.2403 23.4949 14.4405C23.4836 14.4727 23.4736 14.5054 23.4652 14.5384L20.4172 12.793C20.856 12.5399 21.2253 12.2684 21.556 12.0253C21.6738 11.9387 21.7867 11.8557 21.8961 11.7784C22.4091 11.416 22.852 11.1717 23.4269 11.1494Z" fill="#2E3A59" stroke="#2E3A59" stroke-width="0.5"/>
<path fill-rule="evenodd" clip-rule="evenodd" d="M29.6378 3.06036C29.9472 2.91425 30.3184 3.04251 30.467 3.34683L29.9067 3.61138L29.3465 3.87593C29.198 3.57161 29.3284 3.20646 29.6378 3.06036ZM32.0795 6.84924C32.0647 6.81197 32.0496 6.77499 32.034 6.73832C31.7445 6.05399 31.3517 5.2044 31.0338 4.53058C30.8743 4.19265 30.7328 3.89704 30.6311 3.68584C30.5802 3.58023 30.5393 3.49567 30.511 3.43742L30.467 3.34683L29.9067 3.61138L29.3465 3.87593L29.3893 3.96391C29.4171 4.02122 29.4575 4.10473 29.5078 4.2092C29.6085 4.41819 29.7486 4.71083 29.9064 5.04523C30.223 5.71607 30.607 6.54739 30.8866 7.20808C31.0228 7.5299 31.131 7.90311 31.2138 8.31441C31.4717 9.59555 31.4627 11.1375 31.3822 12.3854C31.3424 13.0039 31.2858 13.5396 31.2392 13.9201C31.2159 14.1101 31.1952 14.261 31.1804 14.3637C31.1731 14.415 31.1672 14.4543 31.1632 14.4803L31.1587 14.5092L31.1576 14.516L31.1574 14.5174C31.1574 14.5174 31.1574 14.5174 31.1574 14.5174C31.1034 14.8507 31.3343 15.1642 31.6732 15.2173C32.0121 15.2705 32.3307 15.0433 32.3847 14.7099L31.771 14.6137C32.3847 14.7099 32.3847 14.71 32.3847 14.7099L32.3854 14.706L32.3868 14.6967L32.3921 14.6627C32.3967 14.6331 32.4031 14.5902 32.411 14.5351C32.4269 14.4248 32.4488 14.2655 32.4732 14.0662C32.5219 13.668 32.581 13.1089 32.6226 12.4627C32.7 11.2615 32.7199 9.72176 32.4839 8.34998L35.3739 4.59132C35.5809 4.32207 35.5268 3.93873 35.2531 3.7351C34.9793 3.53147 34.5896 3.58467 34.3826 3.85392L32.0795 6.84924Z" fill="#2E3A59"/>
<path d="M30.467 3.34683C30.3184 3.04251 29.9472 2.91425 29.6378 3.06036C29.3284 3.20646 29.198 3.57161 29.3465 3.87593M30.467 3.34683L29.9067 3.61138L29.3465 3.87593M30.467 3.34683L30.511 3.43742C30.5393 3.49567 30.5802 3.58023 30.6311 3.68584C30.7328 3.89704 30.8743 4.19265 31.0338 4.53058C31.3517 5.2044 31.7445 6.05399 32.034 6.73832C32.0496 6.77499 32.0647 6.81197 32.0795 6.84924L34.3826 3.85392C34.5896 3.58467 34.9793 3.53147 35.2531 3.7351C35.5268 3.93873 35.5809 4.32207 35.3739 4.59132L32.4839 8.34998C32.7199 9.72176 32.7 11.2615 32.6226 12.4627C32.581 13.1089 32.5219 13.668 32.4732 14.0662C32.4488 14.2655 32.4269 14.4248 32.411 14.5351C32.4031 14.5902 32.3967 14.6331 32.3921 14.6627L32.3868 14.6967L32.3854 14.706L32.3847 14.7099M29.3465 3.87593L29.3893 3.96391C29.4171 4.02122 29.4575 4.10473 29.5078 4.2092C29.6085 4.41819 29.7486 4.71083 29.9064 5.04523C30.223 5.71607 30.607 6.54739 30.8866 7.20807C31.0228 7.5299 31.131 7.90311 31.2138 8.31441C31.4717 9.59555 31.4627 11.1375 31.3822 12.3854C31.3424 13.0039 31.2858 13.5396 31.2392 13.9201C31.2159 14.1101 31.1952 14.261 31.1804 14.3637C31.1731 14.415 31.1672 14.4543 31.1632 14.4803L31.1587 14.5092L31.1576 14.516L31.1574 14.5174M31.1574 14.5174C31.1574 14.5174 31.1574 14.5174 31.1574 14.5174ZM31.1574 14.5174C31.1034 14.8507 31.3343 15.1642 31.6732 15.2173C32.0121 15.2705 32.3307 15.0433 32.3847 14.7099M32.3847 14.7099L31.771 14.6137C32.3847 14.7099 32.3847 14.71 32.3847 14.7099Z" stroke="#2E3A59" stroke-width="0.5"/>
</svg>
