<svg width="41" height="40" viewBox="0 0 41 40" fill="none" xmlns="http://www.w3.org/2000/svg">
<path d="M15.7353 3.3223C15.361 2.91618 14.7284 2.89038 14.3223 3.26466C13.9162 3.63895 13.8904 4.27159 14.2647 4.6777L15.7353 3.3223ZM7.65992 25.2943C7.24497 24.9299 6.61312 24.9708 6.24866 25.3858C5.8842 25.8007 5.92513 26.4325 6.34008 26.797L7.65992 25.2943ZM16.6667 36C16.6667 36.5523 17.1144 37 17.6667 37C18.219 37 18.6667 36.5523 18.6667 36H16.6667ZM35 23.2664C35.5523 23.2664 36 22.8187 36 22.2664C36 21.7141 35.5523 21.2664 35 21.2664V23.2664ZM14.2647 4.6777C21.1545 12.1534 25.6198 15.9435 32.975 22.9886L34.3584 21.5442C26.9344 14.4333 22.569 10.7371 15.7353 3.3223L14.2647 4.6777ZM32.7066 21.9868C30.7802 28.6007 27.2011 31.6245 22.9844 32.0439C18.6383 32.4762 13.2404 30.1958 7.65992 25.2943L6.34008 26.797C12.093 31.8499 18.0283 34.5467 23.1823 34.0341C28.4655 33.5087 32.5531 29.6657 34.6268 22.5461L32.7066 21.9868ZM16.6667 32.2207V36H18.6667V32.2207H16.6667ZM33.6667 23.2664H35V21.2664H33.6667V23.2664Z" fill="#2E3A59"/>
</svg>
