<svg width="60" height="60" viewBox="0 0 60 60" fill="none" xmlns="http://www.w3.org/2000/svg">
<circle cx="30.0011" cy="29.9992" r="20.5714" fill="#F5F0FF"/>
<path d="M29.7137 19.9648C29.2449 19.9648 28.7792 20.1223 28.3779 20.4103L27.1359 21.2773L25.7049 21.4648H25.6817L25.6584 21.4881C25.1891 21.5941 24.7594 21.8309 24.4192 22.1711C24.079 22.5113 23.8422 22.941 23.7362 23.4103L23.7137 23.4336V23.4568L23.5262 24.9103L22.6592 26.0353L22.6352 26.0586V26.0818C22.1109 26.9196 22.0877 28.0011 22.6592 28.8006L23.5494 30.0426L23.7842 31.3326L21.3699 35.0113L20.5967 36.1603H24.1824L25.0494 38.1756L25.5887 39.4648L26.3619 38.2926L28.7289 34.7301C29.3649 34.9911 30.0827 35.0151 30.6984 34.7301L33.0654 38.2926L33.8387 39.4648L34.3779 38.1756L35.2449 36.1603H38.8307L38.0574 35.0113L35.7137 31.4496L35.9012 30.0433L36.7682 28.8013L36.7922 28.7781V28.7548C37.3164 27.9171 37.3397 26.8588 36.7682 26.0593L35.9012 24.8166L35.6199 23.4103H35.6432C35.6402 23.3923 35.6229 23.3803 35.6199 23.3631C35.4849 22.3821 34.7087 21.5856 33.7217 21.4648H33.6977L32.2914 21.2773L31.0494 20.4103C30.6615 20.1262 30.1945 19.9704 29.7137 19.9648ZM29.7137 21.4881C29.8862 21.4881 30.0564 21.5406 30.1824 21.6291L31.5182 22.5898L31.6824 22.7068L31.8699 22.7308L33.5109 22.9648H33.5334C33.8709 23.0023 34.1049 23.2371 34.1432 23.5746V23.6211L34.4484 25.2853L34.4709 25.4496L34.5887 25.5898L35.5494 26.9256C35.7287 27.1746 35.7519 27.5968 35.5262 27.9568L34.4717 29.4336L34.4477 29.6211L34.2137 31.2621V31.2846C34.2012 31.4018 34.1611 31.5144 34.0967 31.6131L34.0494 31.6371V31.6596C33.938 31.7935 33.7781 31.8779 33.6047 31.8943H33.5574L31.8467 32.1996L31.6592 32.2221L31.5182 32.3398L30.1824 33.3006C29.9334 33.4798 29.4879 33.5031 29.1279 33.2773L27.9092 32.3398L27.7682 32.2228L27.5574 32.1988L25.9164 31.9648H25.8939C25.7879 31.9555 25.6856 31.9208 25.5958 31.8636C25.506 31.8064 25.4313 31.7285 25.3779 31.6363C25.3281 31.5498 25.2962 31.4542 25.2842 31.3551V31.3086L24.9797 29.5978L24.9557 29.4103L24.8387 29.2693L23.8779 27.9336C23.6987 27.6846 23.6754 27.2391 23.9012 26.8791L24.8387 25.6603L24.9557 25.5193L24.9789 25.3086L25.1904 23.7381C25.1934 23.7268 25.2107 23.7268 25.2137 23.7148C25.2604 23.5343 25.3546 23.3695 25.4865 23.2377C25.6184 23.1058 25.7831 23.0116 25.9637 22.9648C25.9757 22.9618 25.9757 22.9446 25.9869 22.9416L27.5574 22.7301L27.7449 22.7076L27.9092 22.5898L29.2449 21.6291C29.3709 21.5413 29.5412 21.4881 29.7137 21.4881ZM34.8932 32.9023L36.0422 34.6603H34.2362L34.0487 35.1291L33.5334 36.3238L31.9397 33.8863L32.2907 33.6291L33.7682 33.3711V33.3943C33.7854 33.3913 33.7967 33.3741 33.8147 33.3711C34.2094 33.3141 34.5816 33.1523 34.8924 32.9023H34.8932ZM24.5342 32.9256C24.8598 33.2217 25.269 33.41 25.7057 33.4648H25.7289L27.1592 33.6523L27.4869 33.9103L25.8932 36.3238L25.3779 35.1291L25.1904 34.6603H23.3859L24.5342 32.9256Z" fill="#8E59F7"/>
<circle cx="30.0004" cy="29.9994" r="25.2143" stroke="#E4D6FF"/>
<circle cx="30" cy="30" r="29.5" stroke="#E4D6FF"/>
</svg>
