<svg width="60" height="60" viewBox="0 0 60 60" fill="none" xmlns="http://www.w3.org/2000/svg">
<circle cx="29.9992" cy="29.9992" r="20.5714" fill="#F5F0FF"/>
<path fill-rule="evenodd" clip-rule="evenodd" d="M25.7137 32.69C25.6981 32.66 25.6827 32.6298 25.6677 32.5995C25.5541 32.3734 25.4143 32.0943 25.178 32.1484C22.283 32.8073 19.2852 34.7102 19.2852 36.7325V39.6415H38.5709V36.7325C38.5709 34.7102 35.573 32.8073 32.678 32.1484C32.4086 32.0868 32.13 32.4575 32.0084 32.6895H25.7137V32.69ZM29.8307 33.7614H25.0671L24.8453 33.3398C23.715 33.6656 22.6157 34.1831 21.7773 34.7948C20.7477 35.5459 20.3566 36.2488 20.3566 36.7325V38.57H37.4994V36.7325C37.4994 36.2488 37.1084 35.5459 36.0787 34.7948C35.2109 34.1622 34.0644 33.6302 32.8939 33.3072L32.655 33.7614H29.8307Z" fill="#8E59F7"/>
<path fill-rule="evenodd" clip-rule="evenodd" d="M24.6423 36.9712C24.9305 36.9712 25.178 36.7355 25.178 36.4275C25.178 36.12 24.9305 35.8837 24.6423 35.8837C24.3541 35.8837 24.1066 36.1194 24.1066 36.4275C24.1066 36.735 24.3541 36.9712 24.6423 36.9712ZM24.6423 38.0346C25.0685 38.0346 25.4773 37.8653 25.7787 37.5639C26.0801 37.2625 26.2494 36.8537 26.2494 36.4275C26.2494 36.0012 26.0801 35.5924 25.7787 35.291C25.4773 34.9896 25.0685 34.8203 24.6423 34.8203C24.2161 34.8203 23.8073 34.9896 23.5059 35.291C23.2045 35.5924 23.0352 36.0012 23.0352 36.4275C23.0352 36.8537 23.2045 37.2625 23.5059 37.5639C23.8073 37.8653 24.2161 38.0346 24.6423 38.0346Z" fill="#8E59F7"/>
<path fill-rule="evenodd" clip-rule="evenodd" d="M32.1992 35.1166C32.2436 35.0276 32.312 34.9528 32.3966 34.9004C32.4812 34.8481 32.5787 34.8204 32.6781 34.8203H34.821C34.9204 34.8204 35.0179 34.8481 35.1025 34.9004C35.1871 34.9528 35.2554 35.0276 35.2999 35.1166L35.8356 36.188C35.8731 36.2625 35.8924 36.3444 35.8924 36.4275V37.4989C35.8924 37.641 35.836 37.7772 35.7355 37.8777C35.635 37.9782 35.4988 38.0346 35.3567 38.0346H34.2853V36.9632H34.821V36.5539L34.4899 35.8917H33.0092L32.6781 36.5539V36.9632H33.2138V38.0346H32.1424C32.0003 38.0346 31.8641 37.9782 31.7636 37.8777C31.6631 37.7772 31.6067 37.641 31.6067 37.4989V36.4275C31.6067 36.3444 31.626 36.2625 31.6635 36.188L32.1992 35.1166Z" fill="#8E59F7"/>
<path fill-rule="evenodd" clip-rule="evenodd" d="M34.4567 35.0541C34.3951 35.2646 34.3067 35.5062 34.1781 35.6777L33.321 35.0348C33.3204 35.0359 33.3204 35.0359 33.321 35.0348C33.3236 35.0305 33.3365 35.0091 33.3552 34.9636C33.3777 34.9105 33.4024 34.8403 33.4276 34.7546C33.4779 34.5821 33.5229 34.3684 33.5535 34.1455C33.584 33.9221 33.5979 33.703 33.591 33.5182C33.5835 33.3189 33.5535 33.2161 33.5385 33.185L34.4963 32.7061C34.6152 32.9428 34.6522 33.2311 34.6613 33.4775C34.6689 33.7492 34.6535 34.0211 34.6152 34.2902C34.5783 34.558 34.5231 34.8248 34.4561 35.0541H34.4567Z" fill="#8E59F7"/>
<path fill-rule="evenodd" clip-rule="evenodd" d="M23.7788 35.0541C23.8399 35.2646 23.9288 35.5062 24.0574 35.6777L24.9146 35.0348C24.9146 35.0359 24.9146 35.0359 24.9146 35.0348C24.9013 35.0119 24.8897 34.9881 24.8797 34.9636C24.8517 34.8953 24.8276 34.8256 24.8074 34.7546C24.7509 34.5549 24.7088 34.3513 24.6815 34.1455C24.6515 33.9378 24.639 33.728 24.644 33.5182C24.6515 33.3189 24.6815 33.2161 24.6971 33.185L23.7381 32.7061C23.6203 32.9428 23.5828 33.2311 23.5737 33.4775C23.5661 33.7492 23.5815 34.0211 23.6197 34.2902C23.6567 34.558 23.7119 34.8248 23.7788 35.0541Z" fill="#8E59F7"/>
<path fill-rule="evenodd" clip-rule="evenodd" d="M25.8408 22.2375C25.8328 22.251 25.8242 22.2643 25.815 22.2771L25.814 22.2782L25.8097 22.2835L25.792 22.3092C25.6799 22.4699 25.5708 22.6326 25.4647 22.7973C25.2504 23.1294 24.9654 23.5955 24.6815 24.1312C24.0997 25.2283 23.5709 26.5291 23.5709 27.5683C23.5709 28.05 23.7049 28.3837 23.8838 28.6253C24.0681 28.8728 24.3225 29.0539 24.6011 29.1835C24.7334 29.2451 24.8674 29.2939 24.9949 29.3319C24.8931 28.8721 24.8164 28.4072 24.765 27.9391C24.7045 27.3637 24.6868 26.7257 24.795 26.1616C24.9017 25.6087 25.1529 25.0146 25.7283 24.7055C26.4938 24.2946 27.7892 23.745 28.9313 23.3662C29.5008 23.1771 30.0563 23.0223 30.5004 22.9516C30.7184 22.9173 30.9424 22.898 31.1395 22.9178C31.2938 22.9339 31.6136 22.9923 31.7904 23.2821C33.2261 25.3548 33.2475 27.2539 32.8838 28.6408C32.7788 29.0416 32.6427 29.3973 32.5024 29.6994C32.6208 29.6544 32.7418 29.603 32.8624 29.5451C33.6392 29.1701 34.2852 28.5733 34.2852 27.5683C34.2852 26.378 33.8513 25.058 33.3917 24.0037C33.1466 23.4437 32.8701 22.898 32.5634 22.3692L32.5131 22.2841C32.4561 22.2237 32.3966 22.1658 32.3347 22.1105C32.1271 21.9259 31.9025 21.7612 31.664 21.6187C31.0656 21.2576 30.1629 20.8917 28.9575 20.8917C27.7554 20.8917 26.969 21.2555 26.49 21.5962C26.3003 21.7297 26.1275 21.8857 25.9752 22.0607C25.928 22.1156 25.884 22.1732 25.8434 22.2332L25.8408 22.2375ZM32.9443 21.9632L33.3992 21.6792L33.3997 21.6803L33.4013 21.683L33.4061 21.691L33.4233 21.7194C33.5215 21.883 33.6163 22.0486 33.7077 22.216C33.8899 22.5492 34.1315 23.0196 34.3736 23.5757C34.8531 24.6739 35.3567 26.1562 35.3567 27.5683C35.3567 29.1664 34.2772 30.0525 33.3279 30.51C32.9127 30.7066 32.4773 30.8571 32.0293 30.9589C31.8352 31.0037 31.6391 31.0395 31.4417 31.066L31.4309 31.0666L31.4277 31.0671H31.4267C31.4267 31.0671 31.4256 31.0671 31.3693 30.5346L31.4256 31.0671C31.319 31.0783 31.2114 31.0572 31.1169 31.0067C31.0224 30.9561 30.9452 30.8783 30.8953 30.7834C30.8455 30.6885 30.8253 30.5808 30.8373 30.4743C30.8493 30.3678 30.893 30.2673 30.9627 30.1858L30.9633 30.1853L30.9654 30.1832L30.9804 30.1644C31.0903 30.022 31.1914 29.8729 31.2831 29.7182C31.5326 29.2968 31.7224 28.8428 31.8472 28.3692C32.1359 27.2689 32.1483 25.7319 30.9708 23.9812C30.9033 23.9812 30.8036 23.9887 30.6681 24.0101C30.3092 24.0669 29.8184 24.2003 29.2688 24.383C28.1722 24.7473 26.9352 25.2733 26.235 25.6494C26.0775 25.7341 25.9292 25.9392 25.8477 26.3635C25.7679 26.7776 25.7749 27.2957 25.8306 27.8271C25.8858 28.3521 25.9854 28.8589 26.0717 29.2366C26.1156 29.428 26.1638 29.6184 26.2163 29.8076L26.2249 29.8382L26.227 29.8451V29.8462C26.2511 29.9272 26.2557 30.0128 26.2404 30.0959C26.2252 30.1791 26.1904 30.2574 26.1391 30.3245C26.0877 30.3917 26.0212 30.4457 25.9449 30.4822C25.8687 30.5187 25.7849 30.5367 25.7004 30.5346L25.7138 29.9989L25.6999 30.5346H25.694L25.6843 30.5341C25.64 30.5323 25.5957 30.5293 25.5515 30.525C25.435 30.5143 25.319 30.499 25.2038 30.4789C24.8393 30.4172 24.4845 30.3081 24.1484 30.1542C23.7574 29.9721 23.3417 29.6925 23.0234 29.2633C22.7004 28.8278 22.4995 28.2675 22.4995 27.5683C22.4995 26.2467 23.1434 24.7451 23.7349 23.6298C24.0908 22.9611 24.4854 22.3137 24.9167 21.691L24.9338 21.6669L24.9402 21.6567C25.0078 21.5544 25.0817 21.4563 25.1615 21.3632C25.3704 21.122 25.6079 20.907 25.8686 20.723C26.519 20.2601 27.5208 19.8203 28.9575 19.8203C30.3906 19.8203 31.4818 20.258 32.2168 20.7005C32.5838 20.9217 32.8618 21.1435 33.0509 21.3133C33.1542 21.4064 33.2525 21.5047 33.3456 21.608L33.3509 21.6144L33.3536 21.6171L33.3542 21.6182C33.3547 21.6182 33.3552 21.6187 32.9443 21.9632ZM31.0602 23.9882C31.0597 23.9887 31.0549 23.9882 31.0463 23.9855C31.0511 23.9859 31.0558 23.9869 31.0602 23.9887V23.9882ZM32.9443 21.9632L33.3547 21.6182C33.3708 21.6375 33.3858 21.6583 33.3992 21.6792L32.9449 21.9632H32.9443Z" fill="#8E59F7"/>
<path fill-rule="evenodd" clip-rule="evenodd" d="M25.9694 29.1152L25.0662 29.7174C25.3928 30.3957 25.8922 30.976 26.5144 31.3999C27.1365 31.8237 27.8593 32.0763 28.6101 32.1321C29.3608 32.1878 30.113 32.0449 30.7909 31.7176C31.4689 31.3903 32.0486 30.8901 32.4719 30.2676H31.3388L31.3078 30.0179C30.9452 30.417 30.4882 30.7185 29.9786 30.8947C29.4691 31.0709 28.9234 31.1161 28.3918 31.0262C27.8601 30.9363 27.3597 30.7142 26.9364 30.3803C26.5131 30.0463 26.1805 29.6113 25.9694 29.1152Z" fill="#8E59F7"/>
<circle cx="30.0004" cy="30.0004" r="25.2143" stroke="#E4D6FF"/>
<circle cx="30" cy="30" r="29.5" stroke="#E4D6FF"/>
</svg>
