<svg width="60" height="60" viewBox="0 0 60 60" fill="none" xmlns="http://www.w3.org/2000/svg">
<circle cx="30.0011" cy="29.9992" r="20.5714" fill="#F5F0FF"/>
<path d="M35.25 34.4359L30 37.389L24.75 34.4359V31.3158L23.25 30.4824V35.3131L30 39.11L36.75 35.3131V30.4824L35.25 31.3158V34.4359Z" fill="#8E59F7"/>
<path d="M30 20.1562L19.5 25.6007V26.9007L30 32.7339L39 27.7341V31.8761H40.5V25.6007L30 20.1562ZM37.5 26.8515L36 27.6848L30 31.0183L24 27.6848L22.5 26.8515L21.4604 26.2739L30 21.8459L38.5396 26.2739L37.5 26.8515Z" fill="#8E59F7"/>
<circle cx="30.0004" cy="29.9994" r="25.2143" stroke="#E4D6FF"/>
<circle cx="30" cy="30" r="29.5" stroke="#E4D6FF"/>
</svg>
