<svg width="41" height="41" viewBox="0 0 41 41" fill="none" xmlns="http://www.w3.org/2000/svg">
<path d="M5.5 4.5C5.23478 4.5 4.98043 4.60536 4.79289 4.79289C4.60536 4.98043 4.5 5.23478 4.5 5.5V15.5C4.49958 17.7141 5.31532 19.8507 6.79122 21.5011C8.26713 23.1515 10.2996 24.2 12.5 24.446V26.5C12.5 29.1522 13.5536 31.6957 15.4289 33.5711C17.3043 35.4464 19.8478 36.5 22.5 36.5C25.1522 36.5 27.6957 35.4464 29.5711 33.5711C31.4464 31.6957 32.5 29.1522 32.5 26.5V24.4C33.714 24.1522 34.7928 23.4624 35.5272 22.4644C36.2616 21.4664 36.5992 20.2313 36.4747 18.9985C36.3501 17.7657 35.7723 16.623 34.8532 15.7921C33.934 14.9611 32.7391 14.501 31.5 14.501C30.2609 14.501 29.066 14.9611 28.1468 15.7921C27.2277 16.623 26.6499 17.7657 26.5253 18.9985C26.4008 20.2313 26.7384 21.4664 27.4728 22.4644C28.2072 23.4624 29.286 24.1522 30.5 24.4V26.5C30.5 28.6217 29.6571 30.6566 28.1569 32.1569C26.6566 33.6571 24.6217 34.5 22.5 34.5C20.3783 34.5 18.3434 33.6571 16.8431 32.1569C15.3429 30.6566 14.5 28.6217 14.5 26.5V24.446C16.7004 24.2 18.7329 23.1515 20.2088 21.5011C21.6847 19.8507 22.5004 17.7141 22.5 15.5V5.5C22.5 5.23478 22.3946 4.98043 22.2071 4.79289C22.0196 4.60536 21.7652 4.5 21.5 4.5H17.5C17.2348 4.5 16.9804 4.60536 16.7929 4.79289C16.6054 4.98043 16.5 5.23478 16.5 5.5C16.5 5.76522 16.6054 6.01957 16.7929 6.20711C16.9804 6.39464 17.2348 6.5 17.5 6.5H20.5V15.5C20.5 17.3565 19.7625 19.137 18.4497 20.4497C17.137 21.7625 15.3565 22.5 13.5 22.5C11.6435 22.5 9.86301 21.7625 8.55025 20.4497C7.2375 19.137 6.5 17.3565 6.5 15.5V6.5H9.5C9.76522 6.5 10.0196 6.39464 10.2071 6.20711C10.3946 6.01957 10.5 5.76522 10.5 5.5C10.5 5.23478 10.3946 4.98043 10.2071 4.79289C10.0196 4.60536 9.76522 4.5 9.5 4.5H5.5ZM31.5 16.5C32.2957 16.5 33.0587 16.8161 33.6213 17.3787C34.1839 17.9413 34.5 18.7044 34.5 19.5C34.5 20.2956 34.1839 21.0587 33.6213 21.6213C33.0587 22.1839 32.2957 22.5 31.5 22.5C30.7044 22.5 29.9413 22.1839 29.3787 21.6213C28.8161 21.0587 28.5 20.2956 28.5 19.5C28.5 18.7044 28.8161 17.9413 29.3787 17.3787C29.9413 16.8161 30.7044 16.5 31.5 16.5Z" fill="#6E2FEB"/>
</svg>
