<svg width="41" height="40" viewBox="0 0 41 40" fill="none" xmlns="http://www.w3.org/2000/svg">
<path d="M11.1665 13.3333C11.4317 13.3333 11.6861 13.228 11.8736 13.0404C12.0611 12.8529 12.1665 12.5985 12.1665 12.3333V6C12.1665 5.73478 12.2719 5.48043 12.4594 5.29289C12.6469 5.10536 12.9013 5 13.1665 5H27.8332C27.9645 5 28.0945 5.02587 28.2159 5.07612C28.3372 5.12637 28.4474 5.20003 28.5403 5.29289C28.6331 5.38575 28.7068 5.49599 28.757 5.61732C28.8073 5.73864 28.8332 5.86868 28.8332 6V12.3333C28.8332 12.5985 28.9385 12.8529 29.1261 13.0404C29.3136 13.228 29.568 13.3333 29.8332 13.3333H32.8332C32.9645 13.3333 33.0945 13.3592 33.2159 13.4095C33.3372 13.4597 33.4474 13.5334 33.5403 13.6262C33.6331 13.7191 33.7068 13.8293 33.757 13.9506C33.8073 14.072 33.8332 14.202 33.8332 14.3333V34C33.8332 34.1313 33.8073 34.2614 33.757 34.3827C33.7068 34.504 33.6331 34.6142 33.5403 34.7071C33.4474 34.8 33.3372 34.8736 33.2159 34.9239C33.0945 34.9741 32.9645 35 32.8332 35H8.1665C7.90129 35 7.64693 34.8946 7.4594 34.7071C7.27186 34.5196 7.1665 34.2652 7.1665 34V14.3333C7.1665 14.0681 7.27186 13.8138 7.4594 13.6262C7.64693 13.4387 7.90129 13.3333 8.1665 13.3333H11.1665V13.3333Z" stroke="#2E3A59" stroke-width="2"/>
<path d="M20.4867 13.3333V16.6667M17.1533 13.3333H20.4867H17.1533ZM23.82 13.3333H20.4867H23.82ZM20.4867 13.3333V10V13.3333Z" stroke="#2E3A59" stroke-width="2" stroke-linecap="round" stroke-linejoin="round"/>
<path d="M27.1665 28.3504L27.1832 28.332" stroke="#2E3A59" stroke-width="2" stroke-linecap="round" stroke-linejoin="round"/>
<path d="M27.1665 21.6844L27.1832 21.666" stroke="#2E3A59" stroke-width="2" stroke-linecap="round" stroke-linejoin="round"/>
<path d="M20.5 21.6844L20.5167 21.666" stroke="#2E3A59" stroke-width="2" stroke-linecap="round" stroke-linejoin="round"/>
<path d="M13.833 21.6844L13.8497 21.666" stroke="#2E3A59" stroke-width="2" stroke-linecap="round" stroke-linejoin="round"/>
<path d="M13.833 28.3504L13.8497 28.332" stroke="#2E3A59" stroke-width="2" stroke-linecap="round" stroke-linejoin="round"/>
<path d="M20.5 28.3504L20.5167 28.332" stroke="#2E3A59" stroke-width="2" stroke-linecap="round" stroke-linejoin="round"/>
</svg>
