<svg width="41" height="40" viewBox="0 0 41 40" fill="none" xmlns="http://www.w3.org/2000/svg">
<path fill-rule="evenodd" clip-rule="evenodd" d="M10.9566 25.6282C1.90312 21.8096 5.47612 8.92062 11.7608 6.79103C14.368 5.9076 17.2448 8.83846 17.2264 10.6582C17.2184 11.445 16.8124 12.2122 16.3894 13.0115C15.8341 14.0609 15.2494 15.1656 15.4976 16.4429C15.9351 18.693 16.425 22.4895 15.1626 24.2916C13.9002 26.0938 12.6307 26.3343 10.9566 25.6282ZM11.6043 24.0925C12.2566 24.3676 12.577 24.3495 12.7527 24.299C12.9331 24.247 13.2853 24.0667 13.7976 23.3355C14.1081 22.892 14.3196 21.9562 14.301 20.5574C14.2836 19.244 14.0718 17.8423 13.8616 16.7609C13.5246 15.0273 14.2167 13.5791 14.7106 12.6239C14.7956 12.4593 14.8732 12.3127 14.9447 12.1775C15.1096 11.866 15.2422 11.6155 15.3594 11.347C15.5156 10.989 15.5584 10.777 15.5598 10.6414C15.5602 10.5981 15.531 10.3777 15.3149 10.0149C15.1119 9.6742 14.8037 9.31129 14.4253 9.00295C13.6226 8.34887 12.8459 8.1831 12.2957 8.36954C9.95406 9.16304 7.75261 12.2185 7.25793 15.804C6.78333 19.244 7.95886 22.555 11.6043 24.0925Z" fill="#2E3A59"/>
<path fill-rule="evenodd" clip-rule="evenodd" d="M29.1228 6.79103C35.4076 8.92062 38.9806 21.8096 29.9271 25.6282C28.2529 26.3343 26.9834 26.0938 25.7211 24.2916C24.4587 22.4895 24.9486 18.693 25.386 16.4429C25.6342 15.1656 25.0496 14.0609 24.4942 13.0115C24.0712 12.2122 23.6652 11.445 23.6573 10.6582C23.6389 8.83846 26.5157 5.9076 29.1228 6.79103ZM28.1309 24.299C28.3067 24.3495 28.6271 24.3676 29.2793 24.0925C32.9248 22.555 34.1003 19.244 33.6257 15.804C33.1311 12.2185 30.9296 9.16304 28.588 8.36954C28.0377 8.1831 27.261 8.34887 26.4583 9.00295C26.0799 9.31129 25.7717 9.6742 25.5688 10.0149C25.3527 10.3777 25.3234 10.5981 25.3239 10.6414C25.3252 10.777 25.3681 10.989 25.5243 11.347C25.6415 11.6155 25.7741 11.866 25.9389 12.1775C26.0105 12.3127 26.0881 12.4593 26.1731 12.6239C26.6669 13.5791 27.359 15.0273 27.0221 16.7609C26.8118 17.8423 26.6001 19.244 26.5826 20.5574C26.5641 21.9562 26.7756 22.892 27.0861 23.3355C27.5984 24.0667 27.9506 24.247 28.1309 24.299Z" fill="#2E3A59"/>
<path d="M24.3481 18.9837C24.4052 19.815 24.4057 19.815 24.4062 19.8149L24.4072 19.8148L24.4091 19.8148L24.4123 19.8145L24.4169 19.8141L24.4193 19.8138C24.4179 19.814 24.4108 19.8148 24.3989 19.8168C24.375 19.8206 24.3331 19.8286 24.2794 19.8438C24.1702 19.8748 24.0262 19.9315 23.8852 20.0319C23.6437 20.2038 23.2887 20.5857 23.2887 21.5492V33.6043C23.2887 33.6043 23.2887 33.6044 22.4554 33.6044C21.6221 33.6044 21.6221 33.604 21.6221 33.6039V21.5492C21.6221 20.0773 22.2134 19.1763 22.9183 18.6743C23.2505 18.4378 23.5797 18.3098 23.8252 18.2403C23.9491 18.2052 24.0551 18.184 24.1346 18.1712C24.1744 18.1648 24.2081 18.1604 24.2343 18.1575C24.2475 18.156 24.2589 18.1549 24.2683 18.1541L24.2811 18.153L24.2864 18.1526L24.2887 18.1524L24.2898 18.1523C24.2904 18.1523 24.2909 18.1523 24.3481 18.9837Z" fill="#2E3A59"/>
<path d="M16.5354 18.9837C16.4782 19.815 16.4776 19.815 16.4771 19.8149L16.4762 19.8148L16.4743 19.8148L16.4711 19.8145L16.4665 19.8141C16.4649 19.8139 16.464 19.8138 16.4639 19.8138C16.4653 19.814 16.4726 19.8148 16.4845 19.8168C16.5085 19.8206 16.5504 19.8286 16.604 19.8438C16.7132 19.8748 16.8572 19.9315 16.9983 20.0319C17.2397 20.2038 17.5947 20.5857 17.5947 21.5492V33.6043C17.5947 33.6043 17.5947 33.6044 18.428 33.6044C19.2614 33.6044 19.2614 33.604 19.2614 33.6039V21.5492C19.2614 20.0773 18.67 19.1763 17.965 18.6743C17.633 18.4378 17.3038 18.3098 17.0581 18.2403C16.9344 18.2052 16.8284 18.184 16.7489 18.1712C16.709 18.1648 16.6754 18.1604 16.649 18.1575C16.6359 18.156 16.6245 18.1549 16.615 18.1541L16.6023 18.153L16.597 18.1526L16.5947 18.1524L16.5935 18.1523C16.593 18.1523 16.5925 18.1523 16.5354 18.9837Z" fill="#2E3A59"/>
</svg>
