<svg width="41" height="40" viewBox="0 0 41 40" fill="none" xmlns="http://www.w3.org/2000/svg">
<path d="M17.9922 28.0975L17.9922 28.0974L17.9835 28.1078C17.3527 28.8607 16.8264 29.7214 16.4003 30.6826C16.0156 31.5503 15.7285 32.2817 15.5532 32.8629C15.3141 32.769 15.0146 32.6188 14.6478 32.388C13.9292 31.9358 13.1562 31.2782 12.3314 30.3927C11.503 29.5032 10.7141 28.5091 9.9656 27.4084C9.24472 26.3483 8.64926 25.148 8.18327 23.8018C7.7228 22.4715 7.5 21.2059 7.5 20C7.5 18.6056 7.87342 17.3295 8.62764 16.1501C9.38682 14.9628 10.4215 14.0164 11.754 13.309C13.0794 12.6055 14.5306 12.25 16.125 12.25C16.5215 12.25 16.8151 12.2546 17.0131 12.2628C17.2192 12.2714 17.5238 12.289 17.9315 12.3161C18.3078 12.3412 18.5441 12.3843 18.6747 12.4245C18.8556 12.4802 19.0591 12.5605 19.286 12.6701C19.4112 12.7305 19.4452 12.7802 19.4544 12.7953C19.476 12.8309 19.5 12.8884 19.5 13C19.5 14.1633 19.7754 15.3395 20.2959 16.5204C20.8115 17.6906 21.5039 18.7769 22.3678 19.7782L22.3693 19.7799C22.6625 20.1182 23.0655 20.4846 23.5512 20.8751C24.0048 21.2398 24.362 21.546 24.6286 21.7959C24.6599 21.8253 24.6866 21.8518 24.7091 21.8754C24.7006 21.8942 24.6904 21.9153 24.678 21.9388C24.6045 22.0778 24.4742 22.2634 24.2609 22.4961C23.8055 22.9929 23.2687 23.4765 22.6463 23.9455C21.9594 24.463 21.1679 25.1059 20.2737 25.871C19.3632 26.6501 18.5995 27.3923 17.9922 28.0975ZM15.3717 33.3945C15.3717 33.3945 15.3725 33.3929 15.3742 33.3899C15.3726 33.3931 15.3717 33.3946 15.3717 33.3945ZM27.5 19C27.3496 19 27.0385 18.9224 26.5333 18.5514C26.0442 18.1923 25.5404 17.6872 25.0276 17.0148C24.5549 16.3948 24.1303 15.5659 23.7721 14.4999C23.4249 13.4664 23.25 12.3847 23.25 11.25C23.25 10.9701 23.2592 10.7931 23.2705 10.6969C23.2702 10.6992 23.2719 10.6833 23.2841 10.6468C23.2912 10.6257 23.301 10.5998 23.3144 10.5689C23.4359 10.5335 23.653 10.5 24 10.5C24.9374 10.5 25.9231 10.2825 26.946 9.8853C27.9317 9.50249 28.8074 9.0741 29.5652 8.59549C30.2351 8.17244 30.908 7.78547 31.584 7.43428C32.2644 7.08085 32.6236 7 32.75 7C33.0709 7 33.2268 7.08706 33.3247 7.18212C33.407 7.26211 33.5 7.40717 33.5 7.75C33.5 8.98574 33.3267 10.2101 32.9782 11.4256C32.6228 12.665 32.1833 13.7197 31.6681 14.6006C31.1294 15.5216 30.557 16.3333 29.953 17.0394C29.3391 17.7571 28.7956 18.2637 28.3246 18.5904C27.8003 18.954 27.5478 19 27.5 19Z" stroke="#2E3A59" stroke-width="2"/>
</svg>
