<svg width="41" height="40" viewBox="0 0 41 40" fill="none" xmlns="http://www.w3.org/2000/svg">
<path d="M14.2703 10.832C15.2776 10.832 15.9448 11.1646 16.4236 11.6574C16.9264 12.175 17.2782 12.9302 17.5088 13.8502C17.9082 15.4433 17.8899 17.2699 17.8763 18.6362C17.874 18.8673 17.8718 19.0853 17.8718 19.2867C17.8718 19.9035 17.8991 20.637 17.9281 21.4189C17.9398 21.7331 17.9518 22.0552 17.9623 22.3806C17.9998 23.5324 18.0219 24.759 17.965 25.9538C17.9079 27.1517 17.7725 28.2893 17.506 29.2676C17.2381 30.2512 16.854 31.0131 16.3428 31.523C15.145 32.7175 13.3063 33.6441 11.4507 34.004C9.57643 34.3675 7.87875 34.1211 6.8201 33.2413C6.79902 33.2238 6.72726 33.1477 6.64404 32.9399C6.56328 32.7381 6.49049 32.4591 6.43586 32.0968C6.32653 31.3718 6.30347 30.4073 6.37095 29.2667C6.50556 26.9912 6.9929 24.1324 7.7567 21.3303C8.52195 18.5229 9.55035 15.8256 10.7428 13.8502C11.3394 12.8619 11.9562 12.0894 12.5717 11.5722C13.1845 11.0572 13.7496 10.832 14.2703 10.832Z" stroke="#2E3A59" stroke-width="2"/>
<path d="M26.7294 10.832C25.7221 10.832 25.0548 11.1645 24.5761 11.6574C24.0732 12.175 23.7215 12.9301 23.4908 13.8501C23.0915 15.4433 23.1097 17.2699 23.1233 18.6361C23.1257 18.8673 23.1278 19.0853 23.1278 19.2867C23.1278 19.9035 23.1006 20.6369 23.0716 21.4189C23.0599 21.7331 23.0479 22.0551 23.0373 22.3806C22.9998 23.5324 22.9777 24.759 23.0347 25.9538C23.0917 27.1516 23.2272 28.2892 23.4937 29.2675C23.7616 30.2511 24.1457 31.0131 24.6569 31.5229C25.8547 32.7174 27.6934 33.6441 29.549 34.0039C31.4232 34.3674 33.1209 34.121 34.1796 33.2413C34.2007 33.2238 34.2724 33.1477 34.3557 32.9398C34.4364 32.738 34.5092 32.459 34.5638 32.0967C34.6732 31.3717 34.6962 30.4073 34.6287 29.2666C34.4941 26.9911 34.0067 24.1323 33.243 21.3303C32.4777 18.5229 31.4493 15.8256 30.2568 13.8501C29.6602 12.8619 29.0435 12.0894 28.428 11.5722C27.8152 11.0571 27.2501 10.832 26.7294 10.832Z" stroke="#2E3A59" stroke-width="2"/>
<path d="M20.5 5C20.5 5 20.5 14.1667 20.5 17.0833C20.5 20 18 20 18 20" stroke="#2E3A59" stroke-width="2"/>
<path d="M20.5 5C20.5 5 20.5 14.1667 20.5 17.0833C20.5 20 23 20 23 20" stroke="#2E3A59" stroke-width="2"/>
</svg>
