<svg width="40" height="40" viewBox="0 0 40 40" fill="none" xmlns="http://www.w3.org/2000/svg">
<path d="M8.7164 12.9543C8.37189 13.1843 8.27906 13.65 8.50903 13.9945C8.73901 14.339 9.20472 14.4319 9.54923 14.2019L8.7164 12.9543ZM14.344 11.0779L14.1492 10.3537L14.344 11.0779ZM19.0342 10.5779L19.0391 9.82794L19.0342 10.5779ZM25.2876 11.5779L25.2942 12.3279L25.2876 11.5779ZM36.7523 8.0776L37.1129 8.73524L36.7523 8.0776ZM36.7523 12.5781L37.4174 12.9247L36.7523 12.5781ZM29.4566 20.0782L29.8233 20.7324L29.4566 20.0782ZM21.5019 21.8407C21.0947 21.9169 20.8264 22.3087 20.9026 22.7158C20.9787 23.123 21.3705 23.3913 21.7777 23.3151L21.5019 21.8407ZM9.13281 13.5781C9.54923 14.2019 9.54916 14.2019 9.54911 14.202C9.54911 14.202 9.54906 14.202 9.54905 14.202C9.54904 14.202 9.54906 14.202 9.54913 14.202C9.54926 14.2019 9.54956 14.2017 9.55002 14.2014C9.55095 14.2008 9.55253 14.1997 9.55476 14.1982C9.55922 14.1953 9.56625 14.1906 9.57578 14.1844C9.59482 14.1719 9.62381 14.153 9.66198 14.1284C9.73835 14.0793 9.85139 14.0075 9.99516 13.9189C10.283 13.7416 10.6925 13.4979 11.1765 13.2343C12.1541 12.7017 13.3961 12.1096 14.5389 11.8022L14.1492 10.3537C12.8366 10.7067 11.473 11.3647 10.4589 11.9171C9.94697 12.1959 9.51404 12.4535 9.20841 12.6418C9.05546 12.736 8.93401 12.8131 8.85007 12.8671C8.80809 12.8942 8.77547 12.9154 8.75295 12.9302C8.74168 12.9376 8.73295 12.9434 8.72682 12.9474C8.72376 12.9495 8.72136 12.951 8.71961 12.9522C8.71874 12.9528 8.71804 12.9533 8.7175 12.9536C8.71723 12.9538 8.71701 12.9539 8.71682 12.9541C8.71673 12.9541 8.71662 12.9542 8.71658 12.9542C8.71648 12.9543 8.7164 12.9543 9.13281 13.5781ZM14.5389 11.8022C16.2181 11.3505 17.2133 11.3159 19.0292 11.3279L19.0391 9.82794C17.1694 9.81555 16.0189 9.85077 14.1492 10.3537L14.5389 11.8022ZM19.0292 11.3279C20.161 11.3354 21.0217 11.5658 21.9685 11.8171C22.9167 12.0688 23.9466 12.3397 25.2942 12.3279L25.281 10.828C24.153 10.8379 23.2939 10.617 22.3533 10.3673C21.4112 10.1173 20.383 9.83685 19.0391 9.82794L19.0292 11.3279ZM25.2942 12.3279C26.2251 12.3197 28.2654 11.9176 30.4713 11.2941C32.6999 10.6642 35.2174 9.77453 37.1129 8.73524L36.3918 7.41997C34.6394 8.38081 32.2449 9.23406 30.0633 9.85068C27.8589 10.4737 25.9909 10.8217 25.281 10.828L25.2942 12.3279ZM37.1129 8.73524C37.1534 8.71302 37.0191 8.79772 36.8239 8.70922C36.6577 8.63385 36.6349 8.51363 36.6594 8.5804C36.7088 8.71564 36.7434 9.04753 36.707 9.56205C36.6359 10.5641 36.3404 11.7458 36.0872 12.2315L37.4174 12.9247C37.8014 12.188 38.1243 10.7803 38.2032 9.66816C38.2417 9.12559 38.2341 8.51918 38.0681 8.06518C37.9848 7.83732 37.811 7.50973 37.4432 7.34304C37.0466 7.16323 36.6605 7.27264 36.3918 7.41997L37.1129 8.73524ZM36.0872 12.2315C35.0577 14.207 34.2376 15.4662 33.2321 16.4935C32.2258 17.5215 30.9972 18.355 29.0899 19.4239L29.8233 20.7324C31.7701 19.6413 33.147 18.7247 34.304 17.5427C35.4618 16.3599 36.3624 14.9491 37.4174 12.9247L36.0872 12.2315ZM29.0899 19.4239C27.7871 20.1541 25.9094 20.7599 24.3123 21.1875C23.5226 21.399 22.8176 21.5628 22.3103 21.6736C22.0569 21.729 21.8533 21.771 21.7137 21.7991C21.644 21.8132 21.5902 21.8237 21.5543 21.8307C21.5364 21.8341 21.5229 21.8367 21.5141 21.8384C21.5096 21.8392 21.5064 21.8399 21.5044 21.8402C21.5033 21.8404 21.5026 21.8406 21.5022 21.8407C21.502 21.8407 21.5019 21.8407 21.5018 21.8407C21.5018 21.8407 21.5018 21.8407 21.5018 21.8407C21.5018 21.8407 21.5019 21.8407 21.6398 22.5779C21.7777 23.3151 21.7778 23.3151 21.7779 23.3151C21.7779 23.3151 21.7781 23.3151 21.7782 23.315C21.7784 23.315 21.7788 23.3149 21.7792 23.3149C21.78 23.3147 21.7811 23.3145 21.7825 23.3142C21.7853 23.3137 21.7894 23.3129 21.7946 23.3119C21.805 23.31 21.8201 23.3071 21.8397 23.3033C21.879 23.2957 21.9362 23.2844 22.0096 23.2696C22.1565 23.2401 22.3682 23.1964 22.6305 23.139C23.1548 23.0245 23.8831 22.8553 24.7002 22.6365C26.3169 22.2036 28.3477 21.5594 29.8233 20.7324L29.0899 19.4239Z" fill="#2E3A59"/>
<path d="M17.4705 27.5795C17.4705 27.5795 19.0341 26.5797 20.0763 27.0797C21.3946 27.7122 21.1185 30.0797 21.1185 30.5797C21.1185 31.453 22.2997 31.6878 23.2028 31.5795C23.9309 31.4922 25.2875 31.453 25.2875 30.5797C25.2875 28.5797 25.2875 28.0797 24.7664 26.0797C24.4105 24.7137 23.9635 23.7658 22.6819 23.0797C21.9492 22.6874 21.4365 22.5797 20.5974 22.5797C18.5129 22.5797 17.4707 24.0797 15.386 24.5795C14.2013 24.8636 13.4288 24.9162 12.2592 24.5795C10.3296 24.0241 9.45564 22.8346 8.61138 21.0795C7.83911 19.4741 8.09047 18.3479 8.09047 16.5797C8.09047 15.0797 8.61138 14.1538 8.61138 12.5795C8.61138 11.5797 7.51946 11.2946 6.52689 11.0795C5.27138 10.8075 3.60883 10.6798 3.40023 12.0797C2.87883 15.5791 2.58594 17.4567 2.58594 20.4572C2.58594 22.4567 3.10706 23.4567 3.92128 24.5795C5.48501 26.7359 6.63902 28.494 9.13251 29.5791C11.1796 30.4699 17.9916 30.5791 20.5972 27.5791" stroke="#2E3A59" stroke-width="1.5" stroke-linecap="round"/>
<path d="M21.1182 30.0791C22.7498 28.9882 23.6557 29.1173 25.2871 30.0792" stroke="#2E3A59" stroke-linecap="round"/>
<path d="M9.13281 22.0781C9.13281 22.0781 11.5804 19.0263 13.8229 18.0781C16.251 17.0514 18.0679 18.3467 20.5975 17.5781C22.3329 17.0509 23.0523 16.1655 24.7665 15.5781C26.5335 14.9726 27.701 15.2133 29.4566 14.5781C30.734 14.116 33.1045 12.5781 33.1045 12.5781" stroke="#2E3A59" stroke-width="1.5" stroke-linecap="round"/>
</svg>
