<svg width="41" height="40" viewBox="0 0 41 40" fill="none" xmlns="http://www.w3.org/2000/svg">
<path d="M24.8118 1.7255C24.6602 1.34003 24.2249 1.15044 23.8394 1.30204C23.4539 1.45364 23.2643 1.88903 23.4159 2.2745L24.8118 1.7255ZM25.1139 5.5L25.858 5.40601L25.1139 5.5ZM25.1139 8.5L25.8359 8.29694L25.1139 8.5ZM26.6139 11L25.887 11.1848L26.6139 11ZM26.6139 13.5L27.3627 13.5416L26.6139 13.5ZM25.6139 19L25.038 18.5195L25.6139 19ZM20.6139 21L20.408 20.2788L20.6139 21ZM12.6139 22L13.0925 22.5774L12.6139 22ZM10.6138 26L11.3156 26.2646L10.6138 26ZM11.6138 36.5L10.9022 36.737L11.6138 36.5ZM13.6139 37.5L13.7521 38.2372L13.6139 37.5ZM15.1139 35.5L14.4667 35.121L15.1139 35.5ZM16.6139 29.5L15.8663 29.4402L16.6139 29.5ZM16.6139 26.5L15.9643 26.1252L16.6139 26.5ZM19.1139 25L18.8026 24.3176L19.1139 25ZM26.6139 24L27.0469 24.6124L26.6139 24ZM29.6139 20L30.2659 20.3706L29.6139 20ZM31.6139 15L30.8654 14.9521L31.6139 15ZM31.1139 11.5L31.7929 11.1816L31.1139 11.5ZM30.1139 10L29.4204 10.2856L30.1139 10ZM30.1139 6.5L30.8339 6.29L30.1139 6.5ZM29.8553 2.11306C29.9178 1.70358 29.6364 1.32101 29.2269 1.25857C28.8175 1.19613 28.4349 1.47746 28.3725 1.88694L29.8553 2.11306ZM24.1139 2C23.4159 2.2745 23.4159 2.27446 23.4159 2.27442C23.4159 2.27442 23.4159 2.27439 23.4159 2.27438C23.4159 2.27438 23.4159 2.2744 23.4159 2.27446C23.416 2.27457 23.416 2.2748 23.4162 2.27516C23.4165 2.27588 23.4169 2.2771 23.4176 2.2788C23.4189 2.2822 23.421 2.28755 23.4238 2.29475C23.4294 2.30916 23.4378 2.331 23.4487 2.35958C23.4705 2.41676 23.5021 2.50086 23.5408 2.60651C23.6183 2.81808 23.7235 3.11464 23.834 3.45354C24.0591 4.14425 24.2901 4.96305 24.3698 5.59399L25.858 5.40601C25.7595 4.62663 25.4905 3.69543 25.2602 2.98871C25.1429 2.62891 25.0315 2.31491 24.9493 2.09059C24.9082 1.97829 24.8743 1.88812 24.8504 1.82551C24.8385 1.7942 24.8291 1.76976 24.8225 1.75287C24.8192 1.74443 24.8167 1.73787 24.8149 1.73328C24.814 1.73098 24.8133 1.72918 24.8128 1.72788C24.8125 1.72723 24.8123 1.7267 24.8122 1.72631C24.8121 1.72611 24.812 1.72594 24.812 1.72581C24.8119 1.72574 24.8119 1.72566 24.8119 1.72563C24.8119 1.72556 24.8118 1.7255 24.1139 2ZM24.3698 5.59399C24.4288 6.0614 24.3678 6.42449 24.3058 6.91986C24.2443 7.4119 24.192 7.99214 24.3919 8.70306L25.8359 8.29694C25.7186 7.88004 25.7397 7.54146 25.7942 7.10603C25.8482 6.67394 25.9458 6.10093 25.858 5.40601L24.3698 5.59399ZM24.3919 8.70306C24.5965 9.43061 25.0109 9.8939 25.3059 10.2366C25.6074 10.5868 25.7944 10.8204 25.887 11.1848L27.3408 10.8152C27.1529 10.0761 26.7439 9.60779 26.4426 9.25786C26.1349 8.90041 25.9395 8.66543 25.8359 8.29694L24.3919 8.70306ZM25.887 11.1848C26.0898 11.9824 25.9283 12.3204 25.865 13.4584L27.3627 13.5416C27.4078 12.73 27.6191 11.91 27.3408 10.8152L25.887 11.1848ZM25.865 13.4584C25.833 14.0355 25.8436 14.5738 25.8534 15.0584C25.8634 15.5529 25.8721 15.9809 25.8447 16.3885C25.7922 17.1698 25.6098 17.8343 25.038 18.5195L26.1897 19.4805C27.0167 18.4895 27.2738 17.4939 27.3413 16.4891C27.3739 16.0038 27.3628 15.5073 27.3531 15.0281C27.3432 14.539 27.3342 14.0543 27.3627 13.5416L25.865 13.4584ZM25.038 18.5195C24.4894 19.1769 23.8966 19.4672 23.1696 19.6655C22.7891 19.7692 22.3865 19.844 21.9167 19.9346C21.457 20.0233 20.9478 20.1247 20.408 20.2788L20.8198 21.7212C21.2911 21.5866 21.7441 21.4956 22.2009 21.4075C22.6477 21.3213 23.116 21.2348 23.5643 21.1126C24.4949 20.8588 25.3909 20.4378 26.1897 19.4805L25.038 18.5195ZM20.408 20.2788C19.0627 20.6629 17.8562 20.4397 16.4494 20.3232C15.0764 20.2094 13.5802 20.2248 12.1353 21.4226L13.0925 22.5774C14.0715 21.7659 15.0616 21.7134 16.3256 21.818C17.556 21.9199 19.1375 22.2014 20.8198 21.7212L20.408 20.2788ZM12.1353 21.4226C11.3124 22.1047 10.9051 22.7876 10.6244 23.5288C10.4913 23.8802 10.3858 24.2474 10.2816 24.6013C10.175 24.9634 10.064 25.3325 9.91203 25.7354L11.3156 26.2646C11.4886 25.8057 11.6128 25.3908 11.7205 25.025C11.8306 24.651 11.9187 24.3464 12.0271 24.0601C12.2294 23.5261 12.4972 23.0709 13.0925 22.5774L12.1353 21.4226ZM9.91203 25.7354C8.34612 29.8885 9.92945 33.8168 10.9022 36.737L12.3254 36.263C11.2994 33.1832 9.97504 29.8199 11.3156 26.2646L9.91203 25.7354ZM10.9022 36.737C11.1288 37.4171 11.5543 37.8892 12.1297 38.1274C12.6693 38.3508 13.2509 38.3311 13.7521 38.2372L13.4757 36.7628C13.1185 36.8298 12.8663 36.8089 12.7035 36.7415C12.5765 36.6889 12.4311 36.5805 12.3254 36.263L10.9022 36.737ZM13.7521 38.2372C14.5439 38.0887 14.9524 37.5789 15.2043 37.0943C15.3197 36.8722 15.4178 36.6249 15.4986 36.4313C15.5858 36.2221 15.6651 36.043 15.7611 35.879L14.4667 35.121C14.316 35.3783 14.2045 35.6373 14.1141 35.854C14.0173 36.0862 13.9512 36.2526 13.8732 36.4027C13.7383 36.6624 13.6434 36.7314 13.4757 36.7628L13.7521 38.2372ZM15.7611 35.879C17.078 33.63 17.1694 31.9607 17.3615 29.5598L15.8663 29.4402C15.6731 31.8544 15.5906 33.2015 14.4667 35.121L15.7611 35.879ZM17.3615 29.5598C17.4184 28.8487 17.2356 28.1929 17.1678 27.8113C17.0953 27.4034 17.1006 27.1572 17.2635 26.8748L15.9643 26.1252C15.5417 26.8576 15.5938 27.5275 15.691 28.0739C15.7928 28.6467 15.9028 28.9834 15.8663 29.4402L17.3615 29.5598ZM17.2635 26.8748C17.4489 26.5535 17.6736 26.388 17.9988 26.2403C18.1774 26.1593 18.3721 26.0899 18.62 26.0008C18.8584 25.9151 19.1349 25.8148 19.4252 25.6824L18.8026 24.3176C18.5749 24.4215 18.3511 24.5035 18.1126 24.5893C17.8835 24.6716 17.6246 24.7629 17.3788 24.8745C16.8552 25.1121 16.3479 25.4603 15.9643 26.1252L17.2635 26.8748ZM19.4252 25.6824C20.5535 25.1676 21.6102 25.3053 22.8969 25.4265C24.1467 25.5442 25.5995 25.6357 27.0469 24.6124L26.1809 23.3876C25.2156 24.0701 24.2626 24.0485 23.0376 23.9331C21.8496 23.8212 20.3626 23.606 18.8026 24.3176L19.4252 25.6824ZM27.0469 24.6124C28.8138 23.3631 29.3472 21.9867 30.2659 20.3706L28.9619 19.6294C27.9506 21.4083 27.6027 22.3823 26.1809 23.3876L27.0469 24.6124ZM30.2659 20.3706C31.2649 18.6133 32.2142 17.3616 32.3624 15.0479L30.8654 14.9521C30.7448 16.8359 30.0415 17.7302 28.9619 19.6294L30.2659 20.3706ZM32.3624 15.0479C32.4532 13.6298 32.4601 12.6045 31.7929 11.1816L30.4348 11.8184C30.94 12.8958 30.9511 13.6145 30.8654 14.9521L32.3624 15.0479ZM31.7929 11.1816C31.5963 10.7622 31.3503 10.4802 31.1774 10.2736C31.0047 10.0673 30.8946 9.92615 30.8074 9.71444L29.4204 10.2856C29.6013 10.7249 29.8417 11.0149 30.0273 11.2366C30.2126 11.4579 30.3326 11.6004 30.4348 11.8184L31.7929 11.1816ZM30.8074 9.71444C30.6407 9.30971 30.6858 8.96328 30.7971 8.41812C30.904 7.89459 31.0854 7.15232 30.8339 6.29L29.3939 6.71C29.5251 7.15984 29.4463 7.53563 29.3274 8.11809C29.2129 8.67892 29.0666 9.42641 29.4204 10.2856L30.8074 9.71444ZM30.8339 6.29C30.6752 5.74606 30.4139 5.36955 30.2256 5.08717C30.0367 4.80397 29.9135 4.60611 29.8415 4.3181L28.3863 4.6819C28.5261 5.24106 28.7806 5.62404 28.9777 5.91947C29.1753 6.21573 29.308 6.41563 29.3939 6.71L30.8339 6.29ZM29.8415 4.3181C29.7524 3.96153 29.7449 3.43279 29.7738 2.93856C29.7876 2.70253 29.8084 2.49329 29.8257 2.34337C29.8343 2.26865 29.842 2.20928 29.8474 2.16941C29.8501 2.14949 29.8522 2.13448 29.8536 2.12491C29.8543 2.12012 29.8548 2.1167 29.8551 2.1147C29.8552 2.1137 29.8553 2.11306 29.8554 2.11278C29.8554 2.11264 29.8554 2.1126 29.8554 2.11264C29.8554 2.11267 29.8554 2.11271 29.8554 2.11278C29.8554 2.11282 29.8553 2.11289 29.8553 2.1129C29.8553 2.11298 29.8553 2.11306 29.1139 2C28.3725 1.88694 28.3724 1.88703 28.3724 1.88713C28.3724 1.88717 28.3724 1.88728 28.3724 1.88736C28.3724 1.88752 28.3723 1.88771 28.3723 1.88792C28.3722 1.88835 28.3722 1.88886 28.3721 1.88948C28.3719 1.8907 28.3717 1.8923 28.3714 1.89427C28.3708 1.8982 28.37 1.90361 28.369 1.91043C28.367 1.92407 28.3643 1.94334 28.361 1.96773C28.3544 2.01648 28.3454 2.08583 28.3355 2.17149C28.3158 2.34233 28.2922 2.58049 28.2764 2.85107C28.246 3.37005 28.2386 4.09131 28.3863 4.6819L29.8415 4.3181Z" fill="#6E2FEB"/>
</svg>
