<svg width="41" height="40" viewBox="0 0 41 40" fill="none" xmlns="http://www.w3.org/2000/svg">
<path d="M19.8149 2C19.8149 2 19.3754 3.28319 19.2545 4.1348C19.108 5.16753 19.7859 5.89234 19.2545 6.80331C18.9539 7.31863 18.6921 7.61636 18.1337 7.87071C17.1269 8.32924 16.377 7.70871 15.3316 7.33701C14.136 6.91195 13.7579 6.06495 12.5295 5.73591C11.2654 5.39733 10.3136 5.12644 9.16693 5.73591C8.2114 6.2438 7.79305 6.87055 7.48567 7.87071C7.23976 8.67084 7.16054 9.23145 7.48567 10.0055C7.83052 10.8265 8.48925 12.1403 9.72728 12.1403C13.6502 12.1403 12.0123 9.22675 17.8793 12.0206C19.0001 12.5543 18.8641 11.708 21.2418 10.9532C22.9231 10.4195 24.8586 13.7414 24.8586 13.7414M21.4961 2C21.8329 4.84093 22.5855 5.76317 24.8586 6.26961M25.9795 9.47181C25.9795 9.47181 25.3261 7.86237 25.4191 6.80331C25.5173 5.68482 25.2543 6.18864 25.9795 5.20221C28.9098 1.21633 38.6792 9.92742 35.5066 13.7414C34.5267 14.9195 32.7045 14.8088 32.7045 14.8088" stroke="#2E3A59" stroke-width="1.2" stroke-linecap="round"/>
<path d="M23.1768 15.8741C23.1768 15.8741 23.8677 15.9526 24.2976 15.8741C26.0305 15.5576 24.8903 12.736 26.5393 12.1381C32.0106 10.1545 33.8037 18.5663 31.0227 19.0763" stroke="#2E3A59" stroke-width="1.2" stroke-linecap="round"/>
<path d="M32.7047 18.0099C32.7047 18.0099 35.6445 16.9862 36.8142 18.2443C38.4811 20.0372 36.8142 27.2459 34.9463 26.5494C32.0093 25.4542 30.4629 27.0831 30.4629 27.0831" stroke="#2E3A59" stroke-width="1.2" stroke-linecap="round"/>
<path d="M26.5407 26.5475C26.5407 26.5475 31.6727 26.4498 32.7053 28.6823C33.7713 30.987 32.1706 33.2569 29.9032 34.553C26.6305 36.4238 21.7221 32.21 22.0573 31.8845" stroke="#2E3A59" stroke-width="1.2" stroke-linecap="round"/>
<path d="M22.0567 14.8086C21.3385 15.9988 20.908 16.638 20.9358 18.5445C20.9637 20.451 23.2184 20.1959 23.7379 21.7467C24.5408 24.1433 22.3177 26.0209 23.7379 28.1511C24.7333 29.6441 25.2904 30.958 27.1005 31.3533C28.398 31.6367 30.463 30.8196 30.463 30.8196" stroke="#2E3A59" stroke-width="1.2" stroke-linecap="round"/>
<path d="M23.7373 23.8821C26.5394 19.6123 29.9019 19.6122 32.704 23.8821" stroke="#2E3A59" stroke-width="1.2" stroke-linecap="round"/>
<path d="M13.0908 13.207C13.7265 16.8727 15.4208 18.0669 20.9367 18.544" stroke="#2E3A59" stroke-width="1.2" stroke-linecap="round"/>
<path d="M7.48614 10.5391C7.48614 10.5391 5.52241 10.8176 4.68404 11.6065C2.99694 13.1939 3.05131 18.2509 5.24446 19.612C6.98396 20.6915 8.25922 18.4303 10.2882 18.0109C12.225 17.6105 15.332 17.4772 15.332 17.4772" stroke="#2E3A59" stroke-width="1.2" stroke-linecap="round"/>
<path d="M5.24302 20.1445C3.90042 26.3375 6.4908 27.767 9.72653 27.0826C12.2972 26.5389 15.2751 24.239 17.0119 24.9478" stroke="#2E3A59" stroke-width="1.2" stroke-linecap="round"/>
<path d="M8.60742 25.4808C8.60742 25.4808 8.69583 22.9006 9.72826 21.7449C10.9399 20.3886 12.343 20.2097 14.2116 20.1438C16.2865 20.0706 17.7984 20.3363 19.2554 21.7449C20.4251 22.8757 20.9699 23.8938 20.9367 25.4808C20.9187 26.34 20.8933 26.9113 20.3763 27.6156M20.3763 27.6156C19.4633 28.8592 17.6148 27.6443 16.4533 28.683C15.8781 29.1975 15.3325 30.2841 15.3325 30.2841M20.3763 27.6156C20.3763 27.6156 21.1447 28.1983 21.4971 28.683C22.3781 29.8949 22.4121 30.9846 22.0575 32.4194C21.8333 33.3267 21.6288 33.8951 20.9367 34.5542C20.2446 35.2133 19.4997 35.091 18.695 35.6216C17.6771 36.2927 17.5702 37.2477 16.4533 37.7564C14.4398 38.6735 10.8491 36.689 10.8491 36.689" stroke="#2E3A59" stroke-width="1.2" stroke-linecap="round"/>
<path d="M19.2549 30.8204C19.2549 30.8204 17.787 31.6846 17.0133 32.4215C16.2395 33.1584 16.1475 33.8614 15.332 34.5563C14.7439 35.0574 14.412 35.426 13.6507 35.6237C12.5741 35.9033 10.8486 35.09 10.8486 35.09M12.5299 26.5508C12.735 30.9585 13.3384 32.682 15.8924 33.4889" stroke="#2E3A59" stroke-width="1.2" stroke-linecap="round"/>
</svg>
