<svg width="41" height="40" viewBox="0 0 41 40" fill="#6E2FEB" xmlns="http://www.w3.org/2000/svg">
<path fill-rule="evenodd" clip-rule="evenodd" d="M14.0244 12.0658C15.0733 13.2089 16.8457 13.6996 20.0929 13.7689C20.2777 11.3164 21.2226 9.38489 22.6209 8.02844C24.1746 6.52089 26.2351 5.77778 28.2795 5.77778C30.324 5.77778 32.3853 6.52089 33.9391 8.02844C35.5035 9.54578 36.5 11.7849 36.5 14.6667V24.4444C36.5 27.184 36.044 30.0453 34.6635 32.2489C33.2422 34.5173 30.8955 36 27.3835 36C23.7906 36 21.2902 33.8684 19.0031 31.8951L18.9035 31.8089C16.6013 29.8213 14.4546 27.9698 11.404 27.5556C9.90796 27.5671 8.90085 28.024 8.19774 28.6498C7.46885 29.2987 6.99774 30.1911 6.70441 31.1493C6.41108 32.1058 6.30974 33.0782 6.28485 33.8213C6.27204 34.1977 6.27768 34.5744 6.30174 34.9502C6.30309 34.9695 6.30457 34.9888 6.30619 35.008L6.30796 35.0204L5.42352 35.1111C4.53908 35.2018 4.53908 35.2009 4.53908 35.2V35.1973L4.53819 35.1893L4.53552 35.1653C4.52503 35.0393 4.51703 34.913 4.51152 34.7867C4.50085 34.5369 4.49374 34.184 4.50796 33.7609C4.53641 32.9227 4.65019 31.7831 5.00485 30.6284C5.35774 29.4756 5.96574 28.256 7.01552 27.3218C8.08219 26.3724 9.53819 25.7778 11.4609 25.7778C11.908 25.7778 12.3293 25.7876 12.7337 25.7973C13.4857 25.8151 14.1809 25.8329 14.8777 25.7796C15.9044 25.7031 16.7506 25.4791 17.4502 24.9556C18.7897 23.9511 19.9497 21.5556 20.052 15.5467C16.7462 15.4782 14.292 14.9867 12.7151 13.2676C11.8582 12.3342 11.3293 11.112 11.0102 9.6C10.6929 8.09422 10.572 6.24444 10.572 4H12.3497C12.3497 6.2 12.4697 7.90578 12.7497 9.23289C13.0289 10.5547 13.4546 11.4436 14.0244 12.0658ZM19.9409 30.3556C18.7773 29.3511 17.5337 28.2756 16.0946 27.4116C16.9337 27.2489 17.7622 26.9431 18.5169 26.3778C19.6724 25.5111 20.5435 24.1253 21.1035 21.9973C22.5666 21.0107 23.7702 20.8018 24.8262 20.9173C25.9569 21.0418 27.0013 21.5422 28.1533 22.1262L28.3453 22.224C29.3915 22.7556 30.572 23.3564 31.8262 23.5138C32.8205 23.644 33.8309 23.4676 34.7222 23.008V24.4444C34.7222 27.0382 34.2813 29.5102 33.1569 31.3058C32.0724 33.0373 30.3035 34.2213 27.3826 34.2213C24.5409 34.2213 22.5133 32.576 20.1649 30.5493L19.9409 30.3556ZM34.7222 20.912V14.6667C34.7222 12.2151 33.8866 10.4533 32.7009 9.30489C31.5062 8.14489 29.9009 7.55556 28.2795 7.55556C26.6582 7.55556 25.0529 8.14489 23.8582 9.30489C22.6733 10.4542 21.8377 12.2151 21.8377 14.6667C21.8377 16.6169 21.7382 18.2898 21.5435 19.7209C22.772 19.1751 23.924 19.0302 25.0209 19.1502C26.516 19.3147 27.8315 19.9698 28.9577 20.5404L29.0377 20.5813C30.1853 21.1627 31.1106 21.632 32.0484 21.7502C32.8395 21.8498 33.6964 21.7004 34.7222 20.912Z" fill="#6E2FEB"/>
</svg>
